<svg xmlns="http://www.w3.org/2000/svg" width="456" height="187" viewBox="0 0 456 187">
    <defs>
        <path id="a" d="M0 0h16.473v17.352H0z"/>
    </defs>
    <g fill="none" fill-rule="evenodd">
        <path d="M0-16h499v212H0z"/>
        <path fill="#FB611B" d="M246.02 18.143l-10.732-6.27 11.658-7.557c-.31 4.61-.618 9.218-.926 13.827M247.868.205L231.73 10.668c-.918.596-.993 1.966 0 2.546 4.86 2.838 9.72 5.676 14.578 8.516.124.096.262.173.415.223.686.325 1.33.062 1.712-.426.207-.228.352-.527.379-.908l1.28-19.142c.074-1.099-1.319-1.861-2.226-1.272"/>
        <path fill="#EFBF2A" d="M409.769 11.056c0-9.129 13.63-9.052 14.116 0-.487 9.043-14.116 9.126-14.116 0m17.101 0a1.549 1.549 0 0 0-.043-.44c-.483-5.256-4.47-9.612-10-9.612-5.442 0-10.067 4.587-10.043 10.052.023 5.296 4.282 9.784 9.577 10.026 5.71.258 9.962-4.143 10.465-9.582a1.54 1.54 0 0 0 .044-.444"/>
        <path fill="#FB611B" d="M172.292 39.372c-3.132 1.011-5.272-1.255-5.715-4.25-.288-1.958-.138-3.803-1.275-5.53-1.812-2.748-5.29-3.668-8.23-2.502-1.83.725-.767 3.665 1.071 2.935 3.387-1.343 4.99 1.39 5.33 4.393.216 1.913.313 3.641 1.467 5.24 1.963 2.724 5.36 3.638 8.426 2.648 1.872-.604.8-3.54-1.074-2.934"/>
        <path fill="#EFBF2A" d="M451.776 44.093c.735 3.208-1.71 5.143-4.731 5.323-1.976.117-3.802-.194-5.62.788-2.897 1.566-4.116 4.95-3.21 7.982.563 1.885 3.584 1.082 3.016-.812-1.042-3.491 1.821-4.85 4.841-4.927 1.925-.048 3.655.006 5.347-1.005 2.886-1.718 4.092-5.022 3.374-8.162-.439-1.918-3.457-1.106-3.017.813M317.443 23.158c2.443 2.207 1.55 5.193-.822 7.074-1.552 1.23-3.225 2.022-4.152 3.87-1.474 2.943-.532 6.415 1.949 8.379 1.542 1.22 3.557-1.17 2.005-2.396-2.856-2.262-1.29-5.017 1.14-6.812 1.549-1.143 2.997-2.092 3.804-3.89 1.378-3.062.471-6.461-1.919-8.622-1.459-1.319-3.465 1.078-2.005 2.397"/>
        <path fill="#91DAE6" d="M139.739 175.38h75.497V89.106h-75.497z"/>
        <path fill="#6EBECC" d="M155.546 98.63c1.702 0 3.082 1.392 3.082 3.11v9.326h-6.164v-9.327c0-1.717 1.38-3.11 3.082-3.11M175.561 98.63c1.702 0 3.082 1.392 3.082 3.11v9.326h-6.164v-9.327c0-1.717 1.38-3.11 3.082-3.11M155.546 124.8c1.702 0 3.082 1.391 3.082 3.109v9.327h-6.164v-9.327c0-1.718 1.38-3.11 3.082-3.11M175.561 124.8c1.702 0 3.082 1.391 3.082 3.109v9.327h-6.164v-9.327c0-1.718 1.38-3.11 3.082-3.11M175.561 150.969c1.702 0 3.082 1.392 3.082 3.11v9.326h-6.164v-9.327c0-1.717 1.38-3.11 3.082-3.11M155.546 150.969c1.702 0 3.082 1.392 3.082 3.11v9.326h-6.164v-9.327c0-1.717 1.38-3.11 3.082-3.11"/>
        <path fill="#91DAE6" d="M363.54 175.38h75.496V89.106H363.54z"/>
        <path fill="#6EBECC" d="M423.228 98.63c-1.702 0-3.082 1.392-3.082 3.11v9.326h6.164v-9.327c0-1.717-1.38-3.11-3.082-3.11M403.213 98.63c-1.702 0-3.081 1.392-3.081 3.11v9.326h6.163v-9.327c0-1.717-1.38-3.11-3.082-3.11M423.228 124.8c-1.702 0-3.082 1.391-3.082 3.109v9.327h6.164v-9.327c0-1.718-1.38-3.11-3.082-3.11M403.213 124.8c-1.702 0-3.081 1.391-3.081 3.109v9.327h6.163v-9.327c0-1.718-1.38-3.11-3.082-3.11M403.213 150.969c-1.702 0-3.081 1.392-3.081 3.11v9.326h6.163v-9.327c0-1.717-1.38-3.11-3.082-3.11M423.228 150.969c-1.702 0-3.082 1.392-3.082 3.11v9.326h6.164v-9.327c0-1.717-1.38-3.11-3.082-3.11"/>
        <path fill="#A7E1EA" d="M192.91 175.38h191.824V50.942H192.909z"/>
        <path fill="#A7E1EA" d="M192.91 73.622h38.519V34.759H192.91z"/>
        <path fill="#6EBECC" d="M192.91 38.258h38.519v-3.966H192.91z"/>
        <path fill="#A7E1EA" d="M346.215 73.622h38.519V34.759h-38.519z"/>
        <path fill="#6EBECC" d="M346.215 38.258h38.519v-3.966h-38.519z"/>
        <path fill="#91DAE6" d="M182.51 67.015l10.4 12.047h146.375V67.015z"/>
        <path fill="#6EBECC" d="M182.509 67.015h212.24v-4.664h-212.24z"/>
        <path fill="#91DAE6" d="M297.072 121.033H189.534v4.664H387.045v-4.664zM394.749 67.015l-10.4 12.047h-88.595V67.015z"/>
        <path fill="#6EBECC" d="M264.94 138.46c-3.617 0-6.549 2.959-6.549 6.608v30.312h13.098v-30.312c0-3.65-2.933-6.607-6.549-6.607M288.437 138.46c-3.617 0-6.549 2.959-6.549 6.608v30.312h13.097v-30.312c0-3.65-2.932-6.607-6.548-6.607M311.933 138.46c-3.616 0-6.549 2.959-6.549 6.608v30.312h13.098v-30.312c0-3.65-2.932-6.607-6.549-6.607M211.716 104.07c-4.856 0-8.791 3.97-8.791 8.87v8.87h17.583v-8.87c0-4.9-3.936-8.87-8.792-8.87M366.753 104.07c-4.856 0-8.792 3.97-8.792 8.87v8.87h17.583v-8.87c0-4.9-3.936-8.87-8.791-8.87M244.874 121.81H234.86V94.994c0-2.79 2.242-5.051 5.008-5.051s5.007 2.262 5.007 5.051v26.816zM269.558 121.81h-10.016V94.994c0-2.79 2.242-5.051 5.009-5.051 2.765 0 5.007 2.262 5.007 5.051v26.816zM294.242 121.81h-10.016V94.994c0-2.79 2.242-5.051 5.009-5.051 2.765 0 5.007 2.262 5.007 5.051v26.816zM318.926 121.81H308.91V94.994c0-2.79 2.242-5.051 5.009-5.051 2.765 0 5.007 2.262 5.007 5.051v26.816zM343.609 121.81h-10.015V94.994c0-2.79 2.242-5.051 5.008-5.051 2.765 0 5.007 2.262 5.007 5.051v26.816z"/>
        <path fill="#EFBF2A" d="M127.83 118.387c.732 2.813 2.095 5.46 2.513 8.337.563 3.867-.624 7.74-1.372 11.575a52.196 52.196 0 0 0-.804 14.135c.166 2.059.486 4.2 1.67 5.884 1.239 1.764 3.246 2.784 5.191 3.691a141.61 141.61 0 0 0 15.175 6.038c1.07.356 2.16.702 3.288.737 2.627.08 5.091-1.606 6.518-3.836 1.426-2.23 1.954-4.928 2.133-7.577.55-8.119-1.94-16.217-5.77-23.381-3.829-7.166-8.96-13.523-14.093-19.804-1.772-2.168-3.662-4.418-6.251-5.457-6.685-2.682-9.596 4.276-8.198 9.658"/>
        <path fill="#FB611B" d="M416.688 99.062c-1.34 4.28-3.314 8.325-4.843 12.538-3.669 10.103-4.712 21.162-2.999 31.782.377 2.333.909 4.705 2.208 6.671 3.692 5.593 11.917 5.722 18.206 3.508 2.855-1.005 5.644-2.4 7.766-4.575 4.942-5.069 5.187-13.218 3.366-20.088-1.822-6.87-5.347-13.2-6.99-20.117-1.47-6.184 1.595-29.379-4.206-31.81-9.456-3.962-11.07 17.5-12.508 22.091"/>
        <path fill="#C69200" d="M139.459 130.968c6.29 18.013 9.795 35.308 10.957 54.383.114 1.864 3.004 1.877 2.889 0-1.174-19.277-4.696-36.932-11.06-55.158-.614-1.757-3.407-1-2.786.775"/>
        <path fill="#B73E0F" d="M422.7 105.877c-1.344 14.124-2.676 28.371-1.844 42.573.745 12.673 3.378 25.088 6.334 37.397.438 1.823 3.224 1.05 2.786-.774-3.009-12.527-5.685-25.152-6.307-38.062-.662-13.727.62-27.483 1.92-41.134.179-1.867-2.711-1.854-2.888 0"/>
        <path fill="#EFBF2A" d="M123.07 120.917s-9.332-1.748-11.762-5.672c0 0 11.762 0 11.762 5.672M121.231 102.7s-10.422-8.25-10.747-13.237c0 0 14.398 2.78 10.747 13.237"/>
        <path fill="#FB611B" d="M423.456 68.114s-6.35-5.762-3.013-11.526c0 0 7.95 7.483 3.013 11.526M391.92 53.23s-11.04-3.256-10.326-12.216c0 0 13.981 4.4 10.326 12.216M446.828 99.693s1.328-3.038 8.35-7.936c0 0 .408 11.589-8.35 7.936"/>
        <g>
            <path fill="#EFBF2A" d="M126.967 59.263s3.796-5.83 3.86-7.054c.066-1.225 1.393-4.162 2.209-8.912.815-4.75 4.026-11.313 4.595-10.749.57.563 1.452 5.874 1.83 6.49.38.616 1.687.153 2.59 2.99.902 2.839-.817 7.534-.753 8.854.064 1.32 1.588.9 1.295 3.861-.294 2.96-3.821 8.165-5.482 8.827-1.66.662 3.266-.163 6.266.745 1.094.33 2.634.433 2.18 2.1-.453 1.668-2.586 2.13-1.951 2.707.465.422.729 1.213.479 1.728-1.766 3.644-3.733 2.937-4.023 2.09-.183-.535.217.625-.111 1.06-.84 1.112-1.55 1.289-2.015.75-1.973-2.29-4.31-4.976-5.123-5.678-.814-.702-1.501-.068-2.542.955-5.27 5.188-12.383 3.615-13.349 3.47-.965-.146-.775-1.292-1.31-1.01-.537.283-3.624.618-5.065.603-1.441-.015-9.115-3.923-5.566-4.077 3.55-.153 10.556-1.767 14.372-3.392 3.463-1.474 3.032-2.014 2.733-2.343-.298-.33-1.776-1.102-2.176-1.372-1.328-.895-1.531-1.11-1.531-1.11-.486-.362-.566-.842-.126-.785.326.042.708.172.95-.258.683-1.216 3.22-2.016 5.234-1.44 2.015.578 2.53.95 2.53.95M14.656 57.187s2.8-3.317 2.952-4.092c.153-.775 1.216-2.508 2.144-5.453.928-2.945 3.448-6.793 3.734-6.372.286.42.314 3.905.481 4.339.168.433.988.278 1.26 2.185.271 1.908-1.189 4.722-1.274 5.571-.085.85.86.745.408 2.603-.45 1.86-3.031 4.805-4.08 5.05-1.048.246 1.956.245 3.653 1.145.62.328 1.525.558 1.1 1.574-.426 1.016-1.736 1.083-1.413 1.519.237.32.32.852.124 1.154-1.39 2.138-2.492 1.476-2.585.906-.06-.362.07.421-.165.664-.603.62-1.043.657-1.268.264-.958-1.672-2.096-3.637-2.513-4.171-.418-.536-.886-.204-1.6.338-3.616 2.749-7.695.986-8.255.79-.56-.196-.34-.907-.684-.784-.346.124-2.21.008-3.066-.155-.855-.164-5.049-3.478-2.926-3.197 2.123.28 6.436-.002 8.855-.632 2.195-.572 1.99-.962 1.843-1.204-.146-.242-.952-.893-1.165-1.108-.705-.714-.806-.872-.806-.872-.255-.283-.258-.598-.002-.515.19.061.405.185.589-.063.519-.704 2.1-.944 3.244-.36 1.143.583 1.415.876 1.415.876M86.964 70.248c-1.066-.54-5.604-3.163-8.31-4.342-2.706-1.178-5.502-2.967-6.906-2.944-1.404.023-1.506.897-1.929.912-.423.015-1.21.461-.15.76 1.061.298 1.423 1.653 2.122 2.017.698.363.861.242.71 1.37-.153 1.126-.637 3.58-.216 5.704.421 2.124 1.614 8.142 3.333 11.132 1.72 2.99 1.68 1.057 1.67-1.37-.012-2.426-.37-3.446.269-3.85.64-.406 1.098-2.376 1.097-3.792 0-1.416-.837-3.563-.47-4.007.368-.445.622-1.377 1.417-1.153.796.224 3.475.476 4.083.229.609-.247 4.016 1.63 4.075.978.059-.652 1.984-.236-.795-1.644"/>
            <path fill="#FB611B" d="M44.031 40.485c.193.021.421.103.556-.207.341-.783 1.556-1.367 2.664-1.234.015-.757-.023-1.73-.184-2.902-.429-3.13-1.28-8.138-1.509-8.875-.229-.738-.746-2.87.206-2.335.952.534 1.28.812 1.763 1.995.484 1.182 2.246.52 2.808 1.478.562.957.948 3.215.8 3.896-.075.35-.113 1.956-.133 3.432.188-.487.314-.887.318-1.095.018-.869.752-2.983 1.154-6.367.401-3.385 2.186-8.115 2.532-7.73.345.384.955 4.123 1.188 4.55.234.427.998.065 1.578 2.052.58 1.986-.356 5.356-.295 6.29.06.932.952.596.828 2.701s-2.118 5.88-3.087 6.391c-.968.512 5.198-.193 6.984.374.65.207 1.56.24 1.321 1.432-.24 1.193-1.49 1.574-1.106 1.966.281.288.45.841.312 1.213-.981 2.625-2.154 2.174-2.34 1.582-.116-.374.14.438-.047.753-.476.81-4.564-2.844-4.847-3.215-.763-.996-.485 1.658-5.561-.917-1.16-.59-5.175-4.143-5.175-4.143-.547-.422-.64-.533-.64-.533-.293-.244-.348-.581-.088-.552"/>
        </g>
    </g>
</svg>
