<svg xmlns="http://www.w3.org/2000/svg" xmlns:xlink="http://www.w3.org/1999/xlink" width="1169" height="299" viewBox="0 0 1169 299">
    <defs>
        <path id="a" d="M0 .544h65.96V25H0z"/>
        <path id="c" d="M.806.21h12.938v16.176H.806z"/>
        <path id="e" d="M.817.169h14.148V14.76H.817z"/>
        <path id="g" d="M.014.898h16.928v22.08H.014z"/>
        <path id="i" d="M.972.063h15.356v12.229H.972z"/>
        <path id="k" d="M0 .908h62.95v23.839H0z"/>
        <path id="m" d="M.41.551h66.478V70H.411z"/>
        <path id="o" d="M.388.74H14.91v16.679H.388z"/>
        <path id="q" d="M.463.186h2.345v1.696H.463z"/>
        <path id="s" d="M.143.749h30.653v92.1H.143z"/>
        <path id="u" d="M0 .33h109.778v27.972H0z"/>
    </defs>
    <g fill="none" fill-rule="evenodd" opacity=".1">
        <g fill="#FFF">
            <path d="M309.78 266.807c-1.485-9.154 1.09-19.203 8.124-25.55 1.55-1.397 3.1-2.307 5.086-2.914 1.094-.335 2.718-.908 3.871-.628 5.61 1.37.275 7.207-2.124 8.536-4.955 2.745-13.115-.262-15.9-4.548-3.408-5.243-2.01-11.863 1.453-16.635 3.297-4.543 8.977-8.541 14.15-10.864 4.971-2.235 11.681.623 6.707 6.966-1.632 2.08-4.335 3.616-6.73 4.63-6.81 2.884-16.893 3.89-22.501-1.899-8.267-8.535-.96-23.393 4.887-31.164 5.576-7.41 13.117-12.748 21.734-16.008 1.046-.396.361-2.002-.682-1.608-11.012 4.166-20.27 11.8-26.081 22.141-4.464 7.95-8.573 20.5-1.046 28.062 6.137 6.162 17.07 5.255 24.37 2.083 4.332-1.88 10.67-5.927 9.675-11.502-1.312-7.348-9.467-4.332-13.657-1.907-6.735 3.899-14.05 9.347-15.68 17.494-1.676 8.365 3.185 15.761 11.556 17.039 4.989.76 17.091-1.975 14.201-9.898-1.775-4.864-9.356-2.279-12.459-.332-9.092 5.705-12.29 18.776-10.674 28.732.18 1.11 1.9.884 1.72-.226M295.428 143.377c-7.344 11.192-5.545 24.619 4.303 33.377.827.736 1.884-.656 1.06-1.389-9.125-8.114-10.747-20.643-3.968-30.975.612-.932-.777-1.956-1.395-1.013M309.715 136.776c14.094 1.204 22.973 14.021 18.822 27.619-.334 1.096 1.326 1.772 1.663.668 4.47-14.642-4.89-28.752-20.254-30.063-1.15-.098-1.383 1.677-.231 1.776M303.094 154.602c-2.779-1.35-.99-4.682.254-6.33l1.434-1.455 4.713.4c2.4 1.778.243 6.949-.315 9.033-.8 3-.924 5.69.802 8.353.603.93 1.953-.146 1.352-1.074-3.197-4.928 2.164-10.153.533-15.333-.67-2.131-2.376-4.03-4.737-4.067-5.247-.086-10.542 9.225-4.682 12.074 1.002.487 1.642-1.117.646-1.6M312.26 169.51l.169.398c.407.961 1.329.573.92-.39l-.169-.398c-.408-.962-1.329-.572-.92.39"/>
            <path d="M326.143 171.294a114.63 114.63 0 0 0 4.534 10.353c.504 1.01 2.151.319 1.645-.698a114.63 114.63 0 0 1-4.534-10.353c-.405-1.062-2.048-.361-1.645.698"/>
            <path d="M326.77 171.857c3.834.284 7.667.567 11.5.848l-.59-1.389-6.615 8.24c-.703.874.697 1.923 1.4 1.045l6.615-8.24c.398-.494.056-1.34-.59-1.389-3.833-.281-7.666-.565-11.5-.848-1.116-.082-1.342 1.651-.22 1.733"/>
        </g>
        <g fill="#FFF">
            <path d="M7.449 288.8c2.837-13.562 6.141-27.015 10.064-40.314.303-1.026 2.42-10.4 3.333-10.837 2.7-1.293 4.248 2.234 5.868 3.895 5.033 5.157 10.063 10.316 15.094 15.474 4.423 4.533 9.97 8.976 13.723 14.064 3.63 4.924 3.654 4.933.632 10.264-1.739 3.069-4.635 6.85-7.098 9.273-6.284 6.184-10.577 4.159-18.734 2.478-7.74-1.595-15.479-3.188-23.218-4.785-1.594-.326-2.416 2.078-.807 2.411 12.898 2.655 25.796 5.312 38.694 7.97.602.124 1.1-.025 1.476-.517 5.52-7.21 11.04-14.422 16.56-21.635.331-.433.247-1.163-.124-1.544l-41.166-42.194c-.653-.672-1.857-.472-2.159.458a526.908 526.908 0 0 0-14.563 54.747c-.331 1.583 2.09 2.388 2.425.792"/>
            <path d="M19.73 235.744a698.634 698.634 0 0 1 24.252 62.088c.515 1.525 3.024 1.012 2.503-.532a706.229 706.229 0 0 0-24.481-62.729c-.665-1.485-2.938-.313-2.274 1.173M6.94 290.133a154.184 154.184 0 0 0 18.197-10.47c1.312-.88.196-3.049-1.137-2.157a154.474 154.474 0 0 1-18.197 10.469c-1.442.704-.309 2.863 1.137 2.158"/>
            <path d="M25.749 279.894a426.99 426.99 0 0 1 33.514-.872c1.644.02 1.756-2.744.105-2.764a433.25 433.25 0 0 0-34.198.916c-1.635.109-1.043 2.828.579 2.72"/>
            <path d="M26.86 278.572a1102.186 1102.186 0 0 1-5.473-42.007c-.184-1.657-2.698-1.11-2.514.534 1.554 14.04 3.38 28.038 5.472 42.008.248 1.651 2.762 1.11 2.515-.535"/>
        </g>
        <g transform="translate(751 245)">
            <mask id="b" fill="#fff">
                <use xlink:href="#a"/>
            </mask>
            <path fill="#FFF" d="M.163 7.859C8.56 19.376 22.365 25.981 36.572 24.881c13.36-1.033 26.462-9.436 29.367-23.251.23-1.09-1.426-1.556-1.657-.461-2.891 13.744-16.37 21.71-29.612 22.075-12.933.358-25.364-5.757-33.022-16.263-.65-.889-2.142-.023-1.485.878" mask="url(#b)"/>
        </g>
        <path fill="#FFF" d="M819.991 240.17c-2.114-15.834-15.223-28.164-31.152-29.168-1.121-.071-1.116 1.676 0 1.747 14.888.938 27.426 12.569 29.409 27.421.146 1.099 1.892 1.114 1.743 0M776.185 213.08c-9.937 4.208-16.745 13.566-16.149 24.319.54 9.744 7.063 18.948 16.877 21.567 1.09.29 1.556-1.355.467-1.645-9.822-2.622-15.794-12.269-15.629-21.921.163-9.437 6.724-17.206 15.32-20.848 1.032-.436.14-1.907-.886-1.473"/>
        <path fill="#FFF" d="M791.157 255.923c7.773-3.3 13.11-11.234 11.581-19.836-1.424-8.032-8.522-14.14-16.866-12.935-7.284 1.052-12.485 8.368-10.413 15.6 2.008 7.003 10.277 9.584 16.328 6.125.958-.547.093-2.03-.868-1.48-6.454 3.69-14.679-.934-14.171-8.531.547-8.183 9.205-12.076 16.263-9.052 13.624 5.837 8.602 23.82-2.722 28.629-1.015.43-.139 1.908.868 1.48"/>
        <path fill="#FFF" d="M784.755 232.862c.369-1.507 2.528-1.254 3.45-.436 1.698 1.506.965 4.569.557 6.454-.244 1.124 1.482 1.605 1.725.476.623-2.878 1.26-7.097-1.863-8.801-1.982-1.085-4.99-.633-5.594 1.829-.275 1.12 1.45 1.598 1.725.478"/>
        <path fill="#FFF" d="M788.709 233.016c-3.066-.233-5.657 2.121-5.709 5.024-.01.481.403.771.86.821 2.895.321 5.738.083 8.535-.694 1.061-.294.61-1.88-.457-1.584-2.66.738-5.33.94-8.077.635.286.275.572.548.86.822.037-2.057 1.875-3.541 3.988-3.381 1.104.084 1.098-1.56 0-1.643"/>
        <g transform="translate(775 203)">
            <mask id="d" fill="#fff">
                <use xlink:href="#c"/>
            </mask>
            <path fill="#FFF" d="M12.435.367A114.938 114.938 0 0 0 1.06 9.433c-.417.378-.294 1.09.177 1.358a104.19 104.19 0 0 0 11.107 5.505c.59.25 1.312-.032 1.316-.748l.084-14.483c.006-1.114-1.744-1.116-1.75 0l-.084 14.483 1.316-.747A104.422 104.422 0 0 1 2.12 9.297c.06.453.12.907.178 1.36a111.234 111.234 0 0 1 11.02-8.796c.914-.636.04-2.139-.883-1.494" mask="url(#d)"/>
        </g>
        <g transform="translate(808 234)">
            <mask id="f" fill="#fff">
                <use xlink:href="#e"/>
            </mask>
            <path fill="#FFF" d="M3.157 12.961c1.88-3.96 3.978-7.782 6.301-11.48l-1.557-.21a43.094 43.094 0 0 0 5.468 13.05l.736-1.332a97.304 97.304 0 0 1-12.478-.9c-1.084-.148-1.075 1.624 0 1.772 4.144.568 8.298.867 12.478.9.622.002 1.094-.767.735-1.334A41.598 41.598 0 0 1 9.544.799C9.36.025 8.371-.026 7.987.588a111.17 111.17 0 0 0-6.302 11.48c-.484 1.018.986 1.916 1.472.893" mask="url(#f)"/>
        </g>
        <path fill="#FFF" d="M778.55 251.01a47.252 47.252 0 0 0-1.55 12.16c.003.672.73 1.013 1.312.73a119.67 119.67 0 0 0 12.275-6.878c.62-.398.534-1.333-.208-1.546a37.412 37.412 0 0 1-11.186-5.32c-.912-.635-1.783.831-.878 1.46a38.823 38.823 0 0 0 11.6 5.49l-.208-1.546a119.68 119.68 0 0 1-12.275 6.88l1.311.73a45.521 45.521 0 0 1 1.489-11.71c.275-1.056-1.405-1.505-1.681-.45"/>
        <g>
            <path fill="#FFF" d="M486.003 12.48a193.356 193.356 0 0 0-14.9 26.921c-.553 1.216 1.264 2.282 1.82 1.056a193.366 193.366 0 0 1 14.902-26.921c.745-1.13-1.08-2.178-1.822-1.056"/>
            <path fill="#FFF" d="M471.26 39.73a238.703 238.703 0 0 0 20.968 21c.973.861 2.425-.54 1.448-1.403a238.703 238.703 0 0 1-20.968-21c-.857-.971-2.3.438-1.448 1.404M487.955 13a159.63 159.63 0 0 0 21.33-2.023c1.253-.204.721-2.164-.526-1.962a155.825 155.825 0 0 1-20.804 1.949c-1.271.034-1.276 2.07 0 2.036"/>
            <g transform="translate(509 9)">
                <mask id="h" fill="#fff">
                    <use xlink:href="#g"/>
                </mask>
                <path fill="#FFF" d="M.18 2.39a212.765 212.765 0 0 0 15.04 20.245c.845 1.01 2.31-.429 1.471-1.43A207.658 207.658 0 0 1 1.978 1.368C1.261.274-.54 1.287.181 2.391" mask="url(#h)"/>
            </g>
            <path fill="#FFF" d="M516.966 59.308a190.537 190.537 0 0 0 8.005-27.016c.283-1.297-1.608-1.85-1.892-.55a190.601 190.601 0 0 1-8.005 27.016c-.468 1.238 1.427 1.775 1.892.55"/>
            <path fill="#FFF" d="M525.272 32.974a286.827 286.827 0 0 1 26.76-4.705c1.283-.162 1.298-2.425 0-2.26a293.016 293.016 0 0 0-27.3 4.785c-1.282.288-.739 2.468.54 2.18"/>
            <path fill="#FFF" d="M553.252 27.768a238.822 238.822 0 0 0 18.953 19.942c.966.906 2.447-.518 1.48-1.425a238.819 238.819 0 0 1-18.953-19.943c-.852-1.005-2.323.429-1.48 1.426M569.078 47.722l-6.053 29.02c-.264 1.263 1.633 1.802 1.897.536l6.053-29.02c.264-1.263-1.633-1.802-1.897-.536M493.993 60.95a94.108 94.108 0 0 0 23.273-2.135c1.286-.283.741-2.067-.548-1.785a91.874 91.874 0 0 1-22.725 2.07c-1.325-.042-1.323 1.808 0 1.85"/>
            <path fill="#FFF" d="M516.284 57.768a511.027 511.027 0 0 0 22.912 22.94c.973.914 2.46-.53 1.487-1.445a509.324 509.324 0 0 1-22.913-22.94c-.913-.974-2.395.475-1.486 1.445"/>
            <path fill="#FFF" d="M540.013 80.996l26.974-1.985c1.345-.1 1.356-2.107 0-2.007l-26.974 1.985c-1.345.1-1.356 2.107 0 2.007M575.344 54.989l6.88-.93c1.36-.183.781-2.23-.569-2.048l-6.88.93c-1.358.183-.78 2.228.57 2.048M574.957 64h11.087c1.273 0 1.276-3 0-3h-11.087c-1.275 0-1.277 3 0 3M494.155 60.531a157.72 157.72 0 0 0-10.112 27.172c-.354 1.3 1.577 1.856 1.93.557a154.801 154.801 0 0 1 9.91-26.67c.578-1.201-1.148-2.266-1.728-1.059"/>
            <path fill="#FFF" d="M484.179 87.504a598.427 598.427 0 0 0 20.174 28.137c.796 1.046 2.203-.427 1.415-1.463a590.5 590.5 0 0 1-19.86-27.718c-.732-1.084-2.467-.052-1.729 1.044"/>
            <path fill="#FFF" d="M505.977 115.796c9.212.573 18.26-.063 27.294-1.883 1.277-.257.736-2.146-.542-1.889-8.862 1.785-17.724 2.373-26.752 1.812-1.305-.081-1.3 1.878 0 1.96"/>
            <path fill="#FFF" d="M537.114 79.983a184.705 184.705 0 0 1-4.085 31.746c-.278 1.276 1.54 1.82 1.818.543A187.843 187.843 0 0 0 539 79.982c.054-1.311-1.83-1.308-1.885 0M598.964 20.996l24.072-1.98c1.28-.106 1.29-2.118 0-2.012l-24.072 1.98c-1.28.105-1.29 2.117 0 2.012"/>
            <path fill="#FFF" d="M624.288 19.763c6.307 6.638 12.615 13.276 18.921 19.915.924.971 2.423-.473 1.503-1.441-6.306-6.639-12.614-13.277-18.921-19.915-.924-.97-2.423.472-1.503 1.44M597.976 19.702l-9.912 28.051c-.44 1.246 1.524 1.783 1.961.545l9.911-28.051c.44-1.246-1.523-1.783-1.96-.545"/>
            <path fill="#FFF" d="M589.352 49.68l23.818 19.073c1.03.822 2.516-.603 1.478-1.432L590.83 48.248c-1.03-.825-2.516.602-1.478 1.433"/>
            <path fill="#FFF" d="M614.274 67.984l19.992-3.168c1.285-.205.74-2.003-.539-1.8l-19.994 3.17c-1.284.203-.739 2.001.54 1.798"/>
            <path fill="#FFF" d="M612.063 66.517c-1.795 3.605-3.49 7.25-5.036 10.957a162.36 162.36 0 0 0-3.578 9.434c-.975 1.165-.767 1.969.624 2.414l-.737 1.236c.064-.013.128-.03.193-.044 1.32-.302.76-2.242-.563-1.938l-.193.043c-.553.128-.887.726-.737 1.237.032.113.066.224.098.338.098.33.384.618.739.702l.316.074c.45.106.958-.07 1.193-.462 1.636-2.746 2.255-6.392 3.423-9.378 1.81-4.621 3.862-9.144 6.083-13.598.578-1.163-1.242-2.184-1.825-1.015"/>
            <path fill="#FFF" d="M604.314 91.705a478.58 478.58 0 0 0 22.841 20.036c1.023.842 2.53-.565 1.5-1.412a477.721 477.721 0 0 1-22.841-20.038c-.97-.905-2.47.507-1.5 1.414"/>
            <path fill="#FFF" d="M627.225 112.959a54.092 54.092 0 0 1 11.82-1.956c1.27-.065 1.277-2.069 0-2.001-4.192.222-8.3.89-12.346 2.025-1.226.345-.705 2.278.526 1.932"/>
            <g transform="translate(632 63)">
                <mask id="j" fill="#fff">
                    <use xlink:href="#i"/>
                </mask>
                <path fill="#FFF" d="M1.478 1.97a62.76 62.76 0 0 1 13.048 10.012c.947.947 2.448-.491 1.502-1.437A64.94 64.94 0 0 0 2.551.217C1.378-.463.309 1.294 1.478 1.97" mask="url(#j)"/>
            </g>
            <path fill="#FFF" d="M634.907 63.333a345.563 345.563 0 0 0 8.041-23.102c.382-1.232-1.453-1.761-1.832-.534a344.663 344.663 0 0 1-8.042 23.1c-.463 1.197 1.374 1.718 1.833.536M623.492 32.468c-3.697-.99-7.84-.481-10.676 2.23-2.527 2.415-3.605 6.323-2.182 9.552 1.308 2.966 4.566 5.03 7.896 4.72 3.832-.36 6.435-3.529 8.308-6.501.712-1.13-1.107-2.161-1.817-1.037-1.19 1.888-2.611 3.9-4.713 4.913-2.973 1.434-6.421-.002-7.708-2.905-2.848-6.442 4.907-10.444 10.331-8.99 1.309.35 1.868-1.63.561-1.982M620.055 77.238L626.96 98.3c.405 1.232 2.39.704 1.984-.537l-6.906-21.06c-.404-1.233-2.392-.707-1.984.536"/>
            <path fill="#FFF" d="M618.25 78.942c2.393-.78 4.627-2.904 7.224-2.925 2.383-.019 3.097 2.039 1.742 3.743-1.071 1.345-2.963 1.84-4.587 2.32-1.254.372-.718 2.245.547 1.87 2.094-.62 4.407-1.334 5.76-3.089 1.152-1.494 1.539-3.673.296-5.23-3.143-3.944-8.236.369-11.528 1.44-1.239.406-.707 2.279.546 1.87"/>
            <path fill="#FFF" d="M627.228 81.001c6.776 1.518 6.261 11.051-.515 12.012-1.25.177-.717 2.153.525 1.976 8.764-1.244 9.086-14.044.515-15.962-1.237-.277-1.765 1.696-.525 1.974M535.426 63.987a161.43 161.43 0 0 1 1.563-18.989c.19-1.337-2.237-1.325-2.425 0A161.43 161.43 0 0 0 533 63.988c-.03 1.35 2.395 1.35 2.426 0"/>
            <path fill="#FFF" d="M535.167 45.497l7.008 11.04c.69 1.086 2.354.063 1.658-1.034-2.335-3.68-4.672-7.36-7.01-11.04-.689-1.086-2.352-.063-1.656 1.034"/>
            <path fill="#FFF" d="M543.764 56.672c3.32-3.64 6.64-7.276 9.962-10.913.89-.976-.595-2.411-1.49-1.43l-9.962 10.912c-.89.976.595 2.411 1.49 1.43"/>
            <path fill="#FFF" d="M552.647 46.97a83.2 83.2 0 0 0-.191 19.055c.137 1.294 2.482 1.307 2.345 0a83.199 83.199 0 0 1 .191-19.054c.161-1.3-2.184-1.289-2.345 0M506.507 27.677c-3.584-3.147-14.5-4.823-14.507 2.548-.003 2.923 2.792 5.516 5.199 6.7 1.893.933 5.085.538 6.689 1.745.65 1.844 1.298 3.69 1.947 5.535a7.762 7.762 0 0 1-3.5 1.675c-2.957.669-8.042-.337-6.732-4.767.363-1.234-1.564-1.763-1.929-.53-2.496 8.453 11.255 9.71 14.696 3.622 1.645-2.91-.146-5.75-2.907-7.05-3.322-1.564-7.08-.844-9.83-3.801-1.964-1.48-1.999-2.896-.105-4.248.532-1.629 1.621-2.387 3.268-2.277 2.39-.19 4.527.704 6.297 2.26.963.844 2.381-.563 1.414-1.412M500.173 80.53a387.723 387.723 0 0 1 15.934 26.956c.634 1.176 2.392.124 1.757-1.055a388.387 388.387 0 0 0-15.936-26.955c-.72-1.115-2.483-.068-1.755 1.055"/>
            <path fill="#FFF" d="M518.062 106.027c.666-10.89 1.552-21.681 6.81-31.502.616-1.149-1.162-2.172-1.778-1.02-5.421 10.125-6.405 21.293-7.092 32.522-.079 1.3 1.98 1.295 2.06 0"/>
        </g>
        <g>
            <path fill="#FFF" d="M129.256 30.512c7.56-2.136 16.378-5.1 24.284-5.164 5.03-.041 4.259 1.402 5.072 5.98.712 4.001 1.643 7.95 2.693 11.874l1.268-.976c-10.912-5.909-23.746-6.401-34.558-12.52-.46-.26-1.151-.042-1.269.517A128.372 128.372 0 0 0 124 56.073c-.003.394.272.716.634.834l31.023 10.058c.441.142.947-.167 1.063-.604a213.685 213.685 0 0 0 4.086-18.874c.185-1.09-1.478-1.556-1.665-.46-.74 4.368-1.583 8.71-2.604 13.021-.532 2.244-.451 3.908-3.006 4.41-1.33.262-6.441-2.088-7.755-2.513-4.31-1.397-8.619-2.794-12.926-4.192-2.705-.875-5.978-1.137-7.11-4.262-.609-1.677.166-4.731.29-6.447.201-2.78-.165-12.896 2.424-14.307 1.258-.686 7.013 2.276 8.775 2.841 8.265 2.655 16.746 3.957 24.472 8.142.656.355 1.467-.233 1.268-.977a143.404 143.404 0 0 1-3.728-18.874c-.054-.419-.354-.923-.864-.864a188.024 188.024 0 0 0-29.58 5.84c-1.067.302-.613 1.97.46 1.667"/>
            <path fill="#FFF" d="M132.583 33.61c-.747 2.64-1.305 6.89 1.815 8.105 3.676 1.428 5.883-2.817 6.576-5.887.245-1.088-1.341-1.553-1.587-.463-.437 1.935-2.115 6.373-4.775 4.52-1.683-1.171-.906-4.172-.443-5.814.304-1.073-1.285-1.533-1.586-.461M149.378 38.604c-.646 2.58-.837 6.716 2.572 7.334 3.23.584 4.558-3.09 5.032-5.606.203-1.07-1.404-1.528-1.607-.453-.299 1.578-.741 4.208-2.727 4.384-2.67.237-2.038-3.704-1.661-5.206.265-1.061-1.342-1.513-1.609-.453M159.54 50.518c-2.56-1.106-5.416-1.994-8.263-1.235-2.269.607-3.999 2.208-4.239 4.327-.6 5.302 5.966 7.554 10.781 5.808 1.06-.384.595-1.93-.48-1.539-3.475 1.26-8.656.286-8.531-3.805.141-4.719 6.79-3.487 9.82-2.178 1.04.45 1.955-.926.911-1.378M126.518 53.289c4.002-3.713 10.666-.59 9.63 4.67-.205 1.045 1.504 1.492 1.711.442 1.345-6.834-7.26-11.232-12.596-6.285-.812.754.443 1.926 1.255 1.173M239.792 41.48c-9.46 2.664-19.674 12.538-17.495 23.48 2.058 10.337 14.876 14.45 23.933 12.617 10.434-2.113 19.287-12.62 16.117-23.685-3.324-11.605-16.002-15.143-26.369-11.547-1.04.362-.593 2.044.459 1.677 8.705-3.02 18.878-1.042 23.338 7.897 5.462 10.947-4.263 22.43-14.86 24.071-9.198 1.426-21.982-3.719-20.882-14.977.865-8.837 8.093-15.567 16.217-17.855 1.065-.3.612-1.98-.458-1.677"/>
            <path fill="#FFF" d="M254.52 45.104c3.348-3.917 7.314-7.07 12.012-9.516l-1.356-.97a147.272 147.272 0 0 0-5.043 17.308c-.245 1.078 1.533 1.54 1.778.456a147.073 147.073 0 0 1 5.044-17.308c.263-.735-.684-1.32-1.354-.97-4.832 2.518-8.934 5.749-12.384 9.785-.732.856.565 2.08 1.304 1.215M235.634 42.832l-11.18-8.683c-.565-.438-1.273.171-1.306.764-.369 6.198-.044 12.321.935 18.448.18 1.12 1.854.644 1.676-.47a82.507 82.507 0 0 1-.873-17.978l-1.309.763 11.18 8.681c.888.69 1.756-.844.877-1.525M230.126 53.278c1.5 2.611 3.425 4.808 5.73 6.568.833.637 1.62-.863.794-1.495-2.079-1.588-3.814-3.594-5.167-5.947-.54-.939-1.9-.07-1.357.874"/>
            <path fill="#FFF" d="M235.307 50.6c-.607 3.514-2.301 6.565-5.036 8.997-.822.73.412 1.902 1.23 1.173 2.93-2.605 4.833-5.957 5.486-9.73.18-1.043-1.499-1.493-1.68-.44M246.067 50.944c1.277 2.867 3.7 5.007 6.889 6.01 1.045.328 1.493-1.197.455-1.524-2.566-.806-4.659-2.586-5.692-4.906-.413-.927-2.07-.522-1.652.42"/>
            <path fill="#FFF" d="M250.174 50.554l-3.112 7.457c-.413.987 1.355 1.414 1.764.435l3.112-7.457c.412-.987-1.356-1.414-1.764-.435M240.77 57.995l4.46-.462c1.02-.105 1.032-1.634 0-1.528l-4.46.462c-1.021.105-1.032 1.634 0 1.528"/>
            <path fill="#FFF" d="M242.145 57.812a31.335 31.335 0 0 0 .357 8.576c.19 1.072 1.672.618 1.481-.453-.48-2.7-.566-5.39-.302-8.123.105-1.087-1.432-1.079-1.536 0"/>
            <path fill="#FFF" d="M237.452 65.929c5.128 2.31 11.014.795 14.38-3.687.67-.892-.84-1.755-1.503-.873-2.758 3.673-7.803 4.957-12 3.067-1.011-.455-1.896 1.033-.877 1.493"/>
            <g transform="translate(0 11)">
                <mask id="l" fill="#fff">
                    <use xlink:href="#k"/>
                </mask>
                <path fill="#FFF" d="M62.908 14.76C60.47 6.823 53.578 1.35 45.068.935c-4.595-.225-9.157 1.003-13.134 3.255-4.015 2.277-6.013 3.472-11.19 3.549-3.137.045-5.999-.36-9.162.16-4.915.81-13.306 3.53-11.27 10.126 2.471 8.005 13.407 8.133 19.19 4.18.913-.625.044-2.11-.879-1.478-3.559 2.432-9.415 3.818-13.223.808-2.11-6.94-.712-10.769 4.192-11.49l4.24-.729c4.291-.415 9.207 1.574 13.321.017 5.283-1.999 8.577-5.94 14.743-6.529C50.75 1.96 58.624 6.732 61.23 15.217c.323 1.053 2.004.603 1.678-.456" mask="url(#l)"/>
            </g>
            <path fill="#FFF" d="M26.574 21.742C37.45 25.936 48.58 28 60.182 28c1.09 0 1.091-1.746 0-1.746-11.444-.001-22.45-2.067-33.158-6.195-1.022-.394-1.464 1.294-.45 1.683"/>
            <path fill="#FFF" d="M31.227 23.346l-2.073 2.552c-.658.811.963 1.563 1.619.756.69-.85 1.382-1.7 2.072-2.552.66-.811-.963-1.563-1.618-.756M33.256 24.774l-.254 3.452c-.075 1.034 1.667 1.03 1.742 0l.254-3.452c.076-1.034-1.667-1.03-1.742 0M52.632 27.647l-.618 4.23c-.164 1.127 1.188 1.61 1.354.476l.618-4.23c.164-1.127-1.19-1.61-1.354-.476M55.132 28.326c.706 1.236 1.146 2.556 1.353 4.02.163 1.146 1.665.66 1.503-.481a12.513 12.513 0 0 0-1.512-4.452c-.55-.967-1.9-.06-1.344.913M54.195 23.303l.396.44c.675.75 1.882-.303 1.214-1.045l-.396-.44c-.675-.75-1.882.302-1.214 1.045M55.357 18.014c1.136-1.216 2.272-2.432 3.408-3.651l-1.37-.565c-.038 2.142-.077 4.286-.114 6.43-.02 1.03 1.585 1.03 1.605 0 .037-2.144.075-4.288.114-6.43.011-.68-.895-1.076-1.37-.567l-3.408 3.65c-.704.754.429 1.89 1.135 1.133"/>
            <g transform="translate(111 9)">
                <mask id="n" fill="#fff">
                    <use xlink:href="#m"/>
                </mask>
                <path fill="#FFF" d="M6.794 3.636c-2.126 18.2-4.252 36.398-6.38 54.596-.044.387.305.737.641.845 10.692 3.397 21.558 6.154 32.61 8.089a241.865 241.865 0 0 0 15.593 2.21c2.32.252 6.071 1.347 8.217-.144 1.948-1.356 1.873-6.093 2.197-7.878a637.903 637.903 0 0 0 2.94-17.624c1.735-11.405 3.137-22.852 4.274-34.331.034-.357-.295-.771-.641-.843a466.472 466.472 0 0 0-54.122-8c-1.118-.1-1.113 1.651 0 1.75 9.88.873 19.727 2.015 29.53 3.527a447.47 447.47 0 0 1 12.095 2.04c4.46.815 10.296.438 10.981 5.63.497 3.762-.923 8.497-1.392 12.291a624.391 624.391 0 0 1-4.39 29.68c-.589 3.414-.467 11.46-4.542 12.658-3.61 1.06-10.313-1.11-13.892-1.63a230.846 230.846 0 0 1-12.736-2.227 240.787 240.787 0 0 1-12.6-2.91c-2.97-.77-8.844-1.194-11.192-3.193-3.01-2.56-.617-10.287-.23-13.588l1.594-13.649 3.19-27.299c.13-1.117-1.616-1.107-1.745 0" mask="url(#n)"/>
            </g>
            <path fill="#FFF" d="M83.382 33.217l1.6-8.209c.144-.741-.596-1.211-1.351-.921-3.727 1.43-7.453 2.858-11.18 4.289-.631.242-.57 1.148 0 1.408l9.06 4.118c1.051.48 1.983-.93.928-1.408l-9.06-4.118v1.408l11.18-4.288-1.352-.921-1.6 8.208c-.199 1.028 1.573 1.469 1.775.434"/>
            <path fill="#FFF" d="M83.823 30.778c7.608.177 14.956 1.568 22.139 4.169 1.038.375 1.484-1.342.452-1.715A70.499 70.499 0 0 0 83.823 29c-1.097-.025-1.097 1.753 0 1.778M204.279 48.01c-.423 2.985-.848 5.97-1.27 8.952-.087.617.528 1.342 1.166.904 2.426-1.66 5.11-2.47 8.043-2.408.697.015 1.036-.88.562-1.365a61.306 61.306 0 0 0-8.12-6.947c-.835-.597-1.629.79-.802 1.382a58.895 58.895 0 0 1 7.799 6.697c.187-.456.375-.91.561-1.367-3.187-.067-6.206.822-8.844 2.627.389.3.776.603 1.166.904l1.27-8.953c.143-1.007-1.388-1.443-1.531-.425"/>
            <path fill="#FFF" d="M204.374 51.315a98.957 98.957 0 0 0-23.531-2.29c-1.122.025-1.126 1.746 0 1.722a96.957 96.957 0 0 1 23.066 2.23c1.096.24 1.562-1.42.465-1.662"/>
        </g>
        <g>
            <path fill="#FFF" d="M831.219 81.056c-2.972-3.046-6.855-5.394-10.488-7.536-2.245-1.323-7.255-4.894-10.216-4.028-8.999 2.635 3.418 13.274 5.57 15.396l1.106-1.44c-3.016-1.4-11.677-3.834-13.614.117-3.112 6.347 7.23 7.253 10.306 7.348l-.461-1.71c-4.512 2.51-9.395 3.246-6.813 9.955 1.985 5.16 7.738 5.9 12.586 5.839 7.976-.102 16.778-.824 24.31-3.49 3.596-1.274 11.144-3.507 12.99-7.112 1.165-2.272.04-4.448-.646-6.725-3.556-11.788-8.364-23.328-13.675-34.414-3.401-7.099-7.16-16.163-15.365-18.71-6.964-2.16-12.976 2.34-14.873 9.02-2.929 10.306 4.472 21.905 8.38 30.94.467 1.081 2.04.15 1.575-.926-3.398-7.857-9.087-16.908-8.758-25.74.262-7.01 5.447-13.726 13.19-11.525 3.937 1.12 6.738 4.343 8.887 7.6 7.477 11.324 12.371 25.255 16.795 38.004.774 2.226 3.12 6.437 2.873 8.749-.556 5.201-7.935 7.662-11.859 9.07-5.444 1.951-11.044 2.331-16.743 2.882-4.011.389-8.817 1.298-12.76.056-5.11-1.612-8.13-6.7-2.5-10.57.877-.604 2.334-.767 3.327-1.32.816-.453.417-1.683-.46-1.708-2.079-.065-11.992.01-6.75-5.547 1.153-1.223 7.557.768 9.137 1.5.893.413 1.894-.664 1.106-1.44-1.784-1.758-4.125-3.143-5.634-5.158-1.381-1.844-4.108-6.103.5-6.955 1.129-.208 3.2 1.263 4.267 1.798 4.645 2.336 9.764 5.331 13.42 9.078.823.844 2.113-.454 1.29-1.298"/>
            <path fill="#FFF" d="M828.88 47.192c-2.45 1.354-3.43 4.324-2.579 7.036.776 2.474 3.265 5.301 6.003 4.687 2.479-.555 4.062-3.466 3.623-5.986-.535-3.064-3.247-4.96-5.895-5.877-1.085-.375-1.55 1.405-.47 1.78 1.637.567 3.298 1.519 4.167 3.143.9 1.684.509 4.136-1.341 4.957-1.95.865-3.804-1.467-4.378-3.194-.648-1.95-.001-3.977 1.764-4.952 1.008-.558.114-2.15-.895-1.594M837.034 91.146c1.517 5.88 4.367 11.124 8.433 15.567.798.87 2.077-.438 1.283-1.305-3.866-4.224-6.527-9.168-7.968-14.752-.297-1.15-2.045-.663-1.748.49M845.06 90.073c1.676 4.478 4.617 8.167 8.632 10.78.962.626 1.855-.91.898-1.533-3.603-2.345-6.308-5.694-7.814-9.718-.397-1.061-2.117-.603-1.716.471M842.773 52.364a21.465 21.465 0 0 1 4.977-8.804c.79-.848-.477-2.131-1.27-1.28a23.485 23.485 0 0 0-5.44 9.603c-.322 1.12 1.411 1.598 1.733.48M843.879 56.998c3.493-.198 6.76-1.265 9.7-3.223.982-.654.068-2.28-.921-1.62-2.67 1.78-5.596 2.787-8.78 2.967-1.167.066-1.175 1.942 0 1.876M861.205 24.65c2.633 3.534 5.267 7.067 7.898 10.6 1.304 1.756 2.74 3.474 3.902 5.339a16.259 16.259 0 0 1 1.95 3.882c-1.968 4.285-3.222 4.173-3.76-.337.983-.625.084-2.245-.904-1.618-4.831 3.07 2.617 10.227 5.773 6.37 2.218-2.709-.007-6.894-1.514-9.242-3.643-5.679-8.064-10.927-12.08-16.318-.706-.95-1.965.384-1.265 1.324"/>
            <path fill="#FFF" d="M862.574 23.688c2.288-2.166 4.714-4.155 7.384-5.833 3.7-2.325 4.788-.113 7.423 2.67 1.814 1.916 3.706 3.785 5.424 5.788.928 1.08 1.853 2.216 2.573 3.448a7.68 7.68 0 0 1 1.38 3.723c.749 1.884-.328 2.54-3.23 1.965 1.076-.436.607-2.207-.486-1.763-5.294 2.145.114 9.49 4.402 4.75 6.57-7.269-9.547-20.025-13.478-24.175-.288-.304-.753-.33-1.107-.143a51.18 51.18 0 0 0-11.578 8.276c-.856.811.438 2.103 1.293 1.294"/>
            <path fill="#FFF" d="M867.335 31.851a132.022 132.022 0 0 1 14.2-8.105c1.05-.517.136-2.162-.911-1.648a132.035 132.035 0 0 0-14.2 8.107c-.983.646-.08 2.296.91 1.646M889.59 21.709c1.797-1.945 4.064-3.298 6.737-3.976 1.18-.3.679-2-.507-1.697-2.97.753-5.58 2.264-7.579 4.428-.792.86.551 2.108 1.35 1.245M893.624 25.726c2.077-2.046 4.674-3.413 7.686-4.04 1.208-.25.698-1.911-.514-1.66-3.314.689-6.251 2.23-8.536 4.482-.832.82.527 2.042 1.364 1.218"/>
            <g transform="translate(895)">
                <mask id="p" fill="#fff">
                    <use xlink:href="#o"/>
                </mask>
                <path fill="#FFF" d="M2.246 9.292c.78-2.38 3.678-9.312 7.46-5.811 1.59 1.471 1.086 4.243.946 6.121-.214 2.913-.022 6.16 2.846 7.697 1.063.57 2.011-1.049.946-1.619-4.915-2.634.923-10.935-4.144-14.104C5.239-1.591 1.685 4.986.439 8.794c-.377 1.149 1.432 1.642 1.807.498" mask="url(#p)"/>
            </g>
            <g transform="translate(913 20)">
                <mask id="r" fill="#fff">
                    <use xlink:href="#q"/>
                </mask>
                <path fill="#FFF" d="M1.143 1.804l.489.066C2.81 2.032 3.32.426 2.13.264L1.64.197C.46.036-.047 1.64 1.144 1.804" mask="url(#r)"/>
            </g>
        </g>
        <g>
            <path fill="#FFF" d="M1106.94 119.915c.154 1.76 1.757 3.05 3.64 3.084 1.988.037 3.428-1.522 3.42-3.325a3.666 3.666 0 0 0-3.232-3.639c-2.068-.26-3.964.948-4.7 2.717-.444 1.07 1.4 1.534 1.841.474.766-1.845 3.95-1.986 4.176.24.08.798-.333 1.657-1.273 1.747-.838.081-1.891-.454-1.964-1.298-.1-1.137-2.007-1.147-1.908 0M1108.262 84.492c-7.659 17.383-13.286 35.513-16.416 54.22-1.006 6.005-5.999 32.605 6.352 31.237 1.209-.132 1.22-2.012 0-1.879-12.155 1.346-2.794-38.301-1.5-43.717 3.188-13.352 7.671-26.332 13.214-38.913.483-1.099-1.163-2.055-1.65-.948"/>
            <g transform="translate(1098 77)">
                <mask id="t" fill="#fff">
                    <use xlink:href="#s"/>
                </mask>
                <path fill="#FFF" d="M1.534 92.686c9.16-6.099 13.793-16.005 17.822-25.83a148.093 148.093 0 0 0 9.853-37.321c.91-7.07 4.179-21.25-2.61-26.817-6.914-5.67-13.941 2.142-16.884 7.807-.558 1.071 1.085 2.02 1.644.945.907-1.746 1.975-4.254 3.513-5.494 7.852-2.777 12.2-1.821 13.045 2.866.253.852.38 1.724.38 2.618.358 3.369.062 6.798-.19 10.168a145.399 145.399 0 0 1-4.3 25.863C19.935 62.379 14.178 82.008.572 91.068c-1.008.672-.056 2.296.962 1.618" mask="url(#t)"/>
            </g>
            <path fill="#FFF" d="M1087.55 81.002c-6.58-.115-11.67 4.48-13.122 10.831-2.04 8.925 3.62 18.13 8.352 25.211 10.06 15.054 25.316 29.093 42.468 35.61 15.157 5.757 21.7-8.043 15.322-20.645-4.611-9.11-13.366-16.016-20.884-22.619-9.08-7.974-18.55-15.468-28.314-22.584-.986-.718-1.93.921-.956 1.634 12.61 9.186 24.768 19.03 36.143 29.713 4.656 4.375 9.483 9.022 12.377 14.808 1.96 3.923 3.47 9.167 1.767 13.516-3.798 9.699-12.983 5.391-18.772 2.59-11.027-5.34-20.971-13.104-29.139-22.2-4.574-5.094-8.705-10.697-12.027-16.692-4.717-8.511-9.075-27.56 6.785-27.282 1.219.02 1.219-1.87 0-1.89"/>
            <path fill="#FFF" d="M1069.336 149.452c-17.072-13.597 24.388-36.846 33.659-43.092 7.161-4.825 14.435-9.59 22.21-13.38 5.765-2.81 13.529-6.87 20.16-4.309 12.261 4.737 2.114 18.491-3.397 24.172-6.094 6.284-12.797 11.91-20.092 16.754-14.378 9.55-30.537 15.806-47.519 18.781-1.188.209-.683 2.017.5 1.81 22.386-3.921 43.398-13.657 60.597-28.565 6.02-5.217 15.757-12.755 17.305-21.14 1.082-5.85-1.491-11.968-7.353-13.823-6.008-1.898-12.224.662-17.648 3.07-11.963 5.311-22.859 12.907-33.54 20.39-8.804 6.167-44.147 26.375-26.21 40.66.936.744 2.274-.576 1.328-1.328"/>
            <g transform="translate(1059 109)">
                <mask id="v" fill="#fff">
                    <use xlink:href="#u"/>
                </mask>
                <path fill="#FFF" d="M3.287.608c-12.686 12.696 14.916 20.87 22.405 22.79 21.74 5.575 44.686 5.654 66.935 3.874 7.37-.588 23.018-4.33 14.854-14.655-3.758-4.752-9.868-5.699-15.431-6.893C80.768 3.3 69.515 1.091 57.98.332c-1.21-.078-1.204 1.797 0 1.875 8.486.558 16.843 1.876 25.172 3.555 6.093 1.225 13.697 1.741 19.138 4.933 3.968 2.327 7.463 6.827 3.772 10.995-4.384 4.949-15.518 3.91-21.49 4.232-13.415.72-26.93.702-40.28-.956-6.88-.855-53.753-8.943-39.673-23.032.856-.858-.476-2.183-1.332-1.326" mask="url(#v)"/>
            </g>
            <path fill="#FFF" d="M1066.902 109.995a187.858 187.858 0 0 1 38.195-.018c1.208.122 1.2-1.892 0-2.013a187.858 187.858 0 0 0-38.195.018c-1.197.122-1.209 2.135 0 2.013"/>
        </g>
    </g>
</svg>
