<svg xmlns="http://www.w3.org/2000/svg" xmlns:xlink="http://www.w3.org/1999/xlink" width="151" height="45"
     viewBox="0 0 84 25">
    <defs>
        <path id="a" d="M.507.388H2.75v4.064H.507z"/>
        <path id="c" d="M0 24h83.749V.576H0z"/>
    </defs>
    <g fill="none" fill-rule="evenodd">
        <path fill="#FEFEFE" d="M29.803 3.442h-1.621v.968h1.573v.586h-1.573v1.341h1.62v.584H27.56V2.858h2.243z"/>
        <g transform="translate(0 .424)">
            <path fill="#FEFEFE" d="M31.472 5.913h.378c.688 0 .817-.348.817-.604 0-.286-.147-.615-.805-.615h-.39v1.22zm0-1.73h.19c.145 0 .664-.006.664-.597 0-.507-.396-.568-.64-.568h-.214v1.165zm-.005-1.749c.523 0 .755.061.975.213.188.128.469.39.469.92a.907.907 0 0 1-.341.743.966.966 0 0 1 .706.945c0 .195-.024.645-.407.956-.336.274-.671.286-1.086.286h-.932V2.434h.616zM34.676 4.273h.282c.534 0 .792-.262.792-.64 0-.225-.093-.628-.8-.628h-.274v1.268zm.274-1.839c.251 0 .597.025.89.218.342.226.506.616.506.988 0 .237-.06.604-.397.89-.322.273-.693.316-.99.316h-.283v1.652h-.62V2.434h.894zM40.515 4.469c0-.902-.622-1.535-1.493-1.535-.871 0-1.493.633-1.493 1.535 0 .9.622 1.536 1.493 1.536.87 0 1.493-.635 1.493-1.536m.622 0c0 1.194-.896 2.107-2.115 2.107-1.218 0-2.115-.913-2.115-2.107 0-1.194.897-2.107 2.115-2.107 1.219 0 2.115.913 2.115 2.107M44.9 2.435v4.063h-.62v-3.48h-1.743v3.48h-.62V2.435zM48.362 3.019h-1.62v.968h1.571v.586h-1.572v1.34h1.621v.585H46.12V2.435h2.243zM52.151 3.762L49.41 6.68V2.434h.622v2.748l2.742-2.918v4.233h-.622zM57.002 3.384c-.45-.407-.871-.45-1.103-.45-.884 0-1.48.65-1.48 1.547 0 .859.622 1.523 1.487 1.523.487 0 .865-.25 1.096-.47v.739a2.21 2.21 0 0 1-1.114.304 2.033 2.033 0 0 1-1.438-.56c-.476-.445-.652-.962-.652-1.536 0-.75.309-1.267.652-1.59.419-.396.907-.53 1.469-.53.37 0 .73.067 1.083.292v.73zM58.635 4.055l1.572-1.621h.816l-1.834 1.84 1.846 2.223h-.828l-1.449-1.802-.123.123v1.679h-.622V2.434h.622zM64.57 3.762L61.828 6.68V2.434h.62v2.748l2.743-2.918v4.233h-.621zM69.03 3.762L66.287 6.68V2.434h.622v2.748l2.741-2.918v4.233h-.62zM27.865 10.911l1.067 2.107.931-2.107h.646l-1.833 4.063h-.646l.548-1.21-1.468-2.853zM31.655 12.495h1.742V10.91h.622v4.065h-.622V13.08h-1.742v1.895h-.622V10.91h.622zM37.98 12.24l-2.742 2.918V10.91h.622v2.748l2.74-2.918v4.235h-.62zM40.32 14.39h.377c.688 0 .816-.347.816-.603 0-.286-.146-.615-.803-.615h-.39v1.219zm0-1.73h.188c.145 0 .665-.005.665-.598 0-.505-.397-.566-.641-.566h-.212v1.165zm-.005-1.748c.522 0 .754.06.973.213.189.128.47.39.47.919a.908.908 0 0 1-.342.744c.463.14.707.53.707.945 0 .194-.024.645-.407.956-.336.274-.671.286-1.086.286h-.932v-4.063h.617zM45.266 11.496h-1.62v.968h1.571v.586h-1.572v1.341h1.621v.584h-2.242v-4.064h2.242zM46.937 12.751h.28c.535 0 .791-.262.791-.64 0-.225-.09-.628-.799-.628h-.273v1.268zm.273-1.84c.25 0 .597.026.89.219.34.225.505.616.505.988 0 .237-.06.602-.396.889-.323.274-.695.317-.992.317h-.28v1.652h-.622v-4.065h.895zM52.371 11.861c-.452-.408-.873-.45-1.102-.45-.884 0-1.483.651-1.483 1.548 0 .858.624 1.522 1.487 1.522.487 0 .866-.249 1.098-.469v.738a2.23 2.23 0 0 1-1.116.303c-.736 0-1.2-.335-1.436-.559-.476-.445-.653-.963-.653-1.535 0-.75.31-1.269.654-1.59.419-.398.905-.53 1.466-.53.372 0 .731.065 1.085.292v.73zM55.88 12.24l-2.741 2.918V10.91h.62v2.748l2.743-2.918v4.235h-.622zM58.85 11.496v3.48h-.623v-3.48h-.933v-.585h2.487v.585zM62.815 11.496h-1.621v.968h1.572v.586h-1.572v1.341h1.62v.584h-2.242v-4.064h2.243zM64.99 11.496v3.48h-.622v-3.48h-.933v-.585h2.488v.585zM28.183 22.867h.377c.689 0 .817-.348.817-.604 0-.287-.146-.614-.804-.614h-.39v1.218zm0-1.73h.188c.146 0 .665-.006.665-.597 0-.507-.396-.567-.64-.567h-.213v1.164zm-.006-1.749c.522 0 .756.06.974.213.188.128.47.39.47.92a.906.906 0 0 1-.341.743.97.97 0 0 1 .707.945c0 .195-.026.645-.41.957-.333.274-.67.285-1.083.285h-.933v-4.063h.616zM34.829 20.339c-.45-.408-.871-.45-1.103-.45-.882 0-1.48.65-1.48 1.546 0 .86.622 1.524 1.487 1.524.487 0 .865-.25 1.096-.47v.739a2.218 2.218 0 0 1-1.114.303 2.038 2.038 0 0 1-1.438-.56c-.476-.445-.653-.962-.653-1.536 0-.748.311-1.267.653-1.588.42-.398.907-.531 1.467-.531.372 0 .732.066 1.085.292v.73zM37.735 21.886l-.604-1.377-.626 1.377h1.23zm.25.586h-1.737l-.444.98h-.67l2.022-4.3 1.925 4.3h-.669l-.427-.98zM40.215 20.973h1.742v-1.585h.622v4.064h-.622v-1.894h-1.742v1.894h-.622v-4.064h.622zM44.42 21.009l1.572-1.621h.816l-1.834 1.84 1.846 2.223h-.828l-1.45-1.801-.122.12v1.68h-.622v-4.062h.622zM48.74 19.974v3.478h-.623v-3.478h-.932v-.586h2.487v.586zM54.991 19.388v4.063h-.622v-3.477h-1.742v3.477h-.62v-4.063zM58.453 19.974h-1.621v.969h1.572v.584h-1.572v1.34h1.62v.585H56.21v-4.064h2.243zM60.627 19.974v3.478h-.622v-3.478h-.932v-.586h2.487v.586zM64.594 19.974h-1.62v.969h1.571v.584h-1.572v1.34h1.621v.585h-2.243v-4.064h2.243zM66.263 21.229h.28c.536 0 .792-.262.792-.642 0-.223-.091-.628-.798-.628h-.274v1.27zm.274-1.841c.25 0 .597.025.89.22.34.226.506.616.506.986 0 .238-.062.604-.395.89-.324.274-.695.316-.995.316h-.28v1.652h-.622v-4.065h.896zM69.431 22.867h.378c.164 0 .817 0 .817-.616 0-.29-.147-.639-.805-.639h-.39v1.255zm-.622-3.479h2.036v.585h-1.414v1.054h.402c.293 0 .707.05 1.018.323.232.202.384.524.384.895 0 .372-.165.762-.507.988-.29.195-.638.218-.889.218h-1.03v-4.063zM72.32 19.388l1.066 2.109.931-2.11h.646l-1.833 4.064h-.646l.548-1.21-1.468-2.853zM76.11 21.229h.28c.535 0 .791-.262.791-.642 0-.223-.092-.628-.798-.628h-.274v1.27zm.273-1.841c.25 0 .597.025.89.22.34.226.504.616.504.986 0 .238-.06.604-.395.89-.322.274-.695.316-.993.316h-.28v1.652h-.622v-4.065h.896zM78.656 19.388h2.036v.586h-1.414v3.477h-.622z"/>
            <g transform="translate(81 19)">
                <mask id="b" fill="#fff">
                    <use xlink:href="#a"/>
                </mask>
                <path fill="#FEFEFE" d="M2.75.974H1.128v.969H2.7v.584H1.128v1.34H2.75v.585H.507V.388H2.75z" mask="url(#b)"/>
            </g>
            <mask id="d" fill="#fff">
                <use xlink:href="#c"/>
            </mask>
            <path fill="#FEFEFE" d="M0 23.997h.301V1.759H0zM6.95 1.76v4.65c-.1.03-.2.05-.3.09V1.76h.3zM6.95 9.99v6.05c-.11-.12-.21-.25-.3-.39v-5.38c.09-.11.19-.2.3-.28M6.65 19.9c.1.06.2.11.3.15V24h-.3v-4.1zM14.57 1.76V16.3c-.1.1-.2.18-.31.26V1.76h.31zM14.37 20.2c.07-.03.13-.05.2-.09V24h-.31v-3.76c.04-.01.07-.03.11-.04M20.914 23.997h.301V1.759h-.301z" mask="url(#d)"/>
            <path fill="#FEFEFE" d="M16.647 7.85c-.004.114.17.925.212 1.812.068 1.006.058 2.248-.118 3.26-.212 1.279-.71 2.59-1.595 3.53-1.082 1.133-2.767 1.649-4.291 1.649-1.488 0-3.048-.48-4.13-1.561-.975-.976-1.347-2.288-1.33-3.651 0-.763.142-1.508.39-2.145C6.3 9.43 7.47 8.953 8.818 9.004c.639.02 1.843.144 2.32.64.622.656.498 2.004.25 2.728-.036.109-.15.458-.562.49-.233.018-.761-.022-1.018-.101-.143-.044-.198-.24-.198-.382-.02-.352.183-.696.164-.998a.3.3 0 0 0-.247-.301c-.337-.125-1.206-.353-1.632.212-.161.23-.353.994-.282 1.524.088.676.477 1.172.867 1.42.426.284 1.119.46 1.826.497.797.035 1.649-.108 2.146-.497.94-.71 1.116-1.577 1.24-2.748.213-1.878-.621-3.616-2.534-4.31-2.872-1.044-6.312-.407-7.5 2.733-1.045 2.71-.673 6.08 1.383 8.209 2.27 2.356 6.205 2.764 9.148 1.612 2.145-.833 3.51-2.375 4.272-4.522.444-1.204.62-2.516.638-3.794a17.816 17.816 0 0 0-.051-1.754 16.792 16.792 0 0 0-.202-1.461c-.052-.241-.242-.273-.34-.307l-1.356-.272c-.18-.035-.447-.02-.502.229M50.977 1.705v.837l1.062-1.129V.576zM67.856 1.705v.837l1.061-1.129V.576zM50.005 21.593v.837l1.061-1.128v-.84z" mask="url(#d)"/>
        </g>
    </g>
</svg>
