<svg xmlns="http://www.w3.org/2000/svg" viewBox="0 0 83.8 23.4" width="151" height="45">
<polygon id="Shape" fill="#FEFEFE" points="29.8,2.4 28.2,2.4 28.2,3.4 29.8,3.4 29.8,4 28.2,4 28.2,5.3 29.8,5.3 29.8,5.9 
	27.6,5.9 27.6,1.9 29.8,1.9 "/>
<path id="Shape_1_" fill="#FEFEFE" d="M31.5,5.3h0.4c0.7,0,0.8-0.3,0.8-0.6c0-0.3-0.1-0.6-0.8-0.6h-0.4V5.3L31.5,5.3z M31.5,3.6h0.2
	c0.1,0,0.7,0,0.7-0.6c0-0.5-0.4-0.6-0.6-0.6h-0.2V3.6z M31.5,1.9c0.5,0,0.8,0.1,1,0.2c0.2,0.1,0.5,0.4,0.5,0.9
	c0,0.3-0.1,0.6-0.3,0.7c0.4,0.1,0.7,0.5,0.7,0.9c0,0.2,0,0.6-0.4,1c-0.3,0.3-0.7,0.3-1.1,0.3h-0.9V1.9H31.5z M34.7,3.7H35
	c0.5,0,0.8-0.3,0.8-0.6c0-0.2-0.1-0.6-0.8-0.6h-0.3V3.7z M35,1.9c0.3,0,0.6,0,0.9,0.2c0.3,0.2,0.5,0.6,0.5,1c0,0.2-0.1,0.6-0.4,0.9
	c-0.3,0.3-0.7,0.3-1,0.3h-0.3v1.7h-0.6V1.9H35z M40.5,3.9c0-0.9-0.6-1.5-1.5-1.5c-0.9,0-1.5,0.6-1.5,1.5c0,0.9,0.6,1.5,1.5,1.5
	C39.9,5.4,40.5,4.8,40.5,3.9z M41.1,3.9C41.1,5.1,40.2,6,39,6c-1.2,0-2.1-0.9-2.1-2.1s0.9-2.1,2.1-2.1C40.2,1.8,41.1,2.7,41.1,3.9z
	 M44.9,1.9v4.1h-0.6V2.4h-1.7v3.5h-0.6V1.9H44.9z M48.4,2.4h-1.6v1h1.6V4h-1.6v1.3h1.6v0.6h-2.2V1.9h2.2L48.4,2.4z M52.2,3.2
	l-2.7,2.9V1.9H50v2.7l2.7-2.9v4.2h-0.6L52.2,3.2z M57,2.8c-0.5-0.4-0.9-0.5-1.1-0.5c-0.9,0-1.5,0.6-1.5,1.5c0,0.9,0.6,1.5,1.5,1.5
	c0.5,0,0.9-0.2,1.1-0.5v0.7C56.7,5.9,56.3,6,55.9,6c-0.5,0-1.1-0.2-1.4-0.6c-0.5-0.4-0.7-1-0.7-1.5c0-0.8,0.3-1.3,0.7-1.6
	c0.4-0.4,0.9-0.5,1.5-0.5c0.4,0,0.7,0.1,1.1,0.3V2.8L57,2.8z M58.6,3.5l1.6-1.6H61l-1.8,1.8L61,5.9h-0.8l-1.4-1.8l-0.1,0.1v1.7H58
	V1.9h0.6V3.5z M64.6,3.2l-2.7,2.9V1.9h0.6v2.7l2.7-2.9v4.2h-0.6V3.2z M69,3.2l-2.7,2.9V1.9h0.6v2.7l2.7-2.9v4.2H69V3.2z M27.9,10.3
	l1.1,2.1l0.9-2.1h0.6l-1.8,4.1H28l0.5-1.2l-1.5-2.9H27.9z M31.7,11.9h1.7v-1.6H34v4.1h-0.6v-1.9h-1.7v1.9H31v-4.1h0.6V11.9z
	 M38,11.7l-2.7,2.9v-4.2h0.6v2.7l2.7-2.9v4.2H38V11.7z M40.3,13.8h0.4c0.7,0,0.8-0.3,0.8-0.6c0-0.3-0.1-0.6-0.8-0.6h-0.4V13.8
	L40.3,13.8z M40.3,12.1h0.2c0.1,0,0.7,0,0.7-0.6c0-0.5-0.4-0.6-0.6-0.6h-0.2V12.1L40.3,12.1z M40.3,10.3c0.5,0,0.8,0.1,1,0.2
	c0.2,0.1,0.5,0.4,0.5,0.9c0,0.3-0.1,0.6-0.3,0.7c0.5,0.1,0.7,0.5,0.7,0.9c0,0.2,0,0.6-0.4,1c-0.3,0.3-0.7,0.3-1.1,0.3h-0.9v-4.1
	H40.3z M45.3,10.9h-1.6v1h1.6v0.6h-1.6v1.3h1.6v0.6H43v-4.1h2.2V10.9z M46.9,12.2h0.3c0.5,0,0.8-0.3,0.8-0.6c0-0.2-0.1-0.6-0.8-0.6
	h-0.3L46.9,12.2L46.9,12.2z M47.2,10.3c0.2,0,0.6,0,0.9,0.2c0.3,0.2,0.5,0.6,0.5,1c0,0.2-0.1,0.6-0.4,0.9c-0.3,0.3-0.7,0.3-1,0.3
	h-0.3v1.7h-0.6v-4.1H47.2z M52.4,11.3c-0.5-0.4-0.9-0.4-1.1-0.4c-0.9,0-1.5,0.7-1.5,1.5c0,0.9,0.6,1.5,1.5,1.5
	c0.5,0,0.9-0.2,1.1-0.5v0.7c-0.3,0.2-0.7,0.3-1.1,0.3c-0.7,0-1.2-0.3-1.4-0.6c-0.5-0.4-0.7-1-0.7-1.5c0-0.8,0.3-1.3,0.7-1.6
	c0.4-0.4,0.9-0.5,1.5-0.5c0.4,0,0.7,0.1,1.1,0.3V11.3z M55.9,11.7l-2.7,2.9v-4.2h0.6v2.7l2.7-2.9v4.2h-0.6V11.7z M58.8,10.9v3.5
	h-0.6v-3.5h-0.9v-0.6h2.5v0.6H58.8z M62.8,10.9h-1.6v1h1.6v0.6h-1.6v1.3h1.6v0.6h-2.2v-4.1h2.2V10.9z M65,10.9v3.5h-0.6v-3.5h-0.9
	v-0.6h2.5v0.6H65z M28.2,22.3h0.4c0.7,0,0.8-0.3,0.8-0.6c0-0.3-0.1-0.6-0.8-0.6h-0.4V22.3z M28.2,20.6h0.2c0.1,0,0.7,0,0.7-0.6
	c0-0.5-0.4-0.6-0.6-0.6h-0.2V20.6z M28.2,18.8c0.5,0,0.8,0.1,1,0.2c0.2,0.1,0.5,0.4,0.5,0.9c0,0.3-0.1,0.6-0.3,0.7
	c0.4,0.1,0.7,0.5,0.7,0.9c0,0.2,0,0.6-0.4,1c-0.3,0.3-0.7,0.3-1.1,0.3h-0.9v-4.1H28.2z M34.8,19.8c-0.4-0.4-0.9-0.5-1.1-0.5
	c-0.9,0-1.5,0.6-1.5,1.5c0,0.9,0.6,1.5,1.5,1.5c0.5,0,0.9-0.2,1.1-0.5v0.7c-0.3,0.2-0.7,0.3-1.1,0.3c-0.5,0-1.1-0.2-1.4-0.6
	c-0.5-0.4-0.7-1-0.7-1.5c0-0.7,0.3-1.3,0.7-1.6c0.4-0.4,0.9-0.5,1.5-0.5c0.4,0,0.7,0.1,1.1,0.3V19.8L34.8,19.8z M37.7,21.3l-0.6-1.4
	l-0.6,1.4H37.7z M38,21.9h-1.7l-0.4,1h-0.7l2-4.3l1.9,4.3h-0.7L38,21.9z M40.2,20.4H42v-1.6h0.6v4.1H42V21h-1.7v1.9h-0.6v-4.1h0.6
	V20.4z M44.4,20.4l1.6-1.6h0.8L45,20.7l1.8,2.2H46l-1.5-1.8l-0.1,0.1v1.7h-0.6v-4.1h0.6V20.4z M48.7,19.4v3.5h-0.6v-3.5h-0.9v-0.6
	h2.5v0.6H48.7z M55,18.8v4.1h-0.6v-3.5h-1.7v3.5H52v-4.1H55z M58.5,19.4h-1.6v1h1.6V21h-1.6v1.3h1.6v0.6h-2.2v-4.1h2.2V19.4z
	 M60.6,19.4v3.5H60v-3.5h-0.9v-0.6h2.5v0.6H60.6z M64.6,19.4H63v1h1.6V21H63v1.3h1.6v0.6h-2.2v-4.1h2.2V19.4z M66.3,20.7h0.3
	c0.5,0,0.8-0.3,0.8-0.6c0-0.2-0.1-0.6-0.8-0.6h-0.3V20.7z M66.5,18.8c0.2,0,0.6,0,0.9,0.2c0.3,0.2,0.5,0.6,0.5,1
	c0,0.2-0.1,0.6-0.4,0.9c-0.3,0.3-0.7,0.3-1,0.3h-0.3v1.7h-0.6v-4.1L66.5,18.8L66.5,18.8z M69.4,22.3h0.4c0.2,0,0.8,0,0.8-0.6
	c0-0.3-0.1-0.6-0.8-0.6h-0.4V22.3z M68.8,18.8h2v0.6h-1.4v1.1h0.4c0.3,0,0.7,0,1,0.3c0.2,0.2,0.4,0.5,0.4,0.9c0,0.4-0.2,0.8-0.5,1
	c-0.3,0.2-0.6,0.2-0.9,0.2h-1V18.8z M72.3,18.8l1.1,2.1l0.9-2.1H75l-1.8,4.1h-0.6l0.5-1.2l-1.5-2.9H72.3z M76.1,20.7h0.3
	c0.5,0,0.8-0.3,0.8-0.6c0-0.2-0.1-0.6-0.8-0.6h-0.3L76.1,20.7L76.1,20.7z M76.4,18.8c0.2,0,0.6,0,0.9,0.2c0.3,0.2,0.5,0.6,0.5,1
	c0,0.2-0.1,0.6-0.4,0.9c-0.3,0.3-0.7,0.3-1,0.3h-0.3v1.7h-0.6v-4.1L76.4,18.8L76.4,18.8z M78.7,18.8h2v0.6h-1.4v3.5h-0.6V18.8z"/>
<g id="Group" transform="translate(81.000000, 19.424000)">
	<g id="Clipped">
		<g id="a">
		</g>
		<defs>
			<filter id="Adobe_OpacityMaskFilter" filterUnits="userSpaceOnUse" x="0.5" y="-0.6" width="2.2" height="4.1">
				<feColorMatrix  type="matrix" values="1 0 0 0 0  0 1 0 0 0  0 0 1 0 0  0 0 0 1 0"/>
			</filter>
		</defs>
		<mask maskUnits="userSpaceOnUse" x="0.5" y="-0.6" width="2.2" height="4.1" id="mask-2">
			<g filter="url(#Adobe_OpacityMaskFilter)">
				<polygon id="path-1" fill="#FFFFFF" points="0.5,-0.6 2.8,-0.6 2.8,3.5 0.5,3.5 				"/>
			</g>
		</mask>
		<polygon id="Shape_2_" mask="url(#mask-2)" fill="#FEFEFE" points="2.8,0 1.1,0 1.1,0.9 2.7,0.9 2.7,1.5 1.1,1.5 1.1,2.9 2.8,2.9 
			2.8,3.5 0.5,3.5 0.5,-0.6 2.8,-0.6 		"/>
	</g>
</g>
<g id="Clipped_1_" transform="translate(0.000000, 0.424000)">
	<g id="c">
	</g>
	<defs>
		<filter id="Adobe_OpacityMaskFilter_1_" filterUnits="userSpaceOnUse" x="0" y="0.8" width="21.2" height="22.2">
			<feColorMatrix  type="matrix" values="1 0 0 0 0  0 1 0 0 0  0 0 1 0 0  0 0 0 1 0"/>
		</filter>
	</defs>
	<mask maskUnits="userSpaceOnUse" x="0" y="0.8" width="21.2" height="22.2" id="mask-4">
		<g filter="url(#Adobe_OpacityMaskFilter_1_)">
			<polygon id="path-3" fill="#FFFFFF" points="0,23 83.7,23 83.7,-0.4 0,-0.4 			"/>
		</g>
	</mask>
	<path id="Shape_3_" mask="url(#mask-4)" fill="#FEFEFE" d="M0,23h0.3V0.8H0V23z M6.9,0.8v4.6c-0.1,0-0.2,0.1-0.3,0.1V0.8H6.9z
		 M6.9,9V15c-0.1-0.1-0.2-0.3-0.3-0.4V9.3C6.7,9.2,6.8,9.1,6.9,9z M6.7,18.9C6.8,19,6.8,19,6.9,19v4H6.7V18.9z M14.6,0.8v14.5
		c-0.1,0.1-0.2,0.2-0.3,0.3V0.8H14.6z M14.4,19.2c0.1,0,0.1-0.1,0.2-0.1V23h-0.3v-3.8C14.3,19.2,14.3,19.2,14.4,19.2z M20.9,23h0.3
		V0.8h-0.3V23z"/>
</g>
<g id="c_1_">
</g>
<path fill="#FEFEFE" d="M16.6,7.3c0,0.1,0.2,0.9,0.2,1.8c0.1,1,0.1,2.2-0.1,3.3c-0.2,1.3-0.7,2.6-1.6,3.5c-1.1,1.1-2.8,1.6-4.3,1.6
	c-1.5,0-3-0.5-4.1-1.6c-1-1-1.3-2.3-1.3-3.7c0-0.8,0.1-1.5,0.4-2.1c0.5-1.3,1.7-1.8,3-1.7c0.6,0,1.8,0.1,2.3,0.6
	c0.6,0.7,0.5,2,0.2,2.7c0,0.1-0.1,0.5-0.6,0.5c-0.2,0-0.8,0-1-0.1c-0.1,0-0.2-0.2-0.2-0.4c0-0.4,0.2-0.7,0.2-1
	c0-0.1-0.1-0.3-0.2-0.3c-0.3-0.1-1.2-0.4-1.6,0.2c-0.2,0.2-0.4,1-0.3,1.5c0.1,0.7,0.5,1.2,0.9,1.4c0.4,0.3,1.1,0.5,1.8,0.5
	c0.8,0,1.6-0.1,2.1-0.5c0.9-0.7,1.1-1.6,1.2-2.7c0.2-1.9-0.6-3.6-2.5-4.3c-2.9-1-6.3-0.4-7.5,2.7C2.6,12,3,15.4,5,17.5
	c2.3,2.4,6.2,2.8,9.1,1.6c2.1-0.8,3.5-2.4,4.3-4.5c0.4-1.2,0.6-2.5,0.6-3.8c0-0.6,0-1.2-0.1-1.8c0-0.5-0.1-1-0.2-1.5
	c-0.1-0.2-0.2-0.3-0.3-0.3L17.1,7C17,7,16.7,7,16.6,7.3L16.6,7.3z"/>
<polygon fill="#FEFEFE" points="51,1.1 51,2 52,0.8 52,0 "/>
<polygon fill="#FEFEFE" points="67.9,1.1 67.9,2 68.9,0.8 68.9,0 "/>
<polygon fill="#FEFEFE" points="50,21 50,21.9 51.1,20.7 51.1,19.9 "/>
</svg>
