<svg xmlns="http://www.w3.org/2000/svg" width="27" height="27" viewBox="0 0 27 27">
    <g fill="#000" fill-rule="evenodd">
        <path d="M13.482 8.798a4.69 4.69 0 0 0-4.684 4.684 4.69 4.69 0 0 0 4.684 4.684 4.69 4.69 0 0 0 4.684-4.684 4.69 4.69 0 0 0-4.684-4.684m0 11.491a6.815 6.815 0 0 1-6.808-6.807 6.815 6.815 0 0 1 6.808-6.808 6.815 6.815 0 0 1 6.807 6.808 6.815 6.815 0 0 1-6.807 6.807M20.905 6.62a.027.027 0 0 0-.027.027c0 .03.055.03.055 0a.027.027 0 0 0-.028-.027m0 1.82a1.795 1.795 0 0 1-1.793-1.793c0-.989.805-1.793 1.793-1.793.989 0 1.793.804 1.793 1.793 0 .989-.804 1.793-1.793 1.793"/>
        <path d="M6.826 2.124a4.707 4.707 0 0 0-4.702 4.702v13.348a4.707 4.707 0 0 0 4.702 4.702h13.348a4.707 4.707 0 0 0 4.702-4.702V6.826a4.707 4.707 0 0 0-4.702-4.702H6.826zM20.174 27H6.826A6.834 6.834 0 0 1 0 20.174V6.826A6.833 6.833 0 0 1 6.826 0h13.348A6.834 6.834 0 0 1 27 6.826v13.348A6.834 6.834 0 0 1 20.174 27z"/>
    </g>
</svg>
