<svg xmlns="http://www.w3.org/2000/svg" xmlns:xlink="http://www.w3.org/1999/xlink" width="110" height="45"
     viewBox="0 0 62 25">
    <defs>
        <path id="a" d="M0 .85h3.315V5H0z"/>
        <path id="c" d="M.526.786h3.91V5H.526z"/>
    </defs>
    <g fill="none" fill-rule="evenodd">
        <g transform="translate(0 19.082)">
            <mask id="b" fill="#fff">
                <use xlink:href="#a"/>
            </mask>
            <path fill="#FEFEFE" d="M3.257 1.401c.063-.151.075-.274.035-.366-.029-.072-.09-.125-.179-.159-.215-.078-.385.024-.5.301l-.804 1.948L.7 1.136A.525.525 0 0 0 .465.888C.375.846.271.853.165.908A.301.301 0 0 0 0 1.165a.543.543 0 0 0 .088.329l1.363 2.363a1.216 1.216 0 0 1-.193.35.299.299 0 0 1-.233.112.626.626 0 0 1-.241-.052.76.76 0 0 0-.106-.035c-.204-.066-.344-.009-.412.167-.074.2 0 .361.217.481.145.079.337.12.577.12.264 0 .485-.1.655-.298.168-.196.347-.513.53-.944l1.011-2.357z" mask="url(#b)"/>
        </g>
        <path fill="#FEFEFE" d="M4.364 24.023a.371.371 0 0 0 .277-.106.39.39 0 0 0 .1-.275v-1.373h1.821v1.373a.39.39 0 0 0 .098.275c.063.07.16.106.28.106a.368.368 0 0 0 .275-.106.387.387 0 0 0 .101-.275v-3.326a.394.394 0 0 0-.1-.277.357.357 0 0 0-.277-.112.357.357 0 0 0-.28.112.404.404 0 0 0-.097.277v1.277h-1.82v-1.277a.396.396 0 0 0-.1-.277.36.36 0 0 0-.278-.112.357.357 0 0 0-.28.112.402.402 0 0 0-.097.277v3.326c0 .11.033.202.098.275.065.07.16.106.28.106M8.744 24.023c.12 0 .238-.071.349-.215l1.867-2.545v2.379c0 .107.033.198.096.27.066.074.162.11.285.11.12 0 .214-.035.278-.105a.406.406 0 0 0 .094-.275v-3.326c0-.258-.121-.39-.361-.39-.134 0-.257.072-.358.21L9.138 22.7v-2.384a.407.407 0 0 0-.097-.277.354.354 0 0 0-.28-.112c-.124 0-.218.038-.283.112a.414.414 0 0 0-.093.277v3.326c0 .118.03.213.094.28a.345.345 0 0 0 .265.1M14.805 23.282c-.142.093-.358.142-.642.142-.254 0-.477-.01-.658-.034v-1.174h.652c.578 0 .858.195.858.598 0 .216-.07.375-.21.468m-.725-1.642h-.575v-1.08c.18-.017.352-.027.516-.027.538 0 .8.17.8.52 0 .396-.243.587-.74.587m1.016.19a.881.881 0 0 0 .347-.328.976.976 0 0 0 .148-.518c0-.722-.507-1.087-1.506-1.087-.353 0-.673.025-.949.072-.237.041-.356.18-.356.416v3.203c0 .232.118.367.35.4.277.044.615.064 1.002.064 1.097 0 1.653-.425 1.653-1.267a.96.96 0 0 0-.2-.61 1.06 1.06 0 0 0-.489-.346M19.367 23.932a.323.323 0 0 0 .1-.243.324.324 0 0 0-.1-.25.357.357 0 0 0-.26-.091h-1.676v-1.09h1.288c.11 0 .201-.033.267-.095a.33.33 0 0 0 .098-.246.316.316 0 0 0-.1-.248.39.39 0 0 0-.265-.087h-1.288v-.98h1.617a.367.367 0 0 0 .26-.091.319.319 0 0 0 .1-.243.326.326 0 0 0-.1-.25.366.366 0 0 0-.26-.09h-1.987a.37.37 0 0 0-.283.109.403.403 0 0 0-.1.279v3.319a.368.368 0 0 0 .389.389h2.04a.365.365 0 0 0 .26-.092M20.965 20.594c.163-.021.327-.032.487-.032.542 0 .805.22.805.674 0 .485-.277.721-.846.721-.186 0-.336-.007-.446-.021v-1.342zm2.08.625c0-.452-.143-.79-.424-1.002-.28-.211-.667-.319-1.151-.319-.344 0-.651.026-.91.077-.231.045-.35.191-.35.433v3.234c0 .111.035.204.099.274.065.072.158.107.279.107.117 0 .21-.035.276-.107a.383.383 0 0 0 .1-.274V22.59c.118.016.28.025.488.025.47 0 .857-.119 1.15-.351.295-.234.444-.587.444-1.045zM26.356 23.157a1.619 1.619 0 0 1-.822.25c-.33 0-.61-.128-.824-.383-.215-.254-.325-.608-.325-1.053 0-.431.1-.78.303-1.04.326-.42.865-.503 1.589-.224.244.091.406.053.477-.107.083-.178.033-.334-.15-.457-.261-.183-.63-.274-1.1-.274-.594 0-1.067.192-1.402.573-.335.38-.505.896-.505 1.532 0 .645.159 1.163.476 1.538.316.378.79.57 1.409.57.487 0 .895-.119 1.212-.35a.484.484 0 0 0 .187-.267.295.295 0 0 0-.048-.26c-.104-.15-.266-.168-.477-.047M30.675 19.927c-.138 0-.258.07-.36.21l-1.856 2.561v-2.382a.41.41 0 0 0-.097-.278.356.356 0 0 0-.279-.111c-.125 0-.22.038-.283.111a.412.412 0 0 0-.094.278v3.326c0 .119.032.214.094.28a.344.344 0 0 0 .265.101c.121 0 .237-.072.35-.215l1.866-2.546v2.38c0 .106.032.198.097.269.065.076.16.112.284.112.121 0 .214-.036.278-.109a.401.401 0 0 0 .094-.272v-3.326c0-.258-.12-.389-.359-.389M35.202 20.262a.318.318 0 0 0-.099-.246.384.384 0 0 0-.267-.089H32.05a.373.373 0 0 0-.26.089.318.318 0 0 0-.099.246.32.32 0 0 0 .1.246.359.359 0 0 0 .26.095h1.016v3.039a.39.39 0 0 0 .097.274c.065.071.16.108.28.108a.365.365 0 0 0 .28-.108.395.395 0 0 0 .096-.274v-3.039h1.016a.368.368 0 0 0 .267-.095.327.327 0 0 0 .1-.246M38.288 23.348h-1.674v-1.091H37.9a.359.359 0 0 0 .264-.095.321.321 0 0 0 .102-.246.315.315 0 0 0-.102-.246.384.384 0 0 0-.264-.09h-1.286v-.976h1.614a.368.368 0 0 0 .26-.093.317.317 0 0 0 .1-.243.326.326 0 0 0-.1-.25.367.367 0 0 0-.26-.091h-1.986a.37.37 0 0 0-.283.11.402.402 0 0 0-.1.279v3.32c0 .11.035.204.103.277.07.074.164.11.285.11h2.04a.362.362 0 0 0 .26-.091.32.32 0 0 0 .1-.244.329.329 0 0 0-.1-.25.368.368 0 0 0-.26-.09M42.432 20.262a.318.318 0 0 0-.099-.246.383.383 0 0 0-.266-.089h-2.785a.378.378 0 0 0-.262.089.318.318 0 0 0-.099.246c0 .101.034.184.099.246a.36.36 0 0 0 .262.095h1.015v3.039c0 .111.033.203.097.274.065.071.16.108.281.108a.362.362 0 0 0 .278-.108.39.39 0 0 0 .097-.274v-3.039h1.017a.367.367 0 0 0 .266-.095.323.323 0 0 0 .099-.246M48.063 23.642v-3.326c0-.258-.121-.39-.36-.39-.136 0-.257.07-.36.21L45.489 22.7v-2.383a.404.404 0 0 0-.097-.278.357.357 0 0 0-.28-.111c-.123 0-.218.038-.281.11a.408.408 0 0 0-.095.279v3.326c0 .119.033.212.095.279.063.069.15.102.264.102.12 0 .239-.071.349-.215l1.867-2.546v2.38c0 .106.032.198.097.27.065.075.16.11.286.11.12 0 .212-.035.276-.106a.4.4 0 0 0 .094-.274M51.866 19.927h-2.788a.365.365 0 0 0-.258.089.312.312 0 0 0-.1.246c0 .1.034.183.098.246a.36.36 0 0 0 .26.095h1.018v3.039a.39.39 0 0 0 .097.274c.065.072.16.107.28.107.12 0 .214-.035.28-.107a.394.394 0 0 0 .097-.274v-3.039h1.016a.364.364 0 0 0 .266-.095.325.325 0 0 0 .098-.246.31.31 0 0 0-.098-.246.38.38 0 0 0-.266-.089M56.281 19.927c-.146 0-.27.079-.368.235l-1.154 1.862-1.18-1.857c-.098-.158-.228-.24-.384-.24a.342.342 0 0 0-.256.099c-.065.064-.098.165-.098.296v3.32c0 .253.12.381.354.381.233 0 .352-.128.352-.381v-2.277l.826 1.292c.091.143.208.216.35.216.137 0 .253-.074.344-.221l.813-1.314v2.304c0 .111.033.204.101.274a.356.356 0 0 0 .276.107c.12 0 .214-.035.278-.107a.39.39 0 0 0 .1-.274v-3.326a.417.417 0 0 0-.093-.281.328.328 0 0 0-.26-.108"/>
        <g transform="translate(57 19.082)">
            <mask id="d" fill="#fff">
                <use xlink:href="#c"/>
            </mask>
            <path fill="#FEFEFE" d="M3.344 3.926c-.2.265-.49.398-.865.398-.372 0-.66-.133-.862-.398-.199-.266-.302-.613-.302-1.033 0-.419.103-.767.302-1.032.202-.265.49-.399.862-.399.374 0 .665.134.865.4.201.264.302.612.302 1.031 0 .42-.1.767-.302 1.033m.581-2.544C3.585.987 3.097.786 2.48.786c-.62 0-1.106.201-1.446.596-.336.393-.507.901-.507 1.511 0 .614.171 1.123.507 1.515.34.392.825.591 1.446.591.618 0 1.105-.199 1.446-.59.34-.393.511-.902.511-1.516 0-.61-.172-1.118-.51-1.51" mask="url(#d)"/>
        </g>
        <path fill="#FEFEFE" d="M19.376 9.13a.806.806 0 1 1-1.612-.002.806.806 0 0 1 1.612.002M23.25 3.934c0 .667-.542 1.206-1.208 1.206a1.207 1.207 0 1 1 0-2.413c.666 0 1.208.54 1.208 1.207M26.721 5.666a1.21 1.21 0 0 1-2.418 0 1.209 1.209 0 0 1 2.418 0M30.192 7.398a1.208 1.208 0 0 1-2.418 0c0-.667.54-1.206 1.21-1.206.666 0 1.208.539 1.208 1.206M26.721 9.13c0 .667-.542 1.205-1.208 1.205a1.206 1.206 0 1 1 0-2.413c.666 0 1.208.541 1.208 1.208M33.663 9.13c0 .667-.542 1.205-1.208 1.205a1.206 1.206 0 1 1 0-2.413c.666 0 1.208.541 1.208 1.208M33.26 12.594a.805.805 0 1 1-1.611 0 .805.805 0 0 1 1.61 0M36.73 10.862a.805.805 0 1 1-1.61-.001.805.805 0 0 1 1.61 0M37.134 7.398a1.208 1.208 0 0 1-2.418 0c0-.667.54-1.206 1.208-1.206.668 0 1.21.539 1.21 1.206M33.663 5.666a1.21 1.21 0 0 1-2.418 0 1.209 1.209 0 0 1 2.418 0M29.79 10.862a.807.807 0 0 1-1.613 0 .807.807 0 0 1 1.613 0M37.134 3.934c0 .667-.542 1.206-1.21 1.206a1.206 1.206 0 1 1 0-2.413c.668 0 1.21.54 1.21 1.207M40.201 2.201a.805.805 0 1 1-1.61 0 .805.805 0 0 1 1.61 0M40.201 9.13a.806.806 0 1 1-1.612-.002.806.806 0 0 1 1.612.002M29.79 3.934a.807.807 0 0 1-1.613 0 .807.807 0 0 1 1.613 0M26.318 12.594a.805.805 0 1 1-1.61 0 .805.805 0 0 1 1.61 0M23.25 7.398a1.208 1.208 0 0 1-2.418 0c0-.667.541-1.206 1.21-1.206.666 0 1.208.539 1.208 1.206M18.57 4.46a1.207 1.207 0 1 0 0 2.413 1.208 1.208 0 1 0 0-2.414m0 .59c.342 0 .62.276.62.617a.618.618 0 1 1-.62-.618M15.57 10.862a.47.47 0 0 1-.47.47.47.47 0 1 1 0-.94.47.47 0 0 1 .47.47M15.57 7.398a.47.47 0 1 1-.94 0 .47.47 0 0 1 .94 0M22.513 10.837a.47.47 0 0 1-.472.47.47.47 0 1 1 0-.94.47.47 0 0 1 .472.47M22.513.47a.471.471 0 1 1-.943-.002.471.471 0 0 1 .943.002M29.43 14.325a.471.471 0 1 1-.943 0 .471.471 0 0 1 .943 0M19.042 2.201a.47.47 0 1 1-.941.001.47.47 0 0 1 .94 0M25.983 2.201a.47.47 0 1 1-.94.001.47.47 0 0 1 .94 0"/>
        <path fill="#FEFEFE" d="M29.43 14.325a.471.471 0 1 1-.943 0 .471.471 0 0 1 .943 0M46.808 5.665a.47.47 0 1 1-.471-.47.47.47 0 0 1 .471.47M39.867 12.594a.471.471 0 1 1-.471-.471c.26 0 .47.21.47.471M44.075 3.934c0 .667-.542 1.206-1.21 1.206a1.206 1.206 0 1 1 0-2.413c.668 0 1.21.542 1.21 1.207M40.604 5.666a1.21 1.21 0 0 1-2.418 0 1.209 1.209 0 0 1 2.418 0M43.337 10.862a.47.47 0 0 1-.472.47.47.47 0 1 1 0-.94c.261 0 .472.21.472.47M43.672 7.398a.806.806 0 1 1-1.61-.001.806.806 0 0 1 1.61 0M32.924 2.201a.47.47 0 1 1-.94.001.47.47 0 0 1 .94 0M43.337.47a.471.471 0 1 1-.942-.002.471.471 0 0 1 .942.002M46.808 2.201a.47.47 0 1 1-.941.001.47.47 0 0 1 .941 0"/>
    </g>
</svg>
