<svg xmlns="http://www.w3.org/2000/svg" viewBox="0 0 195.1 25.5" width="195" height="26">
	<g>
		<path fill="#FFFFFF" d="M6.3,9.7c-0.2,1.1-0.5,2.7-0.7,3.7H5.5L3,4.4H0l4.1,12.8l-0.2,1.5c-0.1,0.3-0.3,0.9-0.5,1.1
			c-0.2,0.3-0.7,0.4-1.2,0.4H1.5v2.5h0.9c0.7,0,1.5,0,2.2-0.5C6.1,21.3,6.5,19,7,16.9l3.1-12.5H7.4L6.3,9.7z"/>
		<polygon fill="#FFFFFF" points="18.7,12.3 15.2,12.3 15.2,4.4 12.6,4.4 12.6,22.7 15.2,22.7 15.2,14.7 18.7,14.7 18.7,22.7
			21.3,22.7 21.3,4.4 18.7,4.4 	"/>
		<polygon fill="#FFFFFF" points="32.4,6.5 28.2,15.7 28.2,4.4 25.5,4.4 25.5,22.7 28.2,22.7 28.2,20.6 32.4,11.5 32.4,22.7 35,22.7
			35,4.4 32.4,4.4 	"/>
		<path fill="#FFFFFF" d="M47.1,12.4c0.7-0.8,0.8-1.6,0.8-2.8c0-1.1,0-3-1.7-4.2c-1.1-0.8-2.7-0.9-3.4-0.9h-3.5v18.3h4
			c1.6,0,2.5-0.4,3.1-0.9c1.6-1.2,1.6-3,1.6-3.8v-1.3c0-0.9,0-1.4-0.5-2.3c-0.2-0.4-0.5-0.8-1.2-1.1C46.5,13,46.8,12.7,47.1,12.4z
			 M45.3,17.7c0,0.3,0,1.2-0.5,1.8c-0.5,0.8-1.4,0.8-1.8,0.8h-1.2v-6H43c0.6,0,1,0.1,1.4,0.5c0.6,0.5,0.7,1.1,0.7,2v0.9H45.3z
			 M45.3,9.8c0,0.6-0.2,1.2-0.5,1.6c-0.3,0.3-0.8,0.7-1.7,0.7h-1.2V6.8H43c0.9,0,1.4,0.3,1.7,0.6c0.3,0.3,0.5,0.8,0.5,1.2V9.8z"/>
		<polygon fill="#FFFFFF" points="54.3,14.7 58.9,14.7 58.9,12.3 54.3,12.3 54.3,6.9 59.5,6.9 59.5,4.4 51.7,4.4 51.7,22.7
			59.5,22.7 59.5,20.2 54.3,20.2 	"/>
		<path fill="#FFFFFF" d="M67,4.4h-3.9v18.3h2.6v-7.2h1.5c1.1,0,2.5-0.2,3.6-1.4c1-1.2,1.1-2.7,1.1-3.7V9.9c0-1.4-0.1-2.9-1.3-4.2
			C69.5,4.5,68.1,4.4,67,4.4z M69.3,10.6c0,0.7,0.1,1.3-0.5,1.9c-0.5,0.6-1.2,0.7-1.7,0.7h-1.4V6.8h0.9c0.7,0,1.4,0,2,0.5
			c0.7,0.6,0.7,1.5,0.7,2.1V10.6z"/>
		<path fill="#FFFFFF" d="M81.2,18.3c0,0.9-0.2,1.3-0.4,1.5c-0.3,0.4-0.9,0.6-1.5,0.6c-0.7,0-1.1-0.4-1.3-0.6c-0.3-0.5-0.3-1-0.3-1.6
			V9.2c0-0.6,0-1.3,0.4-1.8c0.3-0.3,0.7-0.6,1.4-0.6c0.8,0,1.2,0.5,1.4,0.6c0.2,0.3,0.3,0.8,0.3,1.2v1h2.5V8.3c0-1.3-0.5-2.4-1.2-3
			c-0.8-0.8-2.1-1.2-3.1-1.2c-1,0-2.2,0.3-3,1.1c-1.2,1-1.3,2.4-1.3,3.6v9.5c0,0.9,0,2.2,0.9,3.3c0.6,0.7,1.6,1.4,3.3,1.4
			c1.8,0,2.9-0.6,3.4-1.2c0.5-0.5,1.1-1.5,1.1-3.3v-0.8h-2.6C81.2,17.7,81.2,18.3,81.2,18.3z"/>
		<polygon fill="#FFFFFF" points="94.2,6.5 89.9,15.7 89.9,4.4 87.3,4.4 87.3,22.7 89.9,22.7 89.9,20.6 94.2,11.5 94.2,22.7
			96.8,22.7 96.8,4.4 94.2,4.4 	"/>
		<polygon fill="#FFFFFF" points="99.5,6.9 102.7,6.9 102.7,22.7 105.3,22.7 105.3,6.9 108.6,6.9 108.6,4.4 99.5,4.4 	"/>
		<polygon fill="#FFFFFF" points="113.8,14.7 118.4,14.7 118.4,12.3 113.8,12.3 113.8,6.9 119,6.9 119,4.4 111.2,4.4 111.2,22.7
			119.1,22.7 119.1,20.2 113.8,20.2 	"/>
		<polygon fill="#FFFFFF" points="121.1,6.9 124.3,6.9 124.3,22.7 126.9,22.7 126.9,6.9 130.1,6.9 130.1,4.4 121.1,4.4 	"/>
		<path fill="#FFFFFF" d="M148.4,4.4h-7.1v1.3c0,3.2-0.1,7.7-0.5,10.3c-0.3,1.5-0.7,3-1.3,4.3h-1.2v5.1h2.5v-2.7h6.7v2.8h2.5v-5.1
			h-1.5v-16H148.4z M145.8,20.5h-3.7c0.6-1.3,0.9-2.4,1.1-3.7c0.3-1.6,0.6-4.1,0.6-8.6V6.7h2L145.8,20.5L145.8,20.5z"/>
		<polygon fill="#FFFFFF" points="155.3,14.7 159.8,14.7 159.8,12.3 155.3,12.3 155.3,6.9 160.4,6.9 160.4,4.4 152.7,4.4 152.7,22.7
			160.5,22.7 160.5,20.2 155.3,20.2 	"/>
		<polygon fill="#FFFFFF" points="162.5,6.9 165.7,6.9 165.7,22.7 168.3,22.7 168.3,6.9 171.6,6.9 171.6,4.4 162.5,4.4 	"/>
		<polygon fill="#FFFFFF" points="176.8,14.7 181.4,14.7 181.4,12.3 176.8,12.3 176.8,6.9 182,6.9 182,4.4 174.2,4.4 174.2,22.7
			182,22.7 182,20.2 176.8,20.2 	"/>
		<polygon fill="#FFFFFF" points="192.5,4.4 192.5,6.5 188.2,15.7 188.2,4.4 185.5,4.4 185.5,22.7 188.2,22.7 188.2,20.6 192.5,11.5
			192.5,22.7 195.1,22.7 195.1,4.4 	"/>
		<path fill="#FFFFFF" d="M190.4,3.2c1,0,1.9-0.2,2.4-0.7c0.4-0.4,0.8-1,0.8-2.1V0h-2.1v0.2c0,0.2,0,0.5-0.3,0.7
			c-0.2,0.2-0.5,0.2-0.8,0.2c-0.3,0-0.5,0-0.8-0.2s-0.3-0.5-0.3-0.7V0h-2.1v0.3c0,1,0.4,1.7,0.8,2.1C188.5,2.9,189.4,3.2,190.4,3.2z"
			/>
	</g>
</svg>
