<svg class="logo-svg" xmlns="http://www.w3.org/2000/svg" viewBox="0 0 238 35" width="238" height="35">
	<g class="logo-svg__text">
		<path fill="#FFFFFF" d="M49.5,14c-0.2,1.1-0.5,2.7-0.7,3.7h-0.1l-2.5-8.9h-3l4.1,12.7L47.1,23c-0.1,0.3-0.3,0.9-0.5,1.1
			c-0.2,0.3-0.7,0.4-1.2,0.4h-0.7V27h0.9c0.7,0,1.5,0,2.2-0.5c1.5-0.9,1.9-3.2,2.4-5.3l3.1-12.4h-2.7L49.5,14z"/>
		<polygon fill="#FFFFFF" points="61.8,16.6 58.3,16.6 58.3,8.8 55.7,8.8 55.7,27 58.3,27 58.3,19 61.8,19 61.8,27 64.4,27 64.4,8.8
			61.8,8.8 	"/>
		<polygon fill="#FFFFFF" points="75.4,10.9 71.2,20 71.2,8.8 68.6,8.8 68.6,27 71.2,27 71.2,24.9 75.4,15.8 75.4,27 78,27 78,8.8
			75.4,8.8 	"/>
		<path fill="#FFFFFF" d="M90,16.7c0.7-0.8,0.8-1.6,0.8-2.8c0-1.1,0-3-1.7-4.2c-1.1-0.8-2.7-0.9-3.4-0.9h-3.5V27h4
			c1.6,0,2.5-0.4,3.1-0.9c1.6-1.2,1.6-3,1.6-3.8V21c0-0.9,0-1.4-0.5-2.3c-0.2-0.4-0.5-0.8-1.2-1.1C89.4,17.3,89.7,17,90,16.7z
			 M88.2,22c0,0.3,0,1.2-0.5,1.8c-0.5,0.8-1.4,0.8-1.8,0.8h-1.2v-6h1.3c0.6,0,1,0.1,1.4,0.5c0.6,0.5,0.7,1.1,0.7,2V22z M88.2,14.1
			c0,0.6-0.2,1.2-0.5,1.6c-0.3,0.3-0.8,0.7-1.7,0.7h-1.2v-5.2H86c0.9,0,1.4,0.3,1.7,0.6c0.3,0.3,0.5,0.8,0.5,1.2V14.1z"/>
		<polygon fill="#FFFFFF" points="97.2,19 101.8,19 101.8,16.6 97.2,16.6 97.2,11.3 102.4,11.3 102.4,8.8 94.6,8.8 94.6,27 102.4,27
			102.4,24.5 97.2,24.5 	"/>
		<path fill="#FFFFFF" d="M109.8,8.8h-3.9V27h2.6v-7.2h1.5c1.1,0,2.5-0.2,3.6-1.4c1-1.2,1.1-2.7,1.1-3.7v-0.5c0-1.4-0.1-2.9-1.3-4.2
			C112.3,8.9,110.9,8.8,109.8,8.8z M112.1,14.9c0,0.7,0.1,1.3-0.5,1.9c-0.5,0.6-1.2,0.7-1.7,0.7h-1.4v-6.3h0.9c0.7,0,1.4,0,2,0.5
			c0.7,0.6,0.7,1.5,0.7,2.1V14.9z"/>
		<path fill="#FFFFFF" d="M123.9,22.6c0,0.9-0.2,1.3-0.4,1.5c-0.3,0.4-0.9,0.6-1.5,0.6c-0.7,0-1.1-0.4-1.3-0.6
			c-0.3-0.5-0.3-1-0.3-1.6v-9c0-0.6,0-1.3,0.4-1.8c0.3-0.3,0.7-0.6,1.4-0.6c0.8,0,1.2,0.5,1.4,0.6c0.2,0.3,0.3,0.8,0.3,1.2v1h2.5
			v-1.2c0-1.3-0.5-2.4-1.2-3c-0.8-0.8-2.1-1.2-3.1-1.2c-1,0-2.2,0.3-3,1.1c-1.2,1-1.3,2.4-1.3,3.6v9.4c0,0.9,0,2.2,0.9,3.3
			c0.6,0.7,1.6,1.4,3.3,1.4c1.8,0,2.9-0.6,3.4-1.2c0.5-0.5,1.1-1.5,1.1-3.3V22h-2.6V22.6z"/>
		<polygon fill="#FFFFFF" points="136.9,10.9 132.6,20 132.6,8.8 130,8.8 130,27 132.6,27 132.6,24.9 136.9,15.8 136.9,27 139.5,27
			139.5,8.8 136.9,8.8 	"/>
		<polygon fill="#FFFFFF" points="142.1,11.3 145.3,11.3 145.3,27 147.9,27 147.9,11.3 151.2,11.3 151.2,8.8 142.1,8.8 	"/>
		<polygon fill="#FFFFFF" points="156.4,19 160.9,19 160.9,16.6 156.4,16.6 156.4,11.3 161.5,11.3 161.5,8.8 153.8,8.8 153.8,27
			161.6,27 161.6,24.5 156.4,24.5 	"/>
		<polygon fill="#FFFFFF" points="163.6,11.3 166.8,11.3 166.8,27 169.4,27 169.4,11.3 172.6,11.3 172.6,8.8 163.6,8.8 	"/>
		<path fill="#FFFFFF" d="M190.8,8.8h-7.1v1.3c0,3.2-0.1,7.7-0.5,10.2c-0.3,1.5-0.7,3-1.3,4.3h-1.2v5.1h2.5V27h6.7v2.8h2.5v-5.1h-1.5
			V8.8z M188.2,24.8h-3.7c0.6-1.3,0.9-2.4,1.1-3.7c0.3-1.6,0.6-4.1,0.6-8.6v-1.4h2V24.8z"/>
		<polygon fill="#FFFFFF" points="197.6,19 202.1,19 202.1,16.6 197.6,16.6 197.6,11.3 202.7,11.3 202.7,8.8 195,8.8 195,27
			202.8,27 202.8,24.5 197.6,24.5 	"/>
		<polygon fill="#FFFFFF" points="204.8,11.3 208,11.3 208,27 210.6,27 210.6,11.3 213.8,11.3 213.8,8.8 204.8,8.8 	"/>
		<polygon fill="#FFFFFF" points="219,19 223.6,19 223.6,16.6 219,16.6 219,11.3 224.2,11.3 224.2,8.8 216.4,8.8 216.4,27 224.2,27
			224.2,24.5 219,24.5 	"/>
		<polygon fill="#FFFFFF" points="234.6,8.8 234.6,10.9 230.3,20 230.3,8.8 227.7,8.8 227.7,27 230.3,27 230.3,24.9 234.6,15.8
			234.6,27 237.2,27 237.2,8.8 	"/>
		<path fill="#FFFFFF" d="M232.5,7.6c1,0,1.9-0.2,2.4-0.7c0.4-0.4,0.8-1,0.8-2.1V4.4h-2.1v0.2c0,0.2,0,0.5-0.3,0.7
			c-0.2,0.2-0.5,0.2-0.8,0.2s-0.5,0-0.8-0.2c-0.3-0.2-0.3-0.5-0.3-0.7V4.4h-2.1v0.3c0,1,0.4,1.7,0.8,2.1
			C230.6,7.3,231.5,7.6,232.5,7.6z"/>
	</g>
	<path class="logo-svg__symbol" fill="#FFFFFF"
		   d="M30,9.4L30,9.4c0-0.5-0.3-0.9-0.7-1.2L15.7,0.2c-0.4-0.2-0.9-0.2-1.3,0l0,0L0.7,8.3C0.3,8.5,0,8.9,0,9.4l0,0
		v16.2c0,0.5,0.3,0.9,0.6,1.2c0,0,0,0,0,0l0,0l0,0l13.6,8.1c0,0,0,0,0,0c0.4,0.2,0.9,0.2,1.3,0l13.7-8.1l0,0c0.4-0.2,0.6-0.7,0.6-1.2
		L30,9.4L30,9.4z M21.9,9.9L21.9,9.9l-4.5,10.9l0,0l-2.6,6.3c-0.2,0.5-0.7,0.9-1.3,0.9c-0.2,0-0.4,0-0.5-0.1c-0.7-0.3-1-1.1-0.7-1.8
		l2.3-5.7L9.2,10C8.8,9.4,9.1,8.5,9.7,8.2c0.7-0.4,1.5-0.1,1.8,0.6c0,0,0,0,0,0l4.4,8.4l3.4-8.2c0.3-0.7,1.1-1,1.8-0.7c0,0,0,0,0,0
		C21.9,8.4,22.2,9.2,21.9,9.9z"/>
</svg>
