<svg xmlns="http://www.w3.org/2000/svg" width="238" height="35" viewBox="0 0 238 35">
    <g fill="#FFF" fill-rule="evenodd">
        <path d="M43.313 8.8h2.964l2.496 8.918h.078c.156-.988.442-2.652.676-3.718l1.144-5.2h2.678l-3.094 12.428c-.52 2.028-.858 4.342-2.392 5.278-.78.468-1.56.494-2.236.494h-.936v-2.47h.65c.52 0 .962-.182 1.196-.442.208-.208.442-.754.52-1.092l.338-1.534L43.313 8.8zm12.414 0h2.6v7.826h3.51V8.8h2.6V27h-2.6v-8.034h-3.51V27h-2.6V8.8zm12.83 0h2.6v11.18l4.29-9.1V8.8h2.6V27h-2.6V15.82l-4.29 9.1V27h-2.6V8.8zm13.61 0h3.51c.78 0 2.288.078 3.432.884 1.638 1.17 1.664 3.12 1.664 4.186 0 1.196-.104 2.028-.78 2.834a3.705 3.705 0 0 1-.988.832c.702.312 1.014.754 1.248 1.144.52.91.52 1.404.52 2.288v1.378c0 .754 0 2.626-1.56 3.796-.572.442-1.534.858-3.094.858h-3.952V8.8zm2.6 2.34v5.2h1.248c.884 0 1.404-.364 1.664-.676.312-.364.494-.988.494-1.56v-1.118c0-.468-.208-.936-.494-1.248-.312-.312-.832-.598-1.69-.598h-1.222zm0 7.54v5.98h1.17c.39 0 1.222-.052 1.768-.806.442-.598.468-1.534.468-1.846v-.858c0-.884-.13-1.508-.702-2.002-.416-.338-.806-.468-1.378-.468h-1.326zM94.633 27V8.8h7.722v2.47h-5.122v5.356h4.524v2.34h-4.524v5.564h5.2V27h-7.8zm11.27 0V8.8h3.874c1.118 0 2.496.052 3.64 1.196 1.196 1.222 1.326 2.808 1.326 4.16v.52c0 1.014-.104 2.522-1.118 3.692-1.066 1.222-2.47 1.43-3.588 1.43h-1.534V27h-2.6zm2.6-15.86v6.318h1.404c.494 0 1.196-.078 1.742-.676.546-.598.494-1.222.494-1.872v-1.196c0-.624.026-1.508-.702-2.106-.598-.494-1.326-.468-2.028-.468h-.91zm15.404 2.834v-1.04c0-.364-.104-.858-.338-1.196-.13-.182-.52-.65-1.352-.65-.676 0-1.092.286-1.352.598-.416.52-.442 1.17-.442 1.794v8.97c0 .598 0 1.144.338 1.612.182.26.598.65 1.326.65.572 0 1.144-.208 1.456-.624.13-.182.364-.598.364-1.482v-.65h2.6v.754c0 1.794-.624 2.834-1.092 3.328-.546.598-1.612 1.222-3.406 1.222-1.716 0-2.704-.702-3.276-1.378-.936-1.092-.91-2.34-.91-3.276v-9.438c0-1.196.156-2.548 1.326-3.562.806-.728 2.002-1.066 2.964-1.066 1.092 0 2.366.416 3.146 1.17.65.65 1.17 1.742 1.17 3.016v1.248h-2.522zm6.07-5.174h2.6v11.18l4.29-9.1V8.8h2.6V27h-2.6V15.82l-4.29 9.1V27h-2.6V8.8zm12.128 0h9.048v2.47h-3.224V27h-2.6V11.27h-3.224V8.8zM153.791 27V8.8h7.722v2.47h-5.122v5.356h4.524v2.34h-4.524v5.564h5.2V27h-7.8zm9.788-18.2h9.048v2.47h-3.224V27h-2.6V11.27h-3.224V8.8zm27.22 15.86h1.482v5.148h-2.47V27h-6.708v2.808h-2.47V24.66h1.222a17.765 17.765 0 0 0 1.326-4.342c.442-2.496.546-7.02.546-10.192V8.8h7.072v15.86zm-2.6-13.52h-2.028v1.43c0 4.42-.286 6.942-.572 8.554-.208 1.248-.494 2.34-1.092 3.666h3.692V11.14zM194.971 27V8.8h7.722v2.47h-5.122v5.356h4.524v2.34h-4.524v5.564h5.2V27h-7.8zm9.788-18.2h9.048v2.47h-3.224V27h-2.6V11.27h-3.224V8.8zM216.445 27V8.8h7.722v2.47h-5.122v5.356h4.524v2.34h-4.524v5.564h5.2V27h-7.8zm11.27-18.2h2.6v11.18l4.29-9.1V8.8h2.6V27h-2.6V15.82l-4.29 9.1V27h-2.6V8.8zm7.93-4.368v.312c0 1.04-.39 1.716-.78 2.08-.52.494-1.378.728-2.392.728s-1.872-.234-2.392-.728c-.39-.364-.78-1.04-.78-2.08v-.312h2.08v.234c0 .208.026.494.312.728.234.208.494.234.78.234.286 0 .546-.026.78-.234.286-.234.312-.52.312-.728v-.234h2.08zM21.895 9.913L17.39 20.846l-.001.003-2.596 6.3c-.218.531-.726.851-1.26.851-.176 0-.354-.034-.525-.107a1.387 1.387 0 0 1-.736-1.806l2.346-5.694L9.161 10.03a1.389 1.389 0 0 1 .563-1.868 1.357 1.357 0 0 1 1.847.57l4.406 8.363 3.397-8.246a1.36 1.36 0 0 1 1.785-.743 1.387 1.387 0 0 1 .736 1.806m8.104-.502a1.35 1.35 0 0 0-.659-1.153L15.66.18a1.296 1.296 0 0 0-1.31-.004l-.01.004L.66 8.257A1.35 1.35 0 0 0 .003 9.41L0 9.423v16.155c0 .491.26.92.646 1.156.005.002.01.006.014.009l.024.014.01.005L14.34 34.82c.004.003.008.003.011.006a1.3 1.3 0 0 0 1.31-.006l13.68-8.077.019-.013c.382-.236.64-.663.64-1.152V9.423l-.001-.012"/>
    </g>
</svg>
