<svg xmlns="http://www.w3.org/2000/svg" viewBox="0 0 77 33" width="106" height="45">
<g>
	<path id="Shape" fill="#FEFEFE" d="M27,19c-0.2-2.2-0.6-4.6-2.6-5.9c-0.1,0.4-0.2,0.8-0.3,1.1c-0.3,1.5-0.3,3-0.2,4.5
		c0.1,1.4,0.4,2.9,1.1,4.2c0.3,0.5,0.9,1.6,1.6,1.8c0.1-0.4,0.2-0.8,0.3-1.2C27.2,22,27.1,20.4,27,19L27,19z M25.1,28
		c-1.8,0.1-2.9-1-3.6-2.6c-0.7,1.8-1.8,3.4-3.3,3.7c-2.1,0.4-3.5-1.3-4.3-2.8c-1.1-2.2-1.9-4.5-2.4-6.8c-0.1,1.6-0.3,3.2-0.7,4.8
		c-0.9,3.3-2.5,7.5-6.1,8.6c-2.3,0.6-4.3-1.3-4.6-3.4c-0.2-0.9,0.6-2.1,1.3-2.8c0.5-0.5,1.5-1,1.7-0.1c0.1,0.9,0.6,1.7,1.4,2.2
		c0.5,0.3,1.6,0.7,2.2,0.1c0.9-0.9,1.2-2.9,1.3-4c0.3-1.7,0.4-3.3,0.3-4.9C8.1,13.9,7.1,7.3,10.4,1.8c0.6-0.9,3.6-2.9,3.2-0.8
		c0,0-0.1,0.5-0.1,0.8c0,0.5-0.1,0.9-0.1,1.4c0,1.2,0,2.3,0.1,3.5c0.2,2.8,0.5,5.7,1,8.5c0.5,2.6,1.2,5.1,2.2,7.6c0.4,1,1.5,3.1,3,3
		c0.2,0,0.4-1.2,0.4-1.9c0.2-1.5,0.2-2.7,0.3-4.2c0-0.4,0-0.9,0-1.4v0c0.1-3.3,1.2-8,5.2-8.4c4.2-0.5,5,5.5,5.1,8.4
		c0,2-0.2,4.1-1.1,6C28.8,25.7,27.1,27.9,25.1,28L25.1,28z M62.7,4.9C62.7,5,62.7,5,62.7,4.9c-0.5,0.5-0.9,1.1-1.2,1.7
		c-0.8,1.5-1.4,3.1-1.8,4.7c-0.4,1.6-0.8,3.2-1,4.9c1.2-1.6,2.2-3.4,3.1-5C62.9,9.4,64.4,6.8,62.7,4.9L62.7,4.9L62.7,4.9z M58.6,23
		c0.1,0.9,0.1,3.2,1.2,3.7c0.2,0.1,0.3,0.1,0.4,0.1c0.2-0.2,0.3-0.5,0.4-0.7c0.7-1.5,1.5-3.7,1-5.5c-0.2-0.9-0.9-2.2-1.9-1.5
		c-0.4,0.5-0.9,1-1.4,1.5C58.4,21.4,58.5,22.2,58.6,23L58.6,23L58.6,23z M49.3,15.3c0.1-0.8-0.1-2.1-1.1-2.4l0,0
		c-0.3,0.5-0.5,1-0.7,1.6c-0.5,1.5-0.7,3.1-0.7,4.6c0,0.2,0,0.5,0,0.8C48,18.5,49.1,16.9,49.3,15.3L49.3,15.3z M62.2,16.1
		c1.3,0,2.5,0.6,3,2.1c1.1,3,0,6.5-2,9c-1.5,1.9-4.3,3.3-6.6,2.1c-1.4-0.8-1.9-3-2-4.9c-1.9,1.8-4.3,3.2-6.9,3.5
		c-2.1,0.3-3.3-0.9-4-2.5c-2.5,1.5-6.2,2.9-8.8,1.4c-1.9-1.2-2.4-3.9-2.6-6.1c-0.2-3.4,0.2-7.3,2.7-9.8c0.9-0.9,3-2.1,4.5-1.4
		c1.6,0.7,2.2,2.2,2.7,3.6c0.4,1.3-3.3,3.7-3.7,2.2c-0.2-0.8-0.7-2.3-1.7-2.7c-0.1,0.1-0.1,0.3-0.2,0.5c-0.2,0.6-0.4,1.2-0.5,1.8
		c-0.3,2-0.4,4.1,0,6.1c0.3,1.3,0.9,3,2.6,3.4c1.5,0.3,3.1-0.2,4.3-1c-0.3-1.8-0.1-3.8,0-4.9c0.2-2.1,0.9-4.4,2.3-6
		c1.4-1.7,4.1-3,6.2-1.9c2.4,1.4,1.6,4.6,0.3,6.6c-1.4,2.1-3,4-4.8,5.9c0.2,0.7,0.6,1.4,1.1,1.7c2.2,1.5,5.1-1.9,6.4-3.5V21
		c0.2-3.8,0.8-7.5,1.8-11.2c0.8-2.8,2.4-5.7,5.2-7.1c1.9-0.9,5.7-0.8,5.8,2c0.1,2.9-1.4,5.7-3,8.1C63.8,13.9,63,15,62.2,16.1z
		 M72,18.1c-0.2,0.3-0.4,0.6-0.6,0.9c-0.7,1.3-1.1,2.7-1.4,4.2c-0.3,1.4-0.4,2.9-0.2,4.4c0.1,0.6,0.3,1.9,1,2.4
		c0.2-0.3,0.4-0.6,0.6-1c0.7-1.3,1.1-2.8,1.4-4.2C73.2,22.6,73.6,19.9,72,18.1z M76.3,25.5c-0.5,1.9-1.4,3.9-2.7,5.3
		c-1.1,1.2-3.3,2.5-5.1,1.8c-3.8-1.5-2.9-6.8-2.1-9.8c0.8-3.2,3.3-8.9,7.6-7.4C78,16.8,77.2,22.4,76.3,25.5L76.3,25.5z"/>
</g>
</svg>
