<svg xmlns="http://www.w3.org/2000/svg" xmlns:xlink="http://www.w3.org/1999/xlink" width="106" height="45"
     viewBox="0 0 78 33">
    <defs>
        <path id="a" d="M0 0h77.016v32.98H0z"/>
    </defs>
    <g fill="none" fill-rule="evenodd">
        <mask id="b" fill="#fff">
            <use xlink:href="#a"/>
        </mask>
        <path fill="#FEFEFE" d="M27.014 18.999c-.19-2.157-.594-4.634-2.632-5.925-.14.358-.248.763-.322 1.124-.315 1.494-.326 3.03-.182 4.51.147 1.427.413 2.89 1.053 4.184.262.523.856 1.648 1.627 1.753.14-.364.246-.78.32-1.166.295-1.471.26-3.043.137-4.481zm-1.924 9.017c-1.83.128-2.94-1.024-3.643-2.585-.744 1.795-1.822 3.387-3.338 3.679-2.064.389-3.473-1.253-4.288-2.83-1.114-2.15-1.856-4.477-2.352-6.844-.1 1.62-.33 3.245-.748 4.839-.872 3.287-2.457 7.535-6.058 8.578-2.273.65-4.27-1.276-4.642-3.383-.155-.9.574-2.118 1.28-2.803.513-.498 1.532-1.016 1.673-.093.124.883.607 1.72 1.387 2.15.486.283 1.575.74 2.18.15.948-.895 1.17-2.89 1.335-4.01.26-1.663.368-3.315.343-4.946-.108-6.066-1.093-12.63 2.154-18.163.555-.941 3.58-2.916 3.207-.838 0 .012-.06.46-.083.796-.034.462-.055.918-.068 1.39-.016 1.166 0 2.342.08 3.483.195 2.825.473 5.72.965 8.458.475 2.569 1.183 5.126 2.15 7.559.407 1.014 1.543 3.149 3.005 3.013.166-.01.365-1.25.443-1.87.177-1.476.237-2.69.257-4.236-.02-.417-.016-.893.007-1.391v-.003c.103-3.258 1.243-7.962 5.245-8.391 4.21-.451 5.024 5.493 5.055 8.392.028 2.015-.227 4.125-1.118 6.048-.72 1.54-2.416 3.705-4.43 3.853l.002-.002zM62.72 4.934c-.03.017-.04.034-.065.059a8.5 8.5 0 0 0-1.085 1.599c-.805 1.476-1.406 3.05-1.845 4.663a41.756 41.756 0 0 0-1.003 4.865c1.18-1.597 2.213-3.351 3.144-5.015.985-1.75 2.53-4.307.855-6.17v-.001zm-4.167 18.095c.09.868.147 3.19 1.24 3.726.15.076.29.09.39.09.15-.205.347-.542.43-.71.74-1.532 1.45-3.74 1.038-5.538-.214-.947-.89-2.177-1.85-1.55-.45.519-.91 1.03-1.375 1.529.005.825.048 1.648.128 2.454v-.001zm-9.258-7.723c.105-.781-.072-2.124-1.118-2.398l-.013.02c-.3.47-.516 1.04-.682 1.556-.496 1.464-.694 3.05-.708 4.588-.002.248-.005.52.005.806 1.212-1.393 2.294-2.955 2.515-4.572h.001zm12.903.78c1.28.012 2.51.6 3.038 2.059 1.112 3.03.025 6.506-1.96 8.968-1.507 1.867-4.343 3.349-6.635 2.06-1.395-.781-1.86-2.96-1.965-4.885-1.904 1.77-4.273 3.17-6.88 3.523-2.092.29-3.34-.864-4.004-2.466-2.538 1.524-6.195 2.94-8.8 1.37-1.946-1.17-2.448-3.933-2.558-6.112-.178-3.388.152-7.263 2.74-9.821.902-.891 2.995-2.14 4.524-1.445 1.63.74 2.238 2.154 2.658 3.582.396 1.335-3.29 3.664-3.747 2.235-.23-.755-.664-2.306-1.7-2.716-.064.144-.13.303-.19.454a9.29 9.29 0 0 0-.474 1.818c-.304 1.976-.415 4.097.04 6.06.302 1.315.89 3.036 2.59 3.372 1.48.29 3.052-.191 4.34-.964-.267-1.821-.138-3.775-.004-4.934.23-2.144.884-4.36 2.283-6.04 1.423-1.713 4.12-3.023 6.213-1.85 2.43 1.363 1.57 4.635.274 6.566-1.44 2.14-2.997 4.019-4.803 5.89.222.674.567 1.41 1.065 1.734 2.23 1.466 5.087-1.895 6.44-3.502v-.064c.154-3.8.756-7.5 1.82-11.19.82-2.83 2.44-5.712 5.203-7.057 1.91-.934 5.698-.788 5.845 1.985.15 2.89-1.432 5.685-3.033 8.074-.736 1.09-1.502 2.225-2.32 3.296zm9.788 1.968c-.22.282-.428.62-.61.937-.687 1.283-1.13 2.748-1.405 4.204-.26 1.418-.415 2.922-.188 4.427.094.609.33 1.942 1 2.36.222-.285.435-.627.613-.96.68-1.286 1.085-2.792 1.365-4.222.436-2.196.887-4.866-.775-6.746zm4.31 7.43c-.535 1.944-1.354 3.857-2.69 5.3-1.08 1.177-3.254 2.528-5.095 1.776-3.756-1.531-2.855-6.781-2.103-9.824.784-3.16 3.252-8.943 7.608-7.373C78 16.8 77.16 22.379 76.296 25.485z" mask="url(#b)"/>
    </g>
</svg>
