<svg xmlns="http://www.w3.org/2000/svg" xmlns:xlink="http://www.w3.org/1999/xlink" width="241" height="45"
     viewBox="0 0 86 16">
    <defs>
        <path id="a" d="M.292.548H8.19v4.56H.29z"/>
        <path id="c" d="M.844.635h8.482v4.392H.844z"/>
        <path id="e" d="M.12.79h85.085V8H.12z"/>
    </defs>
    <g fill="none" fill-rule="evenodd">
        <path fill="#FEFEFE" d="M7.671 5.453c-.644 0-1.77.014-2.415.026v-.824l1.603-.127v-2.45H3.22v2.45l1.601.127v.824c-.643-.012-1.763-.026-2.406-.026-.644 0-1.77.014-2.414.026v-.824l1.73-.127V2.033L0 1.913v-.825c.643.013 1.77.027 2.414.027h5.257c.644 0 1.763-.014 2.407-.027v.825l-1.73.12v2.495l1.73.127v.824c-.644-.012-1.763-.026-2.407-.026M34.81 5.453c-.646 0-1.771.014-2.415.026v-.824l1.603-.127v-2.45h-3.641v2.45l1.602.127v.824c-.642-.012-1.762-.026-2.406-.026-.644 0-1.281.014-1.924.026v-.824l1.24-.127V2.033l-1.73-.12v-.825c.644.013 1.77.027 2.414.027h5.257c.643 0 1.065-.014 1.709-.027v.825l-1.032.12v2.495l1.73.127v.824a161.11 161.11 0 0 0-2.407-.026M14.22 1.885c-1.796 0-2.46.53-2.46 1.395 0 .98.865 1.403 2.46 1.403 1.676 0 2.467-.518 2.467-1.402 0-.893-.81-1.396-2.467-1.396m0 3.675c-2.474 0-4.097-.684-4.097-2.28 0-1.608 1.65-2.28 4.097-2.28 2.428 0 4.11.704 4.11 2.28 0 1.515-1.602 2.28-4.11 2.28M37.951 2.033v3.42h1.54l3.615-3.124v3.124s2.541.007 3.117.026v-.824l-1.629-.127V2.033l1.643-.12v-.825a56.63 56.63 0 0 1-1.689.027c-.524 0-1.07-.014-1.367-.027L39.44 4.246V1.088c-.604.014-1.8.014-2.415 0v.825l.927.12z"/>
        <g transform="translate(46 .452)">
            <mask id="b" fill="#fff">
                <use xlink:href="#a"/>
            </mask>
            <path fill="#FEFEFE" d="M4.63 5.108c-2.997 0-4.338-.636-4.338-2.272C.292 1.234 2.005.52 4.172.549c1.242.017 2.347.27 2.803.852l.263-.845h.912v1.972H7.065c-.337-.644-1.268-1.04-2.75-1.04-1.422 0-2.374.275-2.374 1.348 0 1.04 1.012 1.334 2.34 1.334 1.37 0 2.418-.3 2.753-1H8.19c.047 1.195-1.14 1.938-3.56 1.938" mask="url(#b)"/>
        </g>
        <path fill="#FEFEFE" d="M62.297 5.453c-.642 0-1.77.014-2.413.026v-.824l1.602-.127v-.892h-3.642v.892l1.603.127v.824c-.643-.012-1.764-.026-2.407-.026-.642 0-1.77.014-2.413.026v-.824l1.73-.127V2.033l-1.73-.12v-.825c.643.013 1.77.027 2.413.027.644 0 1.764-.014 2.407-.027v.825l-1.603.12v.899h3.642v-.9l-1.602-.12v-.824c.644.013 1.77.027 2.413.027.644 0 1.044-.014 1.687-.027v.825l-1.01.12v2.495l1.73.127v.824a161.11 161.11 0 0 0-2.406-.026M69.645 4.534h-2.058V3.367h2.058c.28 0 .924-.02 1.34.097.27.076.417.228.397.52-.013.209-.134.379-.401.461-.266.082-.675.089-1.336.089m.44-1.884h-2.498v-.61l1.806-.128v-.824c-.677.02-1.758.026-2.437.026-.69 0-1.863-.006-2.546-.026v.824l1.695.128v2.494l-.948.121v.824c.637-.013.989-.026 1.619-.026.637 0 1.757.013 2.394.026h.576c.419 0 .903-.004 1.386-.061.454-.055.91-.155 1.242-.419.297-.236.463-.569.463-1.022 0-.457-.178-.758-.455-.956-.63-.447-1.568-.371-2.296-.371"/>
        <path fill="#FEFEFE" d="M74.843 5.453c-.737 0-1.089.007-1.827.026v-.824l.995-.127V2.033l-1.931-.12v-.825c.738.013 2.026.027 2.763.027.737 0 1.963-.014 2.701-.027v.825l-1.943.12v2.495l.827.127v.824c-.738-.02-.848-.026-1.585-.026"/>
        <g transform="translate(76 .452)">
            <mask id="d" fill="#fff">
                <use xlink:href="#c"/>
            </mask>
            <path fill="#FEFEFE" d="M9.322 5.027c-1.114-.02-3.051-.026-4.164-.026-1.115 0-3.202.006-4.315.026v-.824l1.928-.127V1.583l-.806-.12V.635C3.07.65 4.03.663 5.136.663 6.244.663 8.216.65 9.322.635L9.314 2.3h-.925l-.194-.791-3.89.073v.938l1.57-.025.046-.505h1.074c-.006.254-.02.585-.02.84 0 .254.014.584.02.845H5.921l-.046-.51-1.57-.02v.933l3.91.08.207-1.073h.904l-.005 1.943z" mask="url(#d)"/>
        </g>
        <path fill="#FEFEFE" d="M20.099 4.557c.813.005 1.59.007 2.187.007l2.288-.004a.267.267 0 0 0-.013-.025l-2.174-2.478-.184.001-2.1 2.477-.004.022zm6.063 1.591l-.14-.733-2.12.067-2.426.007-2.12-.074-.14.733h-1V4.68l.76-.15 2.223-2.504-1.995-.138v-.772c.869.012 2.286.02 3.162.02.86 0 .116-.008.985-.02l.208.237 2.886 3.198.717.13v1.468h-1z"/>
        <g transform="translate(0 7.452)">
            <mask id="f" fill="#fff">
                <use xlink:href="#e"/>
            </mask>
            <path fill="#FEFEFE" d="M2.473 2.401v4.607h2.075l4.87-4.21v4.21s3.03.01 3.808.037V5.934l-1.803-.173v-3.36l1.89-.162V1.128c-.397.018-1.167.056-1.871.056-.705 0-1.525-.038-1.922-.056L4.477 5.383V1.127c-.431.03-1.097.036-1.75.036-.576 0-2.218-.006-2.606-.036V2.24l2.352.163zm59.75 0v4.607h2.076l4.869-4.21v4.21s2.38.01 3.158.037V5.934l-1.152-.173v-3.36l2.458-.162V1.128a78.6 78.6 0 0 1-2.44.056c-.705 0-1.524-.038-1.922-.056l-5.043 4.255V1.127c-.431.03-1.097.036-1.75.036a23.945 23.945 0 0 1-1.53-.036V2.24l1.276.163zM26.809 5.814a538.81 538.81 0 0 0 5.748.002l-.02-.034-2.716-3.402h-.254l-2.753 3.402s0 .013-.005.032zm7.93 2.187l-.193-1.007-2.912.091-3.065.008-2.845-.1-.194 1.008h-1.374V5.93c.307.004.66-.127 1.04-.124l.006-.032 2.986-3.438-2.745-.192V1.057c1.947.028 3.755.056 5.702.028l3.98 4.718.988.127V8h-1.374zm-12.81-4.415v-.037c.634-.043 1.309-.361 1.362-1.104.052-.73-.42-1.145-1.098-1.341-.861-.25-2.02-.305-2.616-.312-2.416-.035-3.448.375-3.92.847l-.111-.645h-1.223l.015 2.128H15.7c.014-.366.236-.625.533-.773.286-.143.618-.212.96-.25a20.137 20.137 0 0 1 1.872-.114c.248 0 1.085-.002 1.64.13.313.073.529.181.539.432.012.26-.107.426-.338.534-.333.155-.702.146-1.536.146h-2.377v.986h2.333c.983 0 1.438-.006 1.854.128.396.128.547.375.53.681-.02.382-.387.554-.748.683-.502.176-1.478.205-2.185.194-.685-.008-1.473-.077-1.96-.213-.433-.12-.95-.287-1.106-.846h-1.424l.005 2.195h1.12l.115-.614c.632.514 2.066.793 3.264.793.969.02 2.769.041 3.906-.583.594-.327 1.03-.83 1.023-1.604-.01-1.013-.86-1.433-1.792-1.442zm58.87.082l-2.064.004a10.036 10.036 0 0 1-1.754-.1c-.348-.054-.666-.239-.666-.635.016-.283.133-.51.627-.58.363-.052.914-.018 1.697-.003l2.16.046v1.268zm4.406-1.43V1.136c-.842.018-2.245.038-3.087.038-1.295 0-2.61-.038-3.905-.038-1.12 0-2.071.016-2.738.206-.891.256-1.283.843-1.283 1.523 0 1.03.799 1.433 1.674 1.63.177.038.357.067.538.09l-1.907 1.19-1.53.17v1.083a61.03 61.03 0 0 1 2.182-.035c.754 0 2.036-.013 2.78.013v-1.06l-1.366-.163 1.605-1.11c.324 0 .694-.022 1.115-.022H80.8v1.103l-2.014.17v1.082a96.936 96.936 0 0 1 2.75-.034c.995 0 2.674.008 3.669.034V5.904l-2.352-.17V2.4l2.352-.161zM58.11 6.97c-.862 0-2.367.019-3.227.035V5.904l2.142-.17V4.542H52.16v1.192l2.142.17v1.101c-.862-.016-2.358-.034-3.22-.034-.86 0-1.25.018-2.11.034V5.904l1.198-.17V2.4l-2.38-.161V1.136c.86.018 2.433.037 3.293.037.86 0 2.357-.02 3.219-.038V2.24l-2.142.16v1.2h4.866V2.4l-2.142-.16V1.136c.86.018 2.365.037 3.227.037.859 0 1.359-.02 2.219-.038V2.24l-1.315.16v3.335l2.312.17v1.101c-.86-.016-2.357-.034-3.216-.034zM40.497 2.286l-2.975-.195V1.058c1.01.015 2.09.03 3.1.035.893.006 1.787.004 2.678-.008l4.145 4.649.93.17v1.101a54.839 54.839 0 0 0-2.07-.034c-.876 0-2.408.008-3.278.034V5.904l1.926-.162-.617-.699h-4.763l-.551.7 1.79.16v1.103c-.742-.027-2.127-.035-2.88-.035-.744 0-.627.008-1.371.034V5.904l.86-.17 3.076-3.45zm1.45.033h-.127L40.218 4.2h3.392l-1.662-1.882z" mask="url(#f)"/>
        </g>
    </g>
</svg>
