<svg xmlns="http://www.w3.org/2000/svg" viewBox="0 0 240 41" width="241" height="45">
<g>
	<g id="Group" transform="translate(0.000000, -1.000000)">
		<path id="Shape" fill="#FEFEFE" d="M21.5,13.5c-1.8,0-5,0-6.8,0.1v-2.3l4.5-0.4V4H9v6.9l4.5,0.4v2.3c-1.8,0-4.9-0.1-6.7-0.1
			s-5,0-6.8,0.1v-2.3l4.8-0.4v-7L0,3.6V1.2c1.8,0,5,0.1,6.8,0.1h14.7c1.8,0,4.9,0,6.7-0.1v2.3l-4.8,0.3v7l4.8,0.4v2.3
			C26.4,13.5,23.3,13.5,21.5,13.5"/>
		<path id="Shape_1_" fill="#FEFEFE" d="M97.5,13.5c-1.8,0-5,0-6.8,0.1v-2.3l4.5-0.4V4H85.1v6.9l4.5,0.4v2.3c-1.8,0-4.9-0.1-6.7-0.1
			c-1.8,0-3.6,0-5.4,0.1v-2.3l3.5-0.4v-7l-4.8-0.3V1.2c1.8,0,5,0.1,6.8,0.1h14.7c1.8,0,3,0,4.8-0.1v2.3l-2.9,0.3v7l4.8,0.4v2.3
			C102,13.5,99.8,13.5,97.5,13.5"/>
		<path id="Shape_2_" fill="#FEFEFE" d="M39.8,3.5c-5,0-6.9,1.5-6.9,3.9c0,2.7,2.4,3.9,6.9,3.9c4.7,0,6.9-1.5,6.9-3.9
			C46.8,4.9,44.5,3.5,39.8,3.5 M39.8,13.8c-6.9,0-11.5-1.9-11.5-6.4C28.4,2.9,33,1,39.8,1s11.5,2,11.5,6.4
			C51.4,11.6,46.9,13.8,39.8,13.8"/>
		<path id="Shape_3_" fill="#FEFEFE" d="M106.4,3.9v9.6h4.3l10.1-8.8v8.8c0,0,7.1,0,8.7,0.1v-2.3l-4.5-0.4v-7l4.6-0.3V1.2
			c-1.6,0-3.2,0.1-4.7,0.1s-3,0-3.8-0.1L110.6,10V1.2c-1.7,0-5,0-6.8,0v2.3L106.4,3.9z"/>
		<path id="Shape_4_" fill="#FEFEFE" d="M141.9,13.8c-8.4,0-12.2-1.8-12.2-6.4c0-4.5,4.8-6.5,10.9-6.4c3.5,0,6.6,0.8,7.9,2.4
			l0.7-2.4h2.6v5.5h-3c-0.9-1.8-3.6-2.9-7.7-2.9c-4,0-6.7,0.8-6.7,3.8c0,2.9,2.8,3.7,6.6,3.7s6.8-0.8,7.7-2.8h3.2
			C152,11.7,148.7,13.8,141.9,13.8"/>
		<path id="Shape_5_" fill="#FEFEFE" d="M174.6,13.5c-1.8,0-5,0-6.8,0.1v-2.3l4.5-0.4V8.4h-10.2v2.5l4.5,0.4v2.3
			c-1.8,0-4.9-0.1-6.7-0.1c-1.8,0-5,0-6.8,0.1v-2.3l4.8-0.4v-7l-4.8-0.3V1.2c1.8,0,5,0.1,6.8,0.1c1.8,0,4.9,0,6.7-0.1v2.3l-4.5,0.3
			v2.5h10.2V3.9l-4.5-0.3V1.2c1.8,0,5,0.1,6.8,0.1c1.8,0,2.9,0,4.7-0.1v2.3l-2.8,0.3v7l4.8,0.4v2.3
			C179.1,13.5,176.8,13.5,174.6,13.5"/>
		<path id="Shape_6_" fill="#FEFEFE" d="M195.2,10.9h-5.8V7.6h5.8c0.8,0,2.6-0.1,3.8,0.3c0.8,0.2,1.2,0.6,1.1,1.5
			c0,0.6-0.4,1.1-1.1,1.3C198.2,10.9,197,10.9,195.2,10.9 M196.4,5.6h-7V3.9l5.1-0.4V1.2c-1.9,0.1-4.9,0.1-6.8,0.1
			c-1.9,0-5.2,0-7.1-0.1v2.3l4.7,0.4v7l-2.7,0.3v2.3c1.8,0,2.8-0.1,4.5-0.1c1.8,0,4.9,0,6.7,0.1h1.6c1.2,0,2.5,0,3.9-0.2
			c1.3-0.2,2.6-0.4,3.5-1.2c0.8-0.7,1.3-1.6,1.3-2.9s-0.5-2.1-1.3-2.7C201.1,5.4,198.4,5.6,196.4,5.6"/>
		<path id="Shape_7_" fill="#FEFEFE" d="M209.7,13.5c-2.1,0-3.1,0-5.1,0.1v-2.3l2.8-0.4v-7L202,3.6V1.2c2.1,0,5.7,0.1,7.7,0.1
			s5.5,0,7.6-0.1v2.3l-5.4,0.3v7l2.3,0.4v2.3C212.1,13.5,211.8,13.5,209.7,13.5"/>
		<path id="Shape_8_" fill="#FEFEFE" d="M239.1,13.6c-3.1-0.1-8.5-0.1-11.7-0.1c-3.1,0-9,0-12.1,0.1v-2.3l5.4-0.4v-7l-2.3-0.3V1.2
			c3.1,0,5.8,0.1,8.9,0.1c3.1,0,8.6,0,11.7-0.1v4.7h-2.6l-0.5-2.2L225,3.9v2.6l4.4-0.1l0.1-1.4h3c0,0.7-0.1,1.6-0.1,2.4
			c0,0.7,0,1.6,0.1,2.4h-3l-0.1-1.4L225,8.3v2.6l11,0.2l0.6-3h2.5V13.6z"/>
		<path id="Shape_9_" fill="#FEFEFE" d="M56.3,11c2.3,0,4.5,0,6.1,0h6.4c0,0,0,0,0-0.1L62.7,4h-0.5L56.3,11
			C56.3,10.9,56.3,11,56.3,11z M73.3,15.4l-0.4-2.1L67,13.6h-6.8l-5.9-0.2l-0.4,2.1H51v-4.1l2.1-0.4l6.2-7l-5.6-0.4V1.3
			c2.4,0,6.4,0.1,8.9,0.1c2.4,0,0.3,0,2.8-0.1L66,2l8.1,9l2,0.4v4.1L73.3,15.4z"/>
		<path id="Shape_10_" fill="#FEFEFE" d="M6.9,25.8v12.9h5.8l13.6-11.8v11.8c0,0,8.5,0,10.7,0.1v-3.1l-5-0.5v-9.4l5.3-0.5v-3.1
			c-1.1,0.1-3.3,0.2-5.2,0.2c-2,0-4.3-0.1-5.4-0.2l-14.2,12v-12c-1.2,0.1-3.1,0.1-4.9,0.1c-1.6,0-6.2,0-7.3-0.1v3.1L6.9,25.8z"/>
		<path id="Shape_11_" fill="#FEFEFE" d="M174.4,25.8v12.9h5.8l13.6-11.8v11.8c0,0,6.7,0,8.8,0.1v-3.1l-3.2-0.5v-9.4l6.9-0.5v-3.1
			c-2.3,0.1-4.6,0.1-6.8,0.2c-2,0-4.3-0.1-5.4-0.2l-14.1,12v-12c-1.2,0.1-3.1,0.1-4.9,0.1c-1.4,0-2.9,0-4.3-0.1v3.1L174.4,25.8z"/>
		<path id="Shape_12_" fill="#FEFEFE" d="M75.1,35.4c5.4,0,10.7,0,16.1,0l-0.1-0.1l-7.6-9.5h-0.7L75.1,35.4
			C75.1,35.3,75.1,35.3,75.1,35.4z M97.3,41.5l-0.5-2.8L88.6,39H80l-8-0.3l-0.5,2.8h-3.9v-5.8c0.9,0,1.8-0.4,2.9-0.3v-0.1l8.4-9.6
			l-7.7-0.5v-3c5.5,0.1,10.5,0.2,16,0.1l11.2,13.2l2.8,0.4v5.8L97.3,41.5z"/>
		<path id="Shape_13_" fill="#FEFEFE" d="M61.5,29.1V29c1.8-0.1,3.7-1,3.8-3.1c0.1-2-1.2-3.2-3.1-3.8c-2.4-0.7-5.7-0.9-7.3-0.9
			c-6.8-0.1-9.7,1.1-11,2.4l-0.3-1.8h-3.4v6H44c0-1,0.7-1.8,1.5-2.2s1.7-0.6,2.7-0.7c1.7-0.2,3.5-0.3,5.2-0.3c0.7,0,3,0,4.6,0.4
			c0.9,0.2,1.5,0.5,1.5,1.2c0,0.7-0.3,1.2-0.9,1.5c-0.9,0.4-2,0.4-4.3,0.4h-6.7v2.8h6.5c2.8,0,4,0,5.2,0.4c1.1,0.4,1.5,1.1,1.5,1.9
			c-0.1,1.1-1.1,1.6-2.1,1.9c-1.4,0.5-4.1,0.6-6.1,0.5c-1.9,0-4.1-0.2-5.5-0.6c-1.2-0.3-2.7-0.8-3.1-2.4h-4v6.2h3.1l0.3-1.7
			c1.8,1.4,5.8,2.2,9.1,2.2c2.7,0.1,7.8,0.1,10.9-1.6c1.7-0.9,2.9-2.3,2.9-4.5C66.4,30.3,64.1,29.2,61.5,29.1z"/>
		<path id="Shape_14_" fill="#FEFEFE" d="M226.4,29.4h-5.8c-1.6,0.1-3.3,0-4.9-0.3c-1-0.2-1.9-0.7-1.9-1.8c0-0.8,0.4-1.4,1.8-1.6
			c1-0.1,2.6-0.1,4.8,0l6.1,0.1C226.4,25.8,226.4,29.4,226.4,29.4z M238.8,25.4v-3.1c-2.4,0.1-6.3,0.1-8.7,0.1
			c-3.6,0-7.3-0.1-10.9-0.1c-3.1,0-5.8,0-7.7,0.6c-2.5,0.7-3.6,2.4-3.6,4.3c0,2.9,2.2,4,4.7,4.6c0.5,0.1,1,0.2,1.5,0.3l-5.3,3.3
			l-4.3,0.5v3c2-0.1,4.1-0.1,6.1-0.1c2.1,0,5.7,0,7.8,0v-3l-3.8-0.5l4.5-3.1c0.9,0,1.9-0.1,3.1-0.1h4.3v3.1l-5.6,0.5v3
			c2.6-0.1,5.1-0.1,7.7-0.1c2.8,0,7.5,0,10.3,0.1v-3.1l-6.6-0.5v-9.3L238.8,25.4z"/>
		<path id="Shape_15_" fill="#FEFEFE" d="M162.8,38.6c-2.4,0-6.6,0.1-9,0.1v-3.1l6-0.5v-3.3h-13.6v3.3l6,0.5v3.1
			c-2.4,0-6.6-0.1-9-0.1c-2.4,0-3.5,0.1-5.9,0.1v-3.1l3.4-0.5v-9.3l-6.7-0.5v-3.1c2.4,0.1,6.8,0.1,9.2,0.1c2.4,0,6.6-0.1,9-0.1v3.1
			l-6,0.4v3.4h13.6v-3.4l-6-0.4v-3.1c2.4,0.1,6.6,0.1,9,0.1c2.4,0,3.8-0.1,6.2-0.1v3.1l-3.7,0.4V35l6.5,0.5v3.1
			C169.4,38.7,165.3,38.6,162.8,38.6z"/>
		<path id="Shape_16_" fill="#FEFEFE" d="M113.5,25.5l-8.3-0.5v-3c2.8,0,5.9,0.1,8.7,0.1c2.5,0,5,0,7.5,0l11.6,13l2.6,0.5v3.1
			c-1.9-0.1-3.9-0.1-5.8-0.1c-2.5,0-6.7,0-9.2,0.1v-3.1l5.4-0.5l-1.7-2H111l-1.5,2l5,0.4v3.1c-2.1-0.1-6-0.1-8.1-0.1s-1.8,0-3.8,0.1
			v-3.1L105,35L113.5,25.5z M117.5,25.6h-0.4l-4.5,5.3h9.5L117.5,25.6z"/>
	</g>
</g>
</svg>
