<svg xmlns="http://www.w3.org/2000/svg" xmlns:xlink="http://www.w3.org/1999/xlink" width="168" height="45"
     viewBox="0 0 64 17">
    <defs>
        <path id="a" d="M0 0h12.81v13H0z"/>
    </defs>
    <g fill="none" fill-rule="evenodd">
        <path fill="#FFF" d="M16 11.839V5.16h5.32v6.678h-1.46v-5.32h-2.4v5.32H16zm14.007-1.313c.612.023 1.012-.23 1.153-.783.4-1.45.448-3.085.66-4.582h4.402v6.678h-1.46v-5.32h-1.648c-.094.922-.259 2.557-.541 3.57-.306 1.151-1.271 1.865-2.566 1.796v-1.359zm9.581 1.313h-1.389V5.16h1.46V9.26l2.707-4.099h1.389v6.678h-1.46V7.74l-2.707 4.099zm7.533 0v-5.32h-1.883V5.162h5.202V6.52h-1.883v5.319h-1.436zm6.168-4.007h2.684v1.29h-2.684v1.404h3.178v1.359h-4.638V5.16h4.614V6.52h-3.178v1.312h.024zm6.285-2.67l1.272 2.072 1.27-2.073h1.72l-2.072 3.2L64 11.84h-1.718L60.846 9.49 59.41 11.84H57.69l2.236-3.477-2.071-3.2h1.718zM24.404 8.5c0 1.105.236 2.141 1.672 2.141s1.67-1.036 1.67-2.141-.234-2.141-1.67-2.141-1.672 1.036-1.672 2.141zm-1.46 0c0-1.888.801-3.5 3.108-3.5s3.107 1.612 3.107 3.5-.8 3.5-3.107 3.5c-2.307 0-3.107-1.612-3.107-3.5z"/>
        <g transform="translate(0 2)">
            <mask id="b" fill="#fff">
                <use xlink:href="#a"/>
            </mask>
            <path fill="#FFF" d="M10.896 1.49c.284.117.78.85.662 1.654a4.236 4.236 0 0 1-1.867.874v5.153h1.914c0 .78-.118 1.418-.26 1.655H7.871V4.089H5.413v4.018c0 2.01-1.135 3.026-2.6 3.026-.402 0-.898-.047-1.324-.166-.189-.26-.284-1.04-.307-2.009.969.473 2.269.686 2.387-.827V4.349c-1.465.166-2.009 1.182-2.505 1.867 0-.921.07-1.749.094-2.316 1.017-1.087 2.127-1.584 4.35-1.584h3.167c.78 0 1.536-.283 2.221-.827M6.406 0C5.294 0 3.474.047 2.41.165.945.331.355 1.111.213 2.482A39.323 39.323 0 0 0 0 6.5c0 1.418.024 2.978.213 4.018.236 1.371.874 2.104 2.198 2.317C3.475 13 5.413 13 6.405 13c.993 0 2.955 0 3.995-.165 1.324-.213 1.962-.946 2.198-2.317.19-1.04.213-2.647.213-4.018s-.118-3.144-.213-3.994C12.456 1.087 11.842.378 10.4.189 9.336.047 7.516 0 6.405 0" mask="url(#b)"/>
        </g>
    </g>
</svg>
