<svg xmlns="http://www.w3.org/2000/svg" viewBox="0 0 168 34.1" width="168" height="45">
    <polygon fill="#FFFFFF" points="42,25.8 42,8.3 56,8.3 56,25.8 52.1,25.8 52.1,11.9 45.8,11.9 45.8,25.8 42,25.8 "/>
    <path fill="#FFFFFF" d="M78.8,22.4c1.6,0.1,2.7-0.6,3-2.1c1.1-3.8,1.2-8.1,1.7-12h11.6v17.5h-3.8v-14h-4.3c-0.2,2.4-0.7,6.7-1.4,9.4
	c-0.8,3-3.3,4.9-6.7,4.7C78.8,25.9,78.8,22.4,78.8,22.4z"/>
    <polygon fill="#FFFFFF" points="103.9,25.8 100.3,25.8 100.3,8.3 104.1,8.3 104.1,19.1 111.2,8.3 114.9,8.3 114.9,25.8 111,25.8
	111,15.1 "/>
    <polygon fill="#FFFFFF" points="123.7,25.8 123.7,11.9 118.7,11.9 118.7,8.3 132.4,8.3 132.4,11.9 127.5,11.9 127.5,25.8 "/>
    <polygon fill="#FFFFFF" points="139.9,15.3 146.9,15.3 146.9,18.7 139.9,18.7 139.9,22.4 148.2,22.4 148.2,25.9 136.1,25.9
	136.1,8.3 148.2,8.3 148.2,11.9 139.8,11.9 139.8,15.3 139.9,15.3 "/>
    <polygon fill="#FFFFFF" points="156.4,8.3 159.7,13.7 163.1,8.3 167.6,8.3 162.1,16.7 168,25.8 163.5,25.8 159.7,19.7 156,25.8
	151.4,25.8 157.3,16.7 151.9,8.3 156.4,8.3 "/>
    <path fill="#FFFFFF" d="M64.1,17.1c0,2.9,0.6,5.6,4.4,5.6s4.4-2.7,4.4-5.6s-0.6-5.6-4.4-5.6S64.1,14.2,64.1,17.1z M60.2,17.1
	c0-5,2.1-9.2,8.2-9.2c6.1,0,8.2,4.2,8.2,9.2s-2.1,9.2-8.2,9.2C62.3,26.2,60.2,22,60.2,17.1L60.2,17.1z"/>
    <path fill="#FFFFFF" d="M28.6,3.9c0.7,0.3,2,2.2,1.7,4.3c-1.4,1.2-3.1,1.9-4.9,2.3v13.5h5c0,2-0.3,3.7-0.7,4.3h-9.1V10.7h-6.5v10.5
	c0,5.3-3,7.9-6.8,7.9c-1.1,0-2.4-0.1-3.5-0.4c-0.5-0.7-0.7-2.7-0.8-5.3c2.5,1.2,6,1.8,6.3-2.2v-9.9c-3.8,0.4-5.3,3.1-6.6,4.9
	c0-2.4,0.2-4.6,0.2-6.1c2.7-2.9,5.6-4.2,11.4-4.2h8.3C24.8,6.1,26.8,5.3,28.6,3.9 M16.8,0C13.9,0,9.1,0.1,6.3,0.4
	C2.5,0.9,0.9,2.9,0.6,6.5C0.2,10,0,13.5,0,17.1c0,3.7,0.1,7.8,0.6,10.5c0.6,3.6,2.3,5.5,5.8,6.1c2.8,0.4,7.9,0.4,10.5,0.4
	c2.6,0,7.8,0,10.5-0.4c3.5-0.6,5.2-2.5,5.8-6.1c0.5-2.7,0.6-6.9,0.6-10.5s-0.3-8.3-0.6-10.5c-0.4-3.7-2-5.6-5.8-6.1
	C24.5,0.1,19.7,0,16.8,0"/>
</svg>