<svg xmlns="http://www.w3.org/2000/svg" xmlns:xlink="http://www.w3.org/1999/xlink" width="905" height="195" viewBox="0 0 905 195">
    <defs>
        <path id="a" d="M0 .7h423.92v137.683H0z"/>
        <path id="c" d="M.642.673h49.696v49.73H.642z"/>
        <path id="e" d="M.123.215H424.29v155.77H.123z"/>
        <path id="g" d="M68.27.215C30.608.379.124 30.92.124 68.573v.765c0 37.753 30.646 68.359 68.45 68.359h256.521l36.043 18.287.59-18.541c35.048-2.983 62.563-32.333 62.563-68.105v-.765c0-37.652-30.484-68.194-68.148-68.358"/>
        <path id="i" d="M68.27.215C30.608.379.124 30.92.124 68.573v.765c0 37.753 30.646 68.359 68.45 68.359h256.521l36.043 18.287.59-18.541c35.048-2.983 62.563-32.333 62.563-68.105v-.765c0-37.652-30.484-68.194-68.148-68.358"/>
        <path id="k" d="M68.27.215C30.608.379.124 30.92.124 68.573v.765c0 37.753 30.646 68.359 68.45 68.359h256.521l36.043 18.287.59-18.541c35.048-2.983 62.563-32.333 62.563-68.105v-.765c0-37.652-30.484-68.194-68.148-68.358"/>
        <path id="m" d="M68.27.215C30.608.379.124 30.92.124 68.573v.765c0 37.753 30.646 68.359 68.45 68.359h256.521l36.043 18.287.59-18.541c35.048-2.983 62.563-32.333 62.563-68.105v-.765c0-37.652-30.484-68.194-68.148-68.358"/>
        <path id="o" d="M68.27.215C30.608.379.124 30.92.124 68.573v.765c0 37.753 30.646 68.359 68.45 68.359h256.521l36.043 18.287.59-18.541c35.048-2.983 62.563-32.333 62.563-68.105v-.765c0-37.652-30.484-68.194-68.148-68.358"/>
        <path id="q" d="M68.27.215C30.608.379.124 30.92.124 68.573v.765c0 37.753 30.646 68.359 68.45 68.359h256.521l36.043 18.287.59-18.541c35.048-2.983 62.563-32.333 62.563-68.105v-.765c0-37.652-30.484-68.194-68.148-68.358"/>
        <path id="s" d="M68.27.215C30.608.379.124 30.92.124 68.573v.765c0 37.753 30.646 68.359 68.45 68.359h256.521l36.043 18.287.59-18.541c35.048-2.983 62.563-32.333 62.563-68.105v-.765c0-37.652-30.484-68.194-68.148-68.358"/>
        <path id="u" d="M68.27.215C30.608.379.124 30.92.124 68.573v.765c0 37.753 30.646 68.359 68.45 68.359h256.521l36.043 18.287.59-18.541c35.048-2.983 62.563-32.333 62.563-68.105v-.765c0-37.652-30.484-68.194-68.148-68.358"/>
        <path id="w" d="M68.27.215C30.608.379.124 30.92.124 68.573v.765c0 37.753 30.646 68.359 68.45 68.359h256.521l36.043 18.287.59-18.541c35.048-2.983 62.563-32.333 62.563-68.105v-.765c0-37.652-30.484-68.194-68.148-68.358"/>
        <path id="y" d="M68.27.215C30.608.379.124 30.92.124 68.573v.765c0 37.753 30.646 68.359 68.45 68.359h256.521l36.043 18.287.59-18.541c35.048-2.983 62.563-32.333 62.563-68.105v-.765c0-37.652-30.484-68.194-68.148-68.358"/>
        <path id="A" d="M68.27.215C30.608.379.124 30.92.124 68.573v.765c0 37.753 30.646 68.359 68.45 68.359h256.521l36.043 18.287.59-18.541c35.048-2.983 62.563-32.333 62.563-68.105v-.765c0-37.652-30.484-68.194-68.148-68.358"/>
        <path id="C" d="M68.27.215C30.608.379.124 30.92.124 68.573v.765c0 37.753 30.646 68.359 68.45 68.359h256.521l36.043 18.287.59-18.541c35.048-2.983 62.563-32.333 62.563-68.105v-.765c0-37.652-30.484-68.194-68.148-68.358"/>
        <path id="E" d="M68.27.215C30.608.379.124 30.92.124 68.573v.765c0 37.753 30.646 68.359 68.45 68.359h256.521l36.043 18.287.59-18.541c35.048-2.983 62.563-32.333 62.563-68.105v-.765c0-37.652-30.484-68.194-68.148-68.358"/>
        <path id="G" d="M68.27.215C30.608.379.124 30.92.124 68.573v.765c0 37.753 30.646 68.359 68.45 68.359h256.521l36.043 18.287.59-18.541c35.048-2.983 62.563-32.333 62.563-68.105v-.765c0-37.652-30.484-68.194-68.148-68.358"/>
        <path id="I" d="M68.27.215C30.608.379.124 30.92.124 68.573v.765c0 37.753 30.646 68.359 68.45 68.359h256.521l36.043 18.287.59-18.541c35.048-2.983 62.563-32.333 62.563-68.105v-.765c0-37.652-30.484-68.194-68.148-68.358"/>
        <path id="K" d="M68.27.215C30.608.379.124 30.92.124 68.573v.765c0 37.753 30.646 68.359 68.45 68.359h256.521l36.043 18.287.59-18.541c35.048-2.983 62.563-32.333 62.563-68.105v-.765c0-37.652-30.484-68.194-68.148-68.358"/>
        <path id="M" d="M68.27.215C30.608.379.124 30.92.124 68.573v.765c0 37.753 30.646 68.359 68.45 68.359h256.521l36.043 18.287.59-18.541c35.048-2.983 62.563-32.333 62.563-68.105v-.765c0-37.652-30.484-68.194-68.148-68.358"/>
        <path id="O" d="M68.27.215C30.608.379.124 30.92.124 68.573v.765c0 37.753 30.646 68.359 68.45 68.359h256.521l36.043 18.287.59-18.541c35.048-2.983 62.563-32.333 62.563-68.105v-.765c0-37.652-30.484-68.194-68.148-68.358"/>
        <path id="Q" d="M68.27.215C30.608.379.124 30.92.124 68.573v.765c0 37.753 30.646 68.359 68.45 68.359h256.521l36.043 18.287.59-18.541c35.048-2.983 62.563-32.333 62.563-68.105v-.765c0-37.652-30.484-68.194-68.148-68.358"/>
        <path id="S" d="M68.27.215C30.608.379.124 30.92.124 68.573v.765c0 37.753 30.646 68.359 68.45 68.359h256.521l36.043 18.287.59-18.541c35.048-2.983 62.563-32.333 62.563-68.105v-.765c0-37.652-30.484-68.194-68.148-68.358"/>
        <path id="U" d="M68.27.215C30.608.379.124 30.92.124 68.573v.765c0 37.753 30.646 68.359 68.45 68.359h256.521l36.043 18.287.59-18.541c35.048-2.983 62.563-32.333 62.563-68.105v-.765c0-37.652-30.484-68.194-68.148-68.358"/>
        <path id="W" d="M68.27.215C30.608.379.124 30.92.124 68.573v.765c0 37.753 30.646 68.359 68.45 68.359h256.521l36.043 18.287.59-18.541c35.048-2.983 62.563-32.333 62.563-68.105v-.765c0-37.652-30.484-68.194-68.148-68.358"/>
        <path id="Y" d="M68.27.215C30.608.379.124 30.92.124 68.573v.765c0 37.753 30.646 68.359 68.45 68.359h256.521l36.043 18.287.59-18.541c35.048-2.983 62.563-32.333 62.563-68.105v-.765c0-37.652-30.484-68.194-68.148-68.358"/>
        <path id="aa" d="M68.27.215C30.608.379.124 30.92.124 68.573v.765c0 37.753 30.646 68.359 68.45 68.359h256.521l36.043 18.287.59-18.541c35.048-2.983 62.563-32.333 62.563-68.105v-.765c0-37.652-30.484-68.194-68.148-68.358"/>
        <path id="ac" d="M68.27.215C30.608.379.124 30.92.124 68.573v.765c0 37.753 30.646 68.359 68.45 68.359h256.521l36.043 18.287.59-18.541c35.048-2.983 62.563-32.333 62.563-68.105v-.765c0-37.652-30.484-68.194-68.148-68.358"/>
        <path id="ae" d="M68.27.215C30.608.379.124 30.92.124 68.573v.765c0 37.753 30.646 68.359 68.45 68.359h256.521l36.043 18.287.59-18.541c35.048-2.983 62.563-32.333 62.563-68.105v-.765c0-37.652-30.484-68.194-68.148-68.358"/>
        <path id="ag" d="M68.27.215C30.608.379.124 30.92.124 68.573v.765c0 37.753 30.646 68.359 68.45 68.359h256.521l36.043 18.287.59-18.541c35.048-2.983 62.563-32.333 62.563-68.105v-.765c0-37.652-30.484-68.194-68.148-68.358"/>
        <path id="ai" d="M68.27.215C30.608.379.124 30.92.124 68.573v.765c0 37.753 30.646 68.359 68.45 68.359h256.521l36.043 18.287.59-18.541c35.048-2.983 62.563-32.333 62.563-68.105v-.765c0-37.652-30.484-68.194-68.148-68.358"/>
        <path id="ak" d="M68.27.215C30.608.379.124 30.92.124 68.573v.765c0 37.753 30.646 68.359 68.45 68.359h256.521l36.043 18.287.59-18.541c35.048-2.983 62.563-32.333 62.563-68.105v-.765c0-37.652-30.484-68.194-68.148-68.358"/>
        <path id="am" d="M68.27.215C30.608.379.124 30.92.124 68.573v.765c0 37.753 30.646 68.359 68.45 68.359h256.521l36.043 18.287.59-18.541c35.048-2.983 62.563-32.333 62.563-68.105v-.765c0-37.652-30.484-68.194-68.148-68.358"/>
        <path id="ao" d="M68.27.215C30.608.379.124 30.92.124 68.573v.765c0 37.753 30.646 68.359 68.45 68.359h256.521l36.043 18.287.59-18.541c35.048-2.983 62.563-32.333 62.563-68.105v-.765c0-37.652-30.484-68.194-68.148-68.358"/>
        <path id="aq" d="M68.27.215C30.608.379.124 30.92.124 68.573v.765c0 37.753 30.646 68.359 68.45 68.359h256.521l36.043 18.287.59-18.541c35.048-2.983 62.563-32.333 62.563-68.105v-.765c0-37.652-30.484-68.194-68.148-68.358"/>
        <path id="as" d="M68.27.215C30.608.379.124 30.92.124 68.573v.765c0 37.753 30.646 68.359 68.45 68.359h256.521l36.043 18.287.59-18.541c35.048-2.983 62.563-32.333 62.563-68.105v-.765c0-37.652-30.484-68.194-68.148-68.358"/>
        <path id="au" d="M68.27.215C30.608.379.124 30.92.124 68.573v.765c0 37.753 30.646 68.359 68.45 68.359h256.521l36.043 18.287.59-18.541c35.048-2.983 62.563-32.333 62.563-68.105v-.765c0-37.652-30.484-68.194-68.148-68.358"/>
        <path id="aw" d="M68.27.215C30.608.379.124 30.92.124 68.573v.765c0 37.753 30.646 68.359 68.45 68.359h256.521l36.043 18.287.59-18.541c35.048-2.983 62.563-32.333 62.563-68.105v-.765c0-37.652-30.484-68.194-68.148-68.358"/>
        <path id="ay" d="M68.27.215C30.608.379.124 30.92.124 68.573v.765c0 37.753 30.646 68.359 68.45 68.359h256.521l36.043 18.287.59-18.541c35.048-2.983 62.563-32.333 62.563-68.105v-.765c0-37.652-30.484-68.194-68.148-68.358"/>
        <path id="aA" d="M68.27.215C30.608.379.124 30.92.124 68.573v.765c0 37.753 30.646 68.359 68.45 68.359h256.521l36.043 18.287.59-18.541c35.048-2.983 62.563-32.333 62.563-68.105v-.765c0-37.652-30.484-68.194-68.148-68.358"/>
        <path id="aC" d="M68.27.215C30.608.379.124 30.92.124 68.573v.765c0 37.753 30.646 68.359 68.45 68.359h256.521l36.043 18.287.59-18.541c35.048-2.983 62.563-32.333 62.563-68.105v-.765c0-37.652-30.484-68.194-68.148-68.358"/>
        <path id="aE" d="M68.27.215C30.608.379.124 30.92.124 68.573v.765c0 37.753 30.646 68.359 68.45 68.359h256.521l36.043 18.287.59-18.541c35.048-2.983 62.563-32.333 62.563-68.105v-.765c0-37.652-30.484-68.194-68.148-68.358"/>
        <path id="aG" d="M68.27.215C30.608.379.124 30.92.124 68.573v.765c0 37.753 30.646 68.359 68.45 68.359h256.521l36.043 18.287.59-18.541c35.048-2.983 62.563-32.333 62.563-68.105v-.765c0-37.652-30.484-68.194-68.148-68.358"/>
        <path id="aI" d="M68.27.215C30.608.379.124 30.92.124 68.573v.765c0 37.753 30.646 68.359 68.45 68.359h256.521l36.043 18.287.59-18.541c35.048-2.983 62.563-32.333 62.563-68.105v-.765c0-37.652-30.484-68.194-68.148-68.358"/>
        <path id="aK" d="M68.27.215C30.608.379.124 30.92.124 68.573v.765c0 37.753 30.646 68.359 68.45 68.359h256.521l36.043 18.287.59-18.541c35.048-2.983 62.563-32.333 62.563-68.105v-.765c0-37.652-30.484-68.194-68.148-68.358"/>
        <path id="aM" d="M68.27.215C30.608.379.124 30.92.124 68.573v.765c0 37.753 30.646 68.359 68.45 68.359h256.521l36.043 18.287.59-18.541c35.048-2.983 62.563-32.333 62.563-68.105v-.765c0-37.652-30.484-68.194-68.148-68.358"/>
        <path id="aO" d="M68.27.215C30.608.379.124 30.92.124 68.573v.765c0 37.753 30.646 68.359 68.45 68.359h256.521l36.043 18.287.59-18.541c35.048-2.983 62.563-32.333 62.563-68.105v-.765c0-37.652-30.484-68.194-68.148-68.358"/>
        <path id="aQ" d="M68.27.215C30.608.379.124 30.92.124 68.573v.765c0 37.753 30.646 68.359 68.45 68.359h256.521l36.043 18.287.59-18.541c35.048-2.983 62.563-32.333 62.563-68.105v-.765c0-37.652-30.484-68.194-68.148-68.358"/>
        <path id="aS" d="M68.27.215C30.608.379.124 30.92.124 68.573v.765c0 37.753 30.646 68.359 68.45 68.359h256.521l36.043 18.287.59-18.541c35.048-2.983 62.563-32.333 62.563-68.105v-.765c0-37.652-30.484-68.194-68.148-68.358"/>
        <path id="aU" d="M68.27.215C30.608.379.124 30.92.124 68.573v.765c0 37.753 30.646 68.359 68.45 68.359h256.521l36.043 18.287.59-18.541c35.048-2.983 62.563-32.333 62.563-68.105v-.765c0-37.652-30.484-68.194-68.148-68.358"/>
        <path id="aW" d="M68.27.215C30.608.379.124 30.92.124 68.573v.765c0 37.753 30.646 68.359 68.45 68.359h256.521l36.043 18.287.59-18.541c35.048-2.983 62.563-32.333 62.563-68.105v-.765c0-37.652-30.484-68.194-68.148-68.358"/>
        <path id="aY" d="M68.27.215C30.608.379.124 30.92.124 68.573v.765c0 37.753 30.646 68.359 68.45 68.359h256.521l36.043 18.287.59-18.541c35.048-2.983 62.563-32.333 62.563-68.105v-.765c0-37.652-30.484-68.194-68.148-68.358"/>
        <path id="ba" d="M68.27.215C30.608.379.124 30.92.124 68.573v.765c0 37.753 30.646 68.359 68.45 68.359h256.521l36.043 18.287.59-18.541c35.048-2.983 62.563-32.333 62.563-68.105v-.765c0-37.652-30.484-68.194-68.148-68.358"/>
        <path id="bc" d="M68.27.215C30.608.379.124 30.92.124 68.573v.765c0 37.753 30.646 68.359 68.45 68.359h256.521l36.043 18.287.59-18.541c35.048-2.983 62.563-32.333 62.563-68.105v-.765c0-37.652-30.484-68.194-68.148-68.358"/>
        <path id="be" d="M68.27.215C30.608.379.124 30.92.124 68.573v.765c0 37.753 30.646 68.359 68.45 68.359h256.521l36.043 18.287.59-18.541c35.048-2.983 62.563-32.333 62.563-68.105v-.765c0-37.652-30.484-68.194-68.148-68.358"/>
        <path id="bg" d="M68.27.215C30.608.379.124 30.92.124 68.573v.765c0 37.753 30.646 68.359 68.45 68.359h256.521l36.043 18.287.59-18.541c35.048-2.983 62.563-32.333 62.563-68.105v-.765c0-37.652-30.484-68.194-68.148-68.358"/>
        <path id="bi" d="M68.27.215C30.608.379.124 30.92.124 68.573v.765c0 37.753 30.646 68.359 68.45 68.359h256.521l36.043 18.287.59-18.541c35.048-2.983 62.563-32.333 62.563-68.105v-.765c0-37.652-30.484-68.194-68.148-68.358"/>
        <path id="bk" d="M68.27.215C30.608.379.124 30.92.124 68.573v.765c0 37.753 30.646 68.359 68.45 68.359h256.521l36.043 18.287.59-18.541c35.048-2.983 62.563-32.333 62.563-68.105v-.765c0-37.652-30.484-68.194-68.148-68.358"/>
        <path id="bm" d="M68.27.215C30.608.379.124 30.92.124 68.573v.765c0 37.753 30.646 68.359 68.45 68.359h256.521l36.043 18.287.59-18.541c35.048-2.983 62.563-32.333 62.563-68.105v-.765c0-37.652-30.484-68.194-68.148-68.358"/>
        <path id="bo" d="M68.27.215C30.608.379.124 30.92.124 68.573v.765c0 37.753 30.646 68.359 68.45 68.359h256.521l36.043 18.287.59-18.541c35.048-2.983 62.563-32.333 62.563-68.105v-.765c0-37.652-30.484-68.194-68.148-68.358"/>
        <path id="bq" d="M68.27.215C30.608.379.124 30.92.124 68.573v.765c0 37.753 30.646 68.359 68.45 68.359h256.521l36.043 18.287.59-18.541c35.048-2.983 62.563-32.333 62.563-68.105v-.765c0-37.652-30.484-68.194-68.148-68.358"/>
        <path id="bs" d="M68.27.215C30.608.379.124 30.92.124 68.573v.765c0 37.753 30.646 68.359 68.45 68.359h256.521l36.043 18.287.59-18.541c35.048-2.983 62.563-32.333 62.563-68.105v-.765c0-37.652-30.484-68.194-68.148-68.358"/>
        <path id="bu" d="M68.27.215C30.608.379.124 30.92.124 68.573v.765c0 37.753 30.646 68.359 68.45 68.359h256.521l36.043 18.287.59-18.541c35.048-2.983 62.563-32.333 62.563-68.105v-.765c0-37.652-30.484-68.194-68.148-68.358"/>
        <path id="bw" d="M68.27.215C30.608.379.124 30.92.124 68.573v.765c0 37.753 30.646 68.359 68.45 68.359h256.521l36.043 18.287.59-18.541c35.048-2.983 62.563-32.333 62.563-68.105v-.765c0-37.652-30.484-68.194-68.148-68.358"/>
        <path id="by" d="M68.27.215C30.608.379.124 30.92.124 68.573v.765c0 37.753 30.646 68.359 68.45 68.359h256.521l36.043 18.287.59-18.541c35.048-2.983 62.563-32.333 62.563-68.105v-.765c0-37.652-30.484-68.194-68.148-68.358"/>
        <path id="bA" d="M68.27.215C30.608.379.124 30.92.124 68.573v.765c0 37.753 30.646 68.359 68.45 68.359h256.521l36.043 18.287.59-18.541c35.048-2.983 62.563-32.333 62.563-68.105v-.765c0-37.652-30.484-68.194-68.148-68.358"/>
        <path id="bC" d="M68.27.215C30.608.379.124 30.92.124 68.573v.765c0 37.753 30.646 68.359 68.45 68.359h256.521l36.043 18.287.59-18.541c35.048-2.983 62.563-32.333 62.563-68.105v-.765c0-37.652-30.484-68.194-68.148-68.358"/>
        <path id="bE" d="M68.27.215C30.608.379.124 30.92.124 68.573v.765c0 37.753 30.646 68.359 68.45 68.359h256.521l36.043 18.287.59-18.541c35.048-2.983 62.563-32.333 62.563-68.105v-.765c0-37.652-30.484-68.194-68.148-68.358"/>
        <path id="bG" d="M68.27.215C30.608.379.124 30.92.124 68.573v.765c0 37.753 30.646 68.359 68.45 68.359h256.521l36.043 18.287.59-18.541c35.048-2.983 62.563-32.333 62.563-68.105v-.765c0-37.652-30.484-68.194-68.148-68.358"/>
        <path id="bI" d="M68.27.215C30.608.379.124 30.92.124 68.573v.765c0 37.753 30.646 68.359 68.45 68.359h256.521l36.043 18.287.59-18.541c35.048-2.983 62.563-32.333 62.563-68.105v-.765c0-37.652-30.484-68.194-68.148-68.358"/>
    </defs>
    <g fill="none" fill-rule="evenodd">
        <g transform="translate(0 31.053)">
            <mask id="b" fill="#fff">
                <use xlink:href="#a"/>
            </mask>
            <path fill="#3A3A3A" d="M355.508 138.383H68.411c-37.782 0-68.41-30.65-68.41-68.459v-.766C0 31.35 30.628.699 68.41.699h287.097c37.783 0 68.412 30.65 68.412 68.459v.766c0 37.809-30.629 68.459-68.412 68.459" mask="url(#b)"/>
        </g>
        <g transform="translate(60.142 143.897)">
            <mask id="d" fill="#fff">
                <use xlink:href="#c"/>
            </mask>
            <path fill="#3A3A3A" d="M50.338 25.539L2.184 50.404.642 25.539 25.49.673z" mask="url(#d)"/>
        </g>
        <path fill="#FFF" d="M74.005 72.306h-9.443v17.616H61.2V69.598h12.805zM83.756 80.22a45.805 45.805 0 0 1-.384 3.993c-.172 1.182-.445 2.197-.816 3.043h5.12v-9.548h-3.85l-.07 2.513zm-5.58 7.022c.456-.065.82-.284 1.095-.656.274-.372.488-.868.642-1.487.153-.618.264-1.342.335-2.17.069-.828.127-1.731.174-2.708l.154-5.403h10.433v12.438h2.078l-.279 7.147h-3.054v-4.48h-9.723v4.48h-3.096l-.28-7.161h1.521zM102.043 77.233a3.32 3.32 0 0 0-1.298.252c-.4.167-.758.412-1.073.733a4.22 4.22 0 0 0-.803 1.172c-.218.46-.375.984-.467 1.57h7.072v-.251a4.812 4.812 0 0 0-.258-1.29 3.423 3.423 0 0 0-.635-1.11 3.039 3.039 0 0 0-1.052-.782c-.424-.196-.92-.294-1.486-.294m.404 12.968c-1.116 0-2.134-.187-3.054-.559a7.047 7.047 0 0 1-2.365-1.535 6.862 6.862 0 0 1-1.527-2.31 7.55 7.55 0 0 1-.545-2.882v-.573c0-1.2.194-2.28.58-3.238.385-.958.901-1.777 1.548-2.457.646-.679 1.4-1.2 2.26-1.563a6.9 6.9 0 0 1 2.713-.545c1.097 0 2.064.185 2.901.552a5.71 5.71 0 0 1 2.099 1.55c.563.665.988 1.454 1.277 2.365.287.912.432 1.912.432 3.001v1.41H98.304c.056.586.2 1.131.433 1.633.232.503.536.939.914 1.306.375.367.817.656 1.324.865.508.21 1.062.314 1.668.314a5.41 5.41 0 0 0 2.336-.503 4.602 4.602 0 0 0 1.737-1.382l1.813 1.703a5.55 5.55 0 0 1-.934 1.055c-.382.34-.829.642-1.34.907a8.149 8.149 0 0 1-1.722.642 8.434 8.434 0 0 1-2.086.244M136.301 80.988c1.088 0 1.874-.172 2.358-.517.482-.343.725-.8.725-1.367 0-.242-.06-.482-.182-.719a1.814 1.814 0 0 0-.565-.635c-.255-.186-.586-.335-.99-.446-.405-.113-.886-.168-1.444-.168-.474 0-.918.049-1.332.146a4.027 4.027 0 0 0-1.08.412 2.353 2.353 0 0 0-.726.621 1.29 1.29 0 0 0-.265.789h-3.32c0-.707.174-1.342.524-1.905a4.552 4.552 0 0 1 1.429-1.43c.604-.392 1.31-.692 2.114-.901.803-.21 1.661-.315 2.573-.315.995 0 1.897.096 2.706.287.81.19 1.5.47 2.078.837a3.982 3.982 0 0 1 1.34 1.375c.315.55.474 1.182.474 1.898 0 .67-.233 1.287-.698 1.85-.465.563-1.121 1.012-1.967 1.347.958.298 1.688.742 2.19 1.334.502.59.753 1.314.753 2.17 0 .716-.172 1.356-.515 1.92a4.468 4.468 0 0 1-1.43 1.43c-.609.39-1.335.688-2.176.893-.842.204-1.76.307-2.755.307-.846 0-1.681-.093-2.504-.28a7.471 7.471 0 0 1-2.204-.858 4.834 4.834 0 0 1-1.57-1.479c-.4-.6-.6-1.314-.6-2.143h3.32c0 .289.087.566.26.83.171.266.415.5.731.706.316.204.7.367 1.15.488a5.81 5.81 0 0 0 1.515.182c.558 0 1.05-.059 1.478-.175a3.569 3.569 0 0 0 1.074-.468c.288-.195.507-.42.656-.676.148-.256.223-.524.223-.803 0-.744-.287-1.28-.857-1.606-.573-.325-1.403-.488-2.49-.488h-3.153v-2.443h3.152zM152.454 87.507c.427 0 .83-.053 1.206-.16a4.556 4.556 0 0 0 1.02-.42c.3-.17.562-.37.78-.593.218-.223.393-.45.523-.684v-2.833h-2.12c-1.359 0-2.36.219-3.006.656-.646.438-.97 1.06-.97 1.87 0 .307.05.594.154.86.102.264.258.492.467.683.21.191.474.342.796.453.32.112.703.168 1.15.168zm4.017 2.415a3.047 3.047 0 0 1-.23-.656c-.06-.252-.114-.52-.16-.81a5.524 5.524 0 0 1-1.764 1.228 6.093 6.093 0 0 1-2.49.516c-.8 0-1.523-.113-2.17-.34a5.015 5.015 0 0 1-1.66-.95 4.24 4.24 0 0 1-1.067-1.431 4.246 4.246 0 0 1-.377-1.787c0-1.619.603-2.856 1.807-3.713 1.204-.855 2.931-1.284 5.182-1.284h2.44v-.99c0-.801-.27-1.436-.808-1.906-.54-.47-1.302-.705-2.288-.705-.446 0-.836.053-1.171.16a2.474 2.474 0 0 0-.837.44c-.224.187-.39.405-.503.656a1.977 1.977 0 0 0-.167.81h-3.334c0-.587.138-1.156.412-1.71a4.461 4.461 0 0 1 1.206-1.48c.53-.432 1.179-.779 1.947-1.04.766-.26 1.643-.39 2.628-.39.894 0 1.72.109 2.484.328.762.219 1.423.544 1.98.977.558.432.995.973 1.312 1.619.315.647.474 1.403.474 2.268v6.728c0 .661.049 1.264.146 1.808.098.544.24 1.017.426 1.417v.237h-3.418zM169.5 83.92h-2.33v6.002h-3.334V74.818h3.334v6.059h2.064l4.785-6.059h4.129l-5.984 7.287 6.43 7.817h-4.324zM186.74 87.507c.427 0 .83-.053 1.206-.16a4.556 4.556 0 0 0 1.02-.42c.301-.17.562-.37.78-.593.219-.223.393-.45.523-.684v-2.833h-2.12c-1.358 0-2.36.219-3.005.656-.647.438-.97 1.06-.97 1.87 0 .307.05.594.153.86.102.264.259.492.467.683.21.191.474.342.796.453.32.112.704.168 1.15.168zm4.018 2.415a3.047 3.047 0 0 1-.23-.656c-.061-.252-.114-.52-.161-.81a5.524 5.524 0 0 1-1.764 1.228 6.093 6.093 0 0 1-2.49.516c-.8 0-1.523-.113-2.17-.34a5.015 5.015 0 0 1-1.66-.95 4.24 4.24 0 0 1-1.067-1.431 4.246 4.246 0 0 1-.376-1.787c0-1.619.602-2.856 1.806-3.713 1.205-.855 2.931-1.284 5.182-1.284h2.441v-.99c0-.801-.27-1.436-.809-1.906-.54-.47-1.302-.705-2.287-.705-.447 0-.837.053-1.172.16a2.474 2.474 0 0 0-.837.44c-.223.187-.39.405-.502.656a1.977 1.977 0 0 0-.167.81h-3.334c0-.587.137-1.156.412-1.71a4.461 4.461 0 0 1 1.206-1.48c.53-.432 1.178-.779 1.946-1.04.767-.26 1.643-.39 2.629-.39.893 0 1.72.109 2.483.328.762.219 1.423.544 1.98.977.559.432.995.973 1.312 1.619.316.647.474 1.403.474 2.268v6.728c0 .661.05 1.264.146 1.808.099.544.24 1.017.426 1.417v.237h-3.417zM211.123 89.922h-3.348v-6.114h-6.36v6.114h-3.348V74.819h3.348v6.31h6.36v-6.31h3.348zM228.531 89.922h-3.347v-5.123c-.55.121-1.118.215-1.709.28-.59.064-1.193.097-1.807.097-1.004 0-1.913-.116-2.727-.349-.813-.232-1.507-.584-2.078-1.054a4.666 4.666 0 0 1-1.325-1.786c-.311-.722-.467-1.571-.467-2.548v-4.62h3.333v4.62c0 .55.07 1.017.21 1.403.14.386.344.7.613.942.27.242.61.418 1.02.53.407.112.882.168 1.421.168a16.087 16.087 0 0 0 3.516-.377v-7.286h3.347v15.103zM242.076 74.819h3.334v15.103h-3.334V79.648l-6.389 10.274h-3.334V74.819h3.334v10.273zM252.956 83.487v3.797h3.752c.901 0 1.569-.163 2.002-.49.432-.324.649-.794.649-1.41 0-.585-.21-1.048-.628-1.387-.419-.34-1.093-.51-2.023-.51h-3.752zm0-2.415h2.818c1.97 0 2.957-.577 2.957-1.731 0-.642-.251-1.111-.753-1.41-.502-.297-1.251-.447-2.247-.447h-2.775v3.588zm-3.334 8.85V74.819h6.11c.976 0 1.855.083 2.636.251.781.167 1.446.426 1.995.775.548.35.97.786 1.262 1.312.294.526.44 1.142.44 1.85 0 .697-.217 1.323-.649 1.877-.433.554-1.067.98-1.904 1.277 1.06.243 1.855.677 2.386 1.306a3.23 3.23 0 0 1 .794 2.141c0 .717-.135 1.345-.404 1.885-.27.54-.661.99-1.172 1.347-.512.359-1.14.628-1.883.81-.745.182-1.586.272-2.525.272h-7.086zM272.457 87.507c.427 0 .83-.053 1.205-.16a4.556 4.556 0 0 0 1.02-.42c.301-.17.562-.37.78-.593.219-.223.393-.45.523-.684v-2.833h-2.12c-1.358 0-2.36.219-3.005.656-.647.438-.97 1.06-.97 1.87 0 .307.05.594.153.86.103.264.259.492.467.683.21.191.475.342.796.453.32.112.704.168 1.15.168zm4.017 2.415a3.047 3.047 0 0 1-.23-.656c-.06-.252-.114-.52-.16-.81a5.524 5.524 0 0 1-1.764 1.228 6.093 6.093 0 0 1-2.49.516c-.801 0-1.524-.113-2.17-.34a5.015 5.015 0 0 1-1.66-.95 4.24 4.24 0 0 1-1.067-1.431 4.246 4.246 0 0 1-.377-1.787c0-1.619.602-2.856 1.806-3.713 1.205-.855 2.932-1.284 5.182-1.284h2.441v-.99c0-.801-.27-1.436-.809-1.906-.54-.47-1.302-.705-2.287-.705-.447 0-.837.053-1.171.16a2.474 2.474 0 0 0-.838.44c-.223.187-.39.405-.502.656a1.977 1.977 0 0 0-.167.81h-3.334c0-.587.137-1.156.412-1.71a4.461 4.461 0 0 1 1.206-1.48c.53-.432 1.178-.779 1.946-1.04.767-.26 1.643-.39 2.629-.39.893 0 1.72.109 2.483.328.762.219 1.423.544 1.981.977.558.432.995.973 1.311 1.619.316.647.474 1.403.474 2.268v6.728c0 .661.05 1.264.146 1.808.099.544.24 1.017.427 1.417v.237h-3.418zM290.618 77.233a3.32 3.32 0 0 0-1.298.252c-.4.167-.757.412-1.073.733a4.22 4.22 0 0 0-.802 1.172c-.219.46-.375.984-.468 1.57h7.072v-.251a4.812 4.812 0 0 0-.258-1.29 3.423 3.423 0 0 0-.634-1.11 3.039 3.039 0 0 0-1.053-.782c-.424-.196-.92-.294-1.486-.294m.404 12.968c-1.115 0-2.134-.187-3.054-.559a7.047 7.047 0 0 1-2.364-1.535 6.862 6.862 0 0 1-1.528-2.31 7.55 7.55 0 0 1-.544-2.882v-.573c0-1.2.193-2.28.579-3.238.385-.958.902-1.777 1.548-2.457.647-.679 1.4-1.2 2.26-1.563a6.9 6.9 0 0 1 2.713-.545c1.097 0 2.065.185 2.901.552a5.71 5.71 0 0 1 2.1 1.55c.562.665.987 1.454 1.276 2.365.288.912.432 1.912.432 3.001v1.41H286.88c.057.586.2 1.131.433 1.633.232.503.536.939.914 1.306.376.367.818.656 1.325.865.507.21 1.062.314 1.667.314a5.41 5.41 0 0 0 2.336-.503 4.602 4.602 0 0 0 1.737-1.382l1.813 1.703a5.55 5.55 0 0 1-.934 1.055c-.382.34-.829.642-1.339.907a8.149 8.149 0 0 1-1.722.642 8.434 8.434 0 0 1-2.087.244M315.363 77.485h-5.872v12.437h-3.348V77.485h-5.817v-2.666h15.037zM324.877 87.549c.409 0 .806-.065 1.192-.196.386-.13.728-.311 1.025-.544.298-.232.533-.507.705-.823a2.02 2.02 0 0 0 .244-1.033h3.152a4.172 4.172 0 0 1-.495 2.045 5.428 5.428 0 0 1-1.38 1.667 6.923 6.923 0 0 1-2.016 1.13 6.93 6.93 0 0 1-2.4.42c-1.163 0-2.18-.201-3.054-.6a6.183 6.183 0 0 1-2.19-1.64 6.985 6.985 0 0 1-1.319-2.415 9.563 9.563 0 0 1-.439-2.924v-.503c0-1.033.147-2.01.44-2.932a6.917 6.917 0 0 1 1.318-2.415 6.308 6.308 0 0 1 2.19-1.639c.873-.405 1.887-.608 3.04-.608.911 0 1.756.14 2.533.42.776.278 1.445.669 2.009 1.171a5.27 5.27 0 0 1 1.31 1.801 5.41 5.41 0 0 1 .453 2.29h-3.152a2.772 2.772 0 0 0-.879-2.108 3.276 3.276 0 0 0-1.018-.642 3.388 3.388 0 0 0-1.284-.238c-.697 0-1.279.143-1.743.426a3.283 3.283 0 0 0-1.116 1.117 4.81 4.81 0 0 0-.593 1.57 9.141 9.141 0 0 0-.174 1.787v.503c0 .613.058 1.214.174 1.8.117.587.314 1.11.593 1.57.28.462.65.834 1.116 1.118.464.283 1.05.425 1.758.425M338.337 79.704c0 .27.048.533.147.79.097.255.251.485.46.69.21.204.474.37.795.496.32.125.705.188 1.151.188h4.198v-4.383h-4.003c-.474 0-.886.065-1.234.195-.35.13-.635.3-.858.51-.223.21-.389.447-.496.712a2.13 2.13 0 0 0-.16.802zm10.085-4.885v15.103h-3.334v-5.57h-4.03l-3.265 5.57h-3.487l3.571-6.114c-.93-.39-1.644-.95-2.142-1.675-.497-.726-.745-1.559-.745-2.499 0-.688.136-1.328.41-1.92.275-.59.675-1.099 1.2-1.528.526-.427 1.165-.762 1.918-1.005.754-.241 1.61-.362 2.567-.362h7.337zM64.38 117.791v3.797h3.753c.901 0 1.569-.163 2.002-.489.432-.325.648-.795.648-1.41 0-.586-.21-1.049-.627-1.389-.42-.339-1.093-.509-2.023-.509H64.38zm0-2.415h2.818c1.971 0 2.958-.577 2.958-1.73 0-.642-.251-1.112-.754-1.41-.502-.298-1.25-.447-2.246-.447h-2.775v3.587zm-3.334 8.85v-15.103h6.11c.977 0 1.855.084 2.637.251.78.167 1.445.426 1.995.775.548.35.97.786 1.261 1.312.294.525.44 1.142.44 1.85 0 .698-.216 1.324-.648 1.877-.433.553-1.067.98-1.904 1.277 1.06.243 1.854.678 2.385 1.305.53.629.795 1.343.795 2.143 0 .717-.136 1.345-.405 1.884-.27.54-.66.99-1.172 1.347-.51.359-1.139.628-1.882.81-.745.181-1.586.272-2.525.272h-7.087zM84.872 121.853c.409 0 .806-.065 1.192-.196.386-.13.728-.311 1.025-.543.298-.233.533-.507.705-.824a2.02 2.02 0 0 0 .244-1.033h3.152a4.172 4.172 0 0 1-.495 2.045 5.436 5.436 0 0 1-1.38 1.667 6.923 6.923 0 0 1-2.016 1.131 6.93 6.93 0 0 1-2.4.42c-1.163 0-2.18-.202-3.054-.601a6.192 6.192 0 0 1-2.19-1.64 6.988 6.988 0 0 1-1.319-2.416 9.555 9.555 0 0 1-.439-2.923v-.503c0-1.033.147-2.01.44-2.931a6.917 6.917 0 0 1 1.318-2.415 6.32 6.32 0 0 1 2.19-1.64c.873-.404 1.887-.607 3.04-.607.911 0 1.756.14 2.533.419.776.279 1.445.67 2.009 1.172a5.27 5.27 0 0 1 1.31 1.8 5.41 5.41 0 0 1 .453 2.29h-3.152a2.772 2.772 0 0 0-.879-2.108 3.276 3.276 0 0 0-1.018-.642 3.388 3.388 0 0 0-1.284-.237c-.697 0-1.278.142-1.743.425a3.288 3.288 0 0 0-1.116 1.117 4.82 4.82 0 0 0-.593 1.57 9.141 9.141 0 0 0-.174 1.787v.503c0 .614.058 1.214.174 1.8.117.587.314 1.11.593 1.57.28.462.65.834 1.116 1.117.465.285 1.05.426 1.758.426M102.043 111.538a3.32 3.32 0 0 0-1.298.251c-.4.168-.758.412-1.073.733a4.243 4.243 0 0 0-.803 1.172 5.736 5.736 0 0 0-.467 1.57h7.072v-.25a4.818 4.818 0 0 0-.258-1.292 3.427 3.427 0 0 0-.635-1.11 3.039 3.039 0 0 0-1.052-.78c-.424-.197-.92-.294-1.486-.294m.404 12.967c-1.116 0-2.134-.187-3.054-.558a7.047 7.047 0 0 1-2.365-1.536 6.87 6.87 0 0 1-1.527-2.31 7.55 7.55 0 0 1-.545-2.882v-.572c0-1.201.194-2.28.58-3.24.385-.957.901-1.776 1.548-2.455.646-.68 1.4-1.201 2.26-1.564a6.9 6.9 0 0 1 2.713-.544c1.097 0 2.064.183 2.901.55a5.72 5.72 0 0 1 2.099 1.55c.563.666.988 1.455 1.277 2.366.287.913.432 1.912.432 3.002v1.41H98.304c.056.586.2 1.13.433 1.633.232.502.536.937.914 1.305.375.367.817.655 1.324.865a4.33 4.33 0 0 0 1.668.314 5.41 5.41 0 0 0 2.336-.503 4.602 4.602 0 0 0 1.737-1.382l1.813 1.704a5.546 5.546 0 0 1-.934 1.054 6.57 6.57 0 0 1-1.34.908 8.19 8.19 0 0 1-3.808.885M125.407 109.123v15.103h-3.348V111.83h-4.715v3.727c0 1.433-.093 2.692-.279 3.775-.186 1.085-.497 1.99-.934 2.716a4.24 4.24 0 0 1-1.73 1.633c-.716.363-1.6.544-2.65.544h-.739l.014-2.82h.516c.502 0 .911-.109 1.227-.327.316-.219.567-.563.753-1.033.186-.47.312-1.076.377-1.815.065-.74.098-1.631.098-2.673v-6.435h11.41zM136.33 111.538a3.32 3.32 0 0 0-1.298.251c-.4.168-.758.412-1.074.733a4.243 4.243 0 0 0-.802 1.172 5.736 5.736 0 0 0-.468 1.57h7.072v-.25a4.818 4.818 0 0 0-.258-1.292 3.427 3.427 0 0 0-.634-1.11 3.039 3.039 0 0 0-1.053-.78c-.424-.197-.92-.294-1.486-.294m.405 12.967c-1.116 0-2.135-.187-3.055-.558a7.047 7.047 0 0 1-2.364-1.536 6.87 6.87 0 0 1-1.528-2.31 7.55 7.55 0 0 1-.544-2.882v-.572c0-1.201.193-2.28.579-3.24.385-.957.902-1.776 1.548-2.455.647-.68 1.4-1.201 2.26-1.564a6.9 6.9 0 0 1 2.713-.544c1.097 0 2.065.183 2.901.55a5.72 5.72 0 0 1 2.1 1.55c.562.666.987 1.455 1.276 2.366.288.913.432 1.912.432 3.002v1.41h-10.461c.056.586.2 1.13.433 1.633.231.502.536.937.913 1.305.376.367.818.655 1.325.865a4.33 4.33 0 0 0 1.667.314 5.41 5.41 0 0 0 2.337-.503 4.602 4.602 0 0 0 1.736-1.382l1.813 1.704a5.546 5.546 0 0 1-.934 1.054 6.57 6.57 0 0 1-1.339.908 8.19 8.19 0 0 1-3.808.885M159.694 124.226h-3.348v-6.114h-6.36v6.114h-3.349v-15.103h3.348v6.31h6.36v-6.31h3.349zM176.837 124.226h-3.348v-6.114h-6.36v6.114h-3.348v-15.103h3.347v6.31h6.361v-6.31h3.348zM186.74 121.811a4.487 4.487 0 0 0 2.225-.58c.302-.171.563-.37.782-.593.218-.222.392-.45.522-.683v-2.834h-2.12c-1.358 0-2.36.22-3.005.656-.647.438-.97 1.061-.97 1.87 0 .308.05.594.153.859.102.265.259.493.467.685.21.19.474.341.796.452.32.112.704.168 1.15.168zm4.018 2.415a3.047 3.047 0 0 1-.23-.656c-.061-.251-.114-.52-.161-.81a5.551 5.551 0 0 1-1.764 1.23 6.093 6.093 0 0 1-2.49.516c-.8 0-1.523-.114-2.17-.343a5.002 5.002 0 0 1-1.66-.95 4.23 4.23 0 0 1-1.067-1.43 4.246 4.246 0 0 1-.376-1.786c0-1.62.602-2.857 1.806-3.714 1.205-.855 2.931-1.284 5.182-1.284h2.441v-.99c0-.801-.27-1.436-.809-1.906-.54-.47-1.302-.705-2.287-.705-.447 0-.837.053-1.172.16a2.46 2.46 0 0 0-.837.44c-.223.187-.39.405-.502.656a1.977 1.977 0 0 0-.167.81h-3.334c0-.586.137-1.157.412-1.71a4.454 4.454 0 0 1 1.206-1.48c.53-.433 1.178-.779 1.946-1.04.767-.26 1.643-.39 2.629-.39.893 0 1.72.109 2.483.327.762.219 1.423.546 1.98.977a4.56 4.56 0 0 1 1.312 1.62c.316.647.474 1.403.474 2.268v6.728c0 .661.05 1.264.146 1.808.099.544.24 1.017.426 1.417v.237h-3.417zM201.192 114.008c0 .27.048.533.146.79.097.255.251.486.46.69.21.205.474.37.796.495.32.127.704.189 1.15.189h4.198v-4.383h-4.003c-.474 0-.885.066-1.233.196-.35.13-.636.3-.859.508-.223.21-.389.447-.495.713-.107.264-.16.533-.16.802zm10.085-4.885v15.103h-3.335v-5.57h-4.03l-3.265 5.57h-3.486l3.57-6.114c-.93-.39-1.644-.95-2.141-1.674-.497-.726-.746-1.56-.746-2.5 0-.688.137-1.327.411-1.92.275-.59.674-1.099 1.2-1.527.525-.428 1.164-.762 1.918-1.005.753-.242 1.609-.363 2.566-.363h7.338zM219.827 122.551c0-.548.17-1.003.51-1.36.339-.359.824-.538 1.457-.538.632 0 1.123.179 1.471.537.35.358.524.813.524 1.361 0 .53-.174.97-.524 1.32-.348.348-.839.522-1.471.522-.633 0-1.118-.174-1.458-.523-.339-.35-.509-.789-.509-1.319zm.433-4.272c0-.66.018-1.214.055-1.66.037-.447.121-.842.251-1.187.13-.344.326-.668.587-.97.259-.302.618-.649 1.073-1.04.308-.307.623-.626.949-.956.325-.33.62-.675.886-1.033.264-.358.483-.728.655-1.11.172-.381.259-.776.259-1.186 0-.922-.257-1.608-.768-2.06-.511-.45-1.25-.676-2.218-.676-.372 0-.736.05-1.095.146-.358.098-.676.25-.956.454a2.322 2.322 0 0 0-.675.79c-.173.32-.259.703-.259 1.15h-3.348c.01-.865.18-1.63.51-2.296a4.866 4.866 0 0 1 1.346-1.674 5.86 5.86 0 0 1 1.994-1.02 8.66 8.66 0 0 1 2.483-.342c1.005 0 1.897.119 2.678.357.782.236 1.444.583 1.989 1.04a4.412 4.412 0 0 1 1.24 1.688c.284.67.426 1.438.426 2.303 0 .661-.114 1.278-.342 1.849a7.265 7.265 0 0 1-.893 1.613c-.367.502-.779.973-1.234 1.41-.456.438-.906.857-1.353 1.256-.279.28-.493.53-.642.754a2.54 2.54 0 0 0-.327.684c-.07.233-.11.484-.119.754-.01.27-.014.59-.014.962h-3.138z"/>
        <path fill="#FC611B" d="M332.749 114.125c-.179-.946-6.148-.659-14.455.558-1.658-3.651-5.636-5.847-9.751-5.072-4.115.775-7.023 4.268-7.24 8.274-8.181 1.89-13.846 3.793-13.668 4.74.178.945 6.147.658 14.454-.56 1.658 3.652 5.636 5.848 9.751 5.073 4.116-.775 7.023-4.268 7.241-8.274 8.18-1.89 13.845-3.793 13.668-4.739"/>
        <path fill="#B5BACC" d="M382.33 61.102a11.251 11.251 0 0 1 3.903 8.525c0 6.232-5.048 11.284-11.276 11.284-1.549 0-3.023-.313-4.366-.878a11.217 11.217 0 0 0 7.373 2.759c6.228 0 11.277-5.053 11.277-11.285 0-4.683-2.852-8.698-6.91-10.405"/>
        <path fill="#5BCEAA" d="M44.04 122.64c0 4.764-3.858 8.626-8.618 8.626s-8.62-3.862-8.62-8.625c0-4.764 3.86-8.625 8.62-8.625s8.619 3.861 8.619 8.625"/>
        <path fill="#4847B7" d="M242.471 140.433c0 4.46-3.613 8.074-8.068 8.074a8.071 8.071 0 0 1-8.07-8.074 8.071 8.071 0 0 1 8.07-8.075c4.455 0 8.068 3.615 8.068 8.075"/>
        <path fill="#B5BACC" d="M296.027 52.663a2.608 2.608 0 1 1-2.607-2.61 2.609 2.609 0 0 1 2.607 2.61M98.237 147.864a2.61 2.61 0 0 1-2.608 2.61 2.609 2.609 0 0 1 0-5.22 2.609 2.609 0 0 1 2.608 2.61M180.466 50.91a2.61 2.61 0 0 1-2.608 2.61 2.609 2.609 0 0 1 0-5.22 2.609 2.609 0 0 1 2.608 2.61M127.327 57.072a1.304 1.304 0 1 1-2.608.002 1.304 1.304 0 0 1 2.608-.002M165.029 132.358a1.304 1.304 0 1 1-2.607.002 1.304 1.304 0 0 1 2.607-.002M390.544 119.68a1.304 1.304 0 1 1-2.607 0 1.304 1.304 0 0 1 2.607 0M367.748 129.748a2.609 2.609 0 1 1-2.607-2.61c1.44 0 2.607 1.17 2.607 2.61M194.426 153.627a2.609 2.609 0 1 1-2.608-2.61 2.609 2.609 0 0 1 2.608 2.61M32.439 76.074a2.609 2.609 0 1 1-2.608-2.61 2.609 2.609 0 0 1 2.608 2.61M62.462 44.75l16.917 4.502c.585.156.835-.751.25-.907l-16.916-4.503c-.586-.155-.836.752-.25.908M117.251 134.325l23.974 8.51c.571.202.818-.707.25-.908l-23.974-8.508c-.571-.203-.817.706-.25.906M162.297 96.131l16.539 6.018c.569.207.814-.701.25-.907l-16.54-6.017c-.569-.207-.814.701-.25.906M194.65 50.916l29.327 10.513c.57.204.816-.704.25-.907L194.9 50.01c-.571-.205-.817.703-.25.906M247.99 113.457a206.921 206.921 0 0 1 26.952 11.99c.534.283 1.01-.528.474-.814a208.772 208.772 0 0 0-27.175-12.083c-.57-.206-.816.703-.25.907M356.226 104.48l12.823 5.157c.561.226.805-.683.25-.907l-12.824-5.157c-.56-.225-.804.683-.25.907M332.902 45.104l30.133 11.116c.568.21.813-.698.25-.906l-30.133-11.117c-.569-.209-.814.7-.25.907M396.872 97.578l14.237 5.389c.567.214.812-.694.25-.906-4.745-1.798-9.491-3.593-14.237-5.39-.566-.214-.811.694-.25.907M263.665 152.529l6.766 3.01c.548.242 1.027-.567.475-.813l-6.766-3.01c-.548-.243-1.026.567-.475.813M4.359 111.34a78.043 78.043 0 0 1 13.511 7.285c.503.339.975-.476.475-.812a79.386 79.386 0 0 0-13.736-7.38c-.558-.233-.8.676-.25.906"/>
        <g>
            <g transform="translate(480 .536)">
                <mask id="f" fill="#fff">
                    <use xlink:href="#e"/>
                </mask>
                <path fill="#FFF" d="M355.839.214H68.574C30.769.214.123 30.82.123 68.573v.765c0 37.753 30.646 68.36 68.451 68.36h256.52l36.043 18.286.59-18.541c35.047-2.983 62.563-32.333 62.563-68.105v-.765c0-37.754-30.647-68.359-68.451-68.359" mask="url(#f)"/>
            </g>
            <g transform="translate(480 .536)">
                <mask id="h" fill="#fff">
                    <use xlink:href="#g"/>
                </mask>
                <path fill="#5BCEAA" d="M-3.228 85.653c14.035-17.825 31.183-32.77 50.853-44.104 6.287-3.623.612-13.364-5.695-9.73C21.494 43.597 3.38 59.16-11.206 77.686c-1.897 2.41-2.31 5.608 0 7.967 1.936 1.977 6.098 2.387 7.978 0" mask="url(#h)"/>
            </g>
            <g transform="translate(480 .536)">
                <mask id="j" fill="#fff">
                    <use xlink:href="#i"/>
                </mask>
                <path fill="#5BCEAA" d="M1.335 102.813c12.01-15.88 27.935-28.333 43.454-40.585l-7.978-7.968C21.626 70.8 8.571 89.195-1.916 109.044c-2.833 5.363 4.603 12.005 8.86 6.827a409.198 409.198 0 0 1 32.659-35.278c-2.954-2.275-5.907-4.552-8.86-6.828-7.42 14.965-13.537 30.534-18.213 46.567-1.737 5.955 7.726 10.318 10.311 4.342 3.956-9.143 9.162-17.605 15.754-25.09l-9.43-5.48c-5.032 12.854-7.597 26.502-7.746 40.3-.058 5.341 8.02 8.003 10.513 2.843C43.662 112.98 57.874 89.894 74.5 68.658c1.891-2.414 2.315-5.605 0-7.967-1.932-1.972-6.105-2.394-7.978 0-17.247 22.028-32.158 45.68-44.333 70.87l10.513 2.843c.14-12.857 2.656-25.333 7.344-37.305 2.056-5.252-5.834-9.565-9.43-5.481-7.229 8.207-13.173 17.327-17.518 27.368a60284.3 60284.3 0 0 0 10.312 4.342c4.408-15.114 10.081-29.766 17.074-43.875 2.782-5.61-4.073-11.425-8.86-6.828a409.539 409.539 0 0 0-32.658 35.278l8.86 6.827C17.877 95.706 30.232 78.083 44.79 62.228c5.026-5.475-2.39-12.38-7.978-7.968C20.41 67.209 4.27 80.362-8.408 97.126c-1.85 2.447-.37 6.276 2.024 7.707 2.871 1.72 5.892.395 7.719-2.02" mask="url(#j)"/>
            </g>
            <g transform="translate(480 .536)">
                <mask id="l" fill="#fff">
                    <use xlink:href="#k"/>
                </mask>
                <path fill="#5BCEAA" d="M76.012 143.781c4.056-40.21 16.74-79.34 36.807-114.415 3.608-6.306-6.137-11.99-9.743-5.687C81.971 60.57 68.99 101.53 64.73 143.781c-.306 3.032 2.812 5.634 5.642 5.634 3.305 0 5.334-2.593 5.641-5.634" mask="url(#l)"/>
            </g>
            <g transform="translate(480 .536)">
                <mask id="n" fill="#fff">
                    <use xlink:href="#m"/>
                </mask>
                <path fill="#5BCEAA" d="M43.41 139.559c5.912-15.79 12.928-31.107 20.952-45.937 3.453-6.38-6.285-12.076-9.742-5.687-8.485 15.68-15.839 31.935-22.09 48.629-2.545 6.8 8.356 9.737 10.88 2.995" mask="url(#n)"/>
            </g>
            <g transform="translate(480 .536)">
                <mask id="p" fill="#fff">
                    <use xlink:href="#o"/>
                </mask>
                <path fill="#5BCEAA" d="M57.885 144.046c1.892-13.307 5.894-26.106 12.153-38.012 3.372-6.414-6.362-12.117-9.742-5.687-6.705 12.752-11.263 26.438-13.291 40.704-.431 3.033.746 6.017 3.94 6.93 2.64.754 6.512-.925 6.94-3.935" mask="url(#p)"/>
            </g>
            <g transform="translate(480 .536)">
                <mask id="r" fill="#fff">
                    <use xlink:href="#q"/>
                </mask>
                <path fill="#5BCEAA" d="M112.272 142.597c-2.028-20.066-1.189-40.279 2.754-60.066l-10.88-2.996c-3.26 22.793-4.03 45.752-1.972 68.694.642 7.165 11.932 7.233 11.283 0-1.96-21.866-1.542-43.955 1.57-65.698.433-3.033-.75-6.019-3.94-6.931-2.77-.79-6.348.959-6.94 3.935-4.14 20.778-5.29 41.98-3.159 63.062.307 3.028 2.374 5.634 5.642 5.634 2.813 0 5.95-2.587 5.642-5.634" mask="url(#r)"/>
            </g>
            <g transform="translate(480 .536)">
                <mask id="t" fill="#fff">
                    <use xlink:href="#s"/>
                </mask>
                <path fill="#5BCEAA" d="M114.536 103.575c2.12 13.106 4.238 26.214 6.357 39.32.484 2.997 4.234 4.692 6.94 3.935 3.198-.894 4.429-3.903 3.94-6.93l-6.357-39.32c-.484-2.998-4.234-4.692-6.94-3.936-3.198.895-4.429 3.904-3.94 6.93" mask="url(#t)"/>
            </g>
            <g transform="translate(480 .536)">
                <mask id="v" fill="#fff">
                    <use xlink:href="#u"/>
                </mask>
                <path fill="#5BCEAA" d="M126.078 107.64c1.534 11.933 3.945 23.65 7.48 35.157 1.604 5.215 9.407 5.5 10.881 0 .836-3.12.507-5.885-1.205-8.642-3.819-6.153-13.583-.5-9.743 5.686l.068-.04h10.88c-3.228-10.505-5.677-21.256-7.078-32.161-.388-3.018-2.315-5.634-5.642-5.634-2.747 0-6.032 2.594-5.641 5.634" mask="url(#v)"/>
            </g>
            <g transform="translate(480 .536)">
                <mask id="x" fill="#fff">
                    <use xlink:href="#w"/>
                </mask>
                <path fill="#5BCEAA" d="M135.15 128.327l5.592 16.562c1.913 5.665 11.66 5.184 11.081-1.498l-1.333-15.431c-.62-7.17-11.909-7.237-11.283 0l1.333 15.43 11.082-1.497-5.592-16.561c-2.308-6.836-13.21-3.904-10.88 2.995" mask="url(#x)"/>
            </g>
            <g transform="translate(480 .536)">
                <mask id="z" fill="#fff">
                    <use xlink:href="#y"/>
                </mask>
                <path fill="#5BCEAA" d="M162 79.01c-7.57 23.916-9.032 49.211-4.67 73.884 1.145 6.478 10.848 4.596 11.08-1.498.156-4.066.31-8.133.465-12.199.276-7.251-11.008-7.24-11.283 0l-.464 12.199 11.081-1.498c-4.008-22.67-2.268-45.97 4.671-67.892 2.194-6.93-8.695-9.897-10.88-2.996" mask="url(#z)"/>
            </g>
            <g transform="translate(480 .536)">
                <mask id="B" fill="#fff">
                    <use xlink:href="#A"/>
                </mask>
                <path fill="#5BCEAA" d="M173.625 90.389c-3.568 18.604-4.952 37.515-3.932 56.433.32 5.945 10.087 8.12 11.081 1.498a166.087 166.087 0 0 1 8.182-32.177c-3.694-.5-7.387-1-11.082-1.498-.197 9.426.903 18.817 3.215 27.958 1.654 6.541 10.48 4.505 11.081-1.497.55-5.496 2.306-10.71 4.981-15.523l-10.311-1.346 3.607 22.102c1.165 7.14 12.04 4.11 10.88-2.995l-3.607-22.103c-.797-4.888-8.104-5.316-10.311-1.345-3.69 6.639-5.768 13.671-6.522 21.21l11.082-1.498c-2.078-8.22-2.989-16.49-2.811-24.963.139-6.663-8.995-7.234-11.082-1.498a166.026 166.026 0 0 0-8.182 32.178l11.082 1.497c-.965-17.91.151-35.82 3.53-53.438 1.358-7.086-9.515-10.12-10.88-2.995" mask="url(#B)"/>
            </g>
            <g transform="translate(480 .536)">
                <mask id="D" fill="#fff">
                    <use xlink:href="#C"/>
                </mask>
                <path fill="#5BCEAA" d="M368.24 94.704a302.592 302.592 0 0 1 23.95 43.835c1.244 2.803 5.285 3.404 7.72 2.02 2.888-1.642 3.25-4.942 2.023-7.707a302.584 302.584 0 0 0-23.95-43.835c-3.975-6.033-13.75-.394-9.743 5.687" mask="url(#D)"/>
            </g>
            <g transform="translate(480 .536)">
                <mask id="F" fill="#fff">
                    <use xlink:href="#E"/>
                </mask>
                <path fill="#5BCEAA" d="M368.149 74.48a794.872 794.872 0 0 1 32.42 54.799c2.959 5.49 12.718 1.683 10.312-4.341L393.055 80.29c-1.124-2.814-3.775-4.82-6.94-3.935-2.685.75-5.08 4.079-3.94 6.93 5.941 14.883 11.884 29.766 17.826 44.648l10.312-4.342a794.586 794.586 0 0 0-32.422-54.799c-3.928-6.07-13.699-.427-9.742 5.688" mask="url(#F)"/>
            </g>
            <g transform="translate(480 .536)">
                <mask id="H" fill="#fff">
                    <use xlink:href="#G"/>
                </mask>
                <path fill="#5BCEAA" d="M375.528 65.141a464.755 464.755 0 0 0 31.016 51.224c4.098 5.876 13.74.465 9.744-5.687-7.987-12.292-13.241-25.825-15.718-40.266l-9.43 5.481a908.235 908.235 0 0 1 28.892 34.485c1.912 2.4 5.975 1.956 7.978 0 2.382-2.327 1.886-5.6 0-7.968a908.255 908.255 0 0 0-28.891-34.485c-4.077-4.628-10.29.46-9.43 5.482 2.624 15.297 8.398 29.94 16.855 42.958l9.744-5.687a464.855 464.855 0 0 1-31.017-51.223c-3.35-6.436-13.091-.745-9.743 5.686" mask="url(#H)"/>
            </g>
            <g transform="translate(480 .536)">
                <mask id="J" fill="#fff">
                    <use xlink:href="#I"/>
                </mask>
                <path fill="#5BCEAA" d="M378.263 42.474c23.48 15.927 42.37 37.794 55.042 63.128 3.245 6.488 12.981.788 9.742-5.687-13.54-27.072-34.044-50.181-59.09-67.17-6.021-4.086-11.673 5.673-5.694 9.73" mask="url(#J)"/>
            </g>
            <g transform="translate(480 .536)">
                <mask id="L" fill="#fff">
                    <use xlink:href="#K"/>
                </mask>
                <path fill="#5BCEAA" d="M210.36 118.292a145.066 145.066 0 0 0 14.267 32.456c3.44 5.772 11.351 1.73 10.312-4.342l-2.253-13.162c-1.221-7.133-12.097-4.108-10.88 2.996l2.253 13.161 10.311-4.34c-5.596-9.396-9.98-19.294-13.13-29.765-2.084-6.927-12.977-3.976-10.88 2.996" mask="url(#L)"/>
            </g>
            <g transform="translate(480 .536)">
                <mask id="N" fill="#fff">
                    <use xlink:href="#M"/>
                </mask>
                <path fill="#5BCEAA" d="M221.265 118.049l11.898 30.62c1.098 2.824 3.793 4.815 6.94 3.935 2.706-.757 5.052-4.068 3.94-6.931l-11.898-30.62c-1.097-2.825-3.793-4.815-6.94-3.936-2.705.757-5.051 4.069-3.94 6.932" mask="url(#N)"/>
            </g>
            <g transform="translate(480 .536)">
                <mask id="P" fill="#fff">
                    <use xlink:href="#O"/>
                </mask>
                <path fill="#5BCEAA" d="M199.567 130.547l5.626 22.539c1.756 7.032 12.64 4.052 10.881-2.995l-5.627-22.539c-1.756-7.032-12.64-4.053-10.88 2.995" mask="url(#P)"/>
            </g>
            <g transform="translate(480 .536)">
                <mask id="R" fill="#fff">
                    <use xlink:href="#Q"/>
                </mask>
                <path fill="#5BCEAA" d="M287.673 106.52c.176 17.895 3.725 35.61 10.651 52.12.979 2.334 2.727 4.136 5.44 4.136 2.272 0 5.073-1.729 5.44-4.136l.501-3.288c.461-3.028-.767-6.023-3.94-6.93-2.663-.76-6.483.93-6.94 3.935l-.501 3.288h10.88c-6.558-15.634-10.08-32.171-10.248-49.124-.072-7.247-11.355-7.265-11.283 0" mask="url(#R)"/>
            </g>
            <g transform="translate(480 .536)">
                <mask id="T" fill="#fff">
                    <use xlink:href="#S"/>
                </mask>
                <path fill="#5BCEAA" d="M306.673 121.552c2.983 12.571 7.722 24.654 14.005 35.946 3.103 5.576 12.074 1.815 10.312-4.341l-4.424-15.44c-1.993-6.96-12.884-4.002-10.88 2.994l4.423 15.441 10.311-4.34c-5.834-10.487-10.097-21.584-12.867-33.256-1.674-7.053-12.556-4.067-10.88 2.996" mask="url(#T)"/>
            </g>
            <g transform="translate(480 .536)">
                <mask id="V" fill="#fff">
                    <use xlink:href="#U"/>
                </mask>
                <path fill="#5BCEAA" d="M336.142 125.302c3.567 14.291 3.072 32.403 14.432 43.371 4.024 3.886 10.924.009 9.43-5.481-1.514-5.557-3.368-11.008-5.117-16.494-2.195-6.884-13.092-3.942-10.88 2.996 1.75 5.485 3.603 10.936 5.116 16.494l9.43-5.482c-4.705-4.542-6.25-11.586-7.576-17.75-1.473-6.852-2.258-13.847-3.955-20.65-1.755-7.032-12.64-4.053-10.88 2.996" mask="url(#V)"/>
            </g>
            <g transform="translate(480 .536)">
                <mask id="X" fill="#fff">
                    <use xlink:href="#W"/>
                </mask>
                <path fill="#5BCEAA" d="M341.36 104.281c1.61 21.222 7.775 41.707 18.32 60.217 3.112 5.459 12.3 1.834 10.313-4.341-4.886-15.19-7.737-30.823-8.395-46.764l-10.513 2.843 22.53 39.793c3.574 6.311 13.325.64 9.743-5.688l-22.53-39.792c-2.697-4.762-10.746-2.791-10.514 2.844.698 16.906 3.615 33.647 8.799 49.759l10.311-4.341c-9.529-16.724-15.324-35.33-16.782-54.53-.545-7.185-11.833-7.245-11.283 0" mask="url(#X)"/>
            </g>
            <g transform="translate(480 .536)">
                <mask id="Z" fill="#fff">
                    <use xlink:href="#Y"/>
                </mask>
                <path fill="#5BCEAA" d="M352.295 136.515c2.73 8.6 6.528 16.783 11.42 24.37 3.496 5.418 12.211.386 8.69-5.073-4.44-6.883-7.927-14.162-10.406-21.97-1.951-6.141-11.67-3.517-9.704 2.673" mask="url(#Z)"/>
            </g>
            <g transform="translate(480 .536)">
                <mask id="ab" fill="#fff">
                    <use xlink:href="#aa"/>
                </mask>
                <path fill="#5BCEAA" d="M252.366 112.156l.015 33.557 11.081-1.498a231.552 231.552 0 0 1-6.713-29.197c-.919-5.643-9.578-5.087-10.88 0a152.958 152.958 0 0 0-4.719 33.995l10.513-2.843c-.814-1.502-1.382-3.001-1.553-4.717-.301-3.028-2.377-5.634-5.642-5.634-2.817 0-5.944 2.587-5.641 5.634.375 3.771 1.28 7.06 3.094 10.404 2.747 5.065 10.374 2.559 10.512-2.844a138.874 138.874 0 0 1 4.316-31h-10.88a231.713 231.713 0 0 0 6.713 29.198c1.802 6.023 11.084 4.97 11.082-1.498l-.015-33.557c-.003-7.25-11.286-7.263-11.283 0" mask="url(#ab)"/>
            </g>
            <g transform="translate(480 .536)">
                <mask id="ad" fill="#fff">
                    <use xlink:href="#ac"/>
                </mask>
                <path fill="#5BCEAA" d="M232.171 123.42l1.197 39.433c.22 7.235 11.503 7.266 11.283 0l-1.197-39.433c-.22-7.235-11.503-7.266-11.283 0" mask="url(#ad)"/>
            </g>
            <g transform="translate(480 .536)">
                <mask id="af" fill="#fff">
                    <use xlink:href="#ae"/>
                </mask>
                <path fill="#5BCEAA" d="M268.208 130.584l5.672 29.29c1.377 7.112 12.254 4.1 10.88-2.996-1.89-9.763-3.78-19.526-5.672-29.289-1.376-7.112-12.254-4.1-10.88 2.995" mask="url(#af)"/>
            </g>
            <g transform="translate(480 .536)">
                <mask id="ah" fill="#fff">
                    <use xlink:href="#ag"/>
                </mask>
                <path fill="#5BCEAA" d="M85.403 85.82c-4.891 18.136-8.309 36.589-10.398 55.252-.338 3.029 2.836 5.634 5.642 5.634 3.36 0 5.268-2.6 5.642-5.634 1.552-12.572 5.754-24.682 12.02-35.666L88 101.065c-1.478 7.834-2.996 15.663-4.431 23.506-1.398 7.637-2.395 15.373-.02 22.927 1.985 6.314 10.475 4.703 11.082-1.498 1.178-12.038 4.188-23.788 8.65-35.023L92.2 109.48l-.948 41.306c-.142 6.218 9.854 7.836 11.082 1.498a249.39 249.39 0 0 1 8.485-32.158l-11.081-1.498c-.603 6.03-1.217 12.058-1.808 18.087-.494 5.044-.353 9.885 3.408 13.716 2.897 2.952 8.45 1.657 9.43-2.486l7.021-29.727-11.081-1.497-2.845 42.786c-.482 7.24 10.804 7.21 11.283 0l2.845-42.786c.422-6.343-9.628-7.65-11.082-1.498-2.34 9.909-4.68 19.818-7.022 29.727l9.43-2.487c-1.607-1.635.11-7.874.314-9.922.462-4.637.926-9.275 1.39-13.913.661-6.614-9.16-7.208-11.082-1.497a249.315 249.315 0 0 0-8.485 32.158c3.694.498 7.388.998 11.081 1.497l.948-41.306c.156-6.787-8.87-7.065-11.082-1.497-4.853 12.221-7.774 24.942-9.053 38.018l11.081-1.498c-2.05-6.518-.702-13.105.53-19.648 1.304-6.932 2.614-13.862 3.92-20.794 1.132-6-6.972-10.195-10.31-4.342-7.317 12.823-11.757 26.73-13.563 41.354H86.29c1.976-17.653 5.368-35.107 9.994-52.256 1.89-7.01-8.99-10.001-10.88-2.996" mask="url(#ah)"/>
            </g>
            <g transform="translate(480 .536)">
                <mask id="aj" fill="#fff">
                    <use xlink:href="#ai"/>
                </mask>
                <path fill="#5BCEAA" d="M101.465 47.595a308.017 308.017 0 0 0-19.39 68.677c-.485 3.025.783 6.028 3.94 6.93 2.681.767 6.458-.934 6.94-3.934a308.006 308.006 0 0 1 19.39-68.677c1.17-2.834-1.267-6.166-3.94-6.93-3.228-.923-5.785 1.133-6.94 3.934" mask="url(#aj)"/>
            </g>
            <g transform="translate(480 .536)">
                <mask id="al" fill="#fff">
                    <use xlink:href="#ak"/>
                </mask>
                <path fill="#5BCEAA" d="M67.642 87.033a428.19 428.19 0 0 0-17.057 69.817c-.475 3.028.776 6.027 3.94 6.931 2.673.764 6.47-.932 6.94-3.934a428.1 428.1 0 0 1 17.057-69.818c2.312-6.892-8.581-9.848-10.88-2.996" mask="url(#al)"/>
            </g>
            <g transform="translate(480 .536)">
                <mask id="an" fill="#fff">
                    <use xlink:href="#am"/>
                </mask>
                <path fill="#5BCEAA" d="M75.083 49.701a430.106 430.106 0 0 0-15.185 35.271 407 407 0 0 0-9.158 27.072 421.372 421.372 0 0 0-1.942 6.695c-.884 2.313-.202 1.966 2.047-1.045l5.489 1.449-.242-.296.882 6.827-1.479 1.414-8.287-3.367.1.26c1.09 2.828 3.799 4.813 6.94 3.935 2.712-.76 5.044-4.066 3.94-6.93a26.606 26.606 0 0 0-.1-.26c-1.241-3.22-4.958-5.498-8.287-3.368-1.107.71-1.936 1.466-2.57 2.628-1.306 2.401-.763 4.815.883 6.828.08.1.16.198.242.297 1.298 1.59 3.638 1.82 5.489 1.449 6.248-1.252 7.045-11.173 8.585-16.19A406.282 406.282 0 0 1 68.842 93.2c4.666-12.879 10.018-25.48 15.984-37.81 3.146-6.501-6.581-12.221-9.743-5.688" mask="url(#an)"/>
            </g>
            <g transform="translate(480 .536)">
                <mask id="ap" fill="#fff">
                    <use xlink:href="#ao"/>
                </mask>
                <path fill="#5BCEAA" d="M49.291 72.284a544.46 544.46 0 0 1-20.513 50.626c-3.042 6.534 6.681 12.264 9.741 5.687a573.381 573.381 0 0 0 21.652-53.318c2.391-6.863-8.505-9.813-10.88-2.995" mask="url(#ap)"/>
            </g>
            <g transform="translate(480 .536)">
                <mask id="ar" fill="#fff">
                    <use xlink:href="#aq"/>
                </mask>
                <path fill="#5BCEAA" d="M43.338 117.23a198.801 198.801 0 0 0-13.118 31.712c-2.186 6.932 8.703 9.9 10.88 2.995a181.419 181.419 0 0 1 11.98-29.02c3.335-6.43-6.4-12.136-9.742-5.687" mask="url(#ar)"/>
            </g>
            <g transform="translate(480 .536)">
                <mask id="at" fill="#fff">
                    <use xlink:href="#as"/>
                </mask>
                <path fill="#5BCEAA" d="M11.345 99.077c-9.117 11.021-16.253 23.134-21.497 36.433-1.125 2.852 1.235 6.157 3.94 6.93 3.19.912 5.828-1.116 6.94-3.935 4.48-11.362 10.808-22.047 18.595-31.46 4.592-5.55-3.347-13.565-7.978-7.968" mask="url(#at)"/>
            </g>
            <g transform="translate(480 .536)">
                <mask id="av" fill="#fff">
                    <use xlink:href="#au"/>
                </mask>
                <path fill="#5BCEAA" d="M108.837 126.789l-3.337 54.086c-.446 7.243 10.839 7.216 11.284 0l3.336-54.086c.447-7.243-10.838-7.216-11.283 0" mask="url(#av)"/>
            </g>
            <g transform="translate(480 .536)">
                <mask id="ax" fill="#fff">
                    <use xlink:href="#aw"/>
                </mask>
                <path fill="#5BCEAA" d="M-1.89 54.302c6.776-6.372 14.175-11.84 22.232-16.491 6.284-3.628.61-13.37-5.695-9.729A132.446 132.446 0 0 0-9.869 46.335c-5.297 4.98 2.692 12.937 7.979 7.967" mask="url(#ax)"/>
            </g>
            <g transform="translate(480 .536)">
                <mask id="az" fill="#fff">
                    <use xlink:href="#ay"/>
                </mask>
                <path fill="#5BCEAA" d="M68.84 31.268c-17.429 22.681-30.994 48.025-40.46 75-2.406 6.857 8.49 9.806 10.88 2.996 9.14-26.049 22.502-50.418 39.323-72.31 1.87-2.431.357-6.283-2.024-7.707-2.888-1.728-5.873-.38-7.718 2.02" mask="url(#az)"/>
            </g>
            <g transform="translate(480 .536)">
                <mask id="aB" fill="#fff">
                    <use xlink:href="#aA"/>
                </mask>
                <path fill="#5BCEAA" d="M137.158 86.95c-2.456 17.369-3.088 34.812-1.575 52.298.62 7.17 11.91 7.236 11.283 0-1.42-16.41-1.135-32.983 1.172-49.304.428-3.034-.745-6.016-3.94-6.93-2.638-.754-6.515.924-6.94 3.935" mask="url(#aB)"/>
            </g>
            <g transform="translate(480 .536)">
                <mask id="aD" fill="#fff">
                    <use xlink:href="#aC"/>
                </mask>
                <path fill="#3A3A3A" d="M35.261 61.28a105.417 105.417 0 0 1 2.714-4.429c2.256-.422 5.804-5.438 6.604-6.903 1.645-3.014 2.277-6.665 1.267-9.945a14.392 14.392 0 0 0-7.669 6.679c-.733 1.379-2.64 6.784-1.763 9.15a110.258 110.258 0 0 0-4.91 8.415c.635-2.302.858-5.234.832-6.3-.083-3.342-1.334-6.73-3.787-9.004a13.997 13.997 0 0 0-3.207 9.366c.063 1.76 1.43 8.839 3.934 9.002.297.02.568-.083.815-.28a111.336 111.336 0 0 0-4.726 11.116c.254-2.44-.107-5.613-.349-6.707-.718-3.266-2.59-6.355-5.431-8.122a13.988 13.988 0 0 0-1.366 9.805c.397 1.716 3.086 8.405 5.576 8.09.231-.029.432-.131.607-.289a111.893 111.893 0 0 0-3.417 12.75c-.274-2.253-1.003-4.745-1.373-5.662-1.25-3.101-3.608-5.837-6.704-7.11a13.988 13.988 0 0 0 .28 9.895c.677 1.626 4.439 7.778 6.841 7.057.07-.022.138-.05.2-.084a111.175 111.175 0 0 0-1.399 13.141c-.626-2.449-2.95-5.928-3.799-6.938-2.15-2.561-5.243-4.433-8.58-4.685a13.995 13.995 0 0 0 3.337 9.322c1.148 1.336 6.633 6.021 8.694 4.59.112-.077.198-.176.272-.285-.122 4.285.002 8.584.384 12.873-1.144-2.252-3.684-4.993-4.614-5.804-2.525-2.196-5.87-3.565-9.207-3.295a13.996 13.996 0 0 0 4.748 8.689c1.342 1.143 7.49 4.919 9.304 3.186.02-.02.027-.046.045-.067.29 2.531.663 5.056 1.133 7.57.22 1.176 2.098 1.059 1.876-.127a107.998 107.998 0 0 1-1.545-12.062c1.864 1.228 7.715-2.905 9.07-4.126 2.552-2.3 4.358-5.536 4.493-8.966a14.41 14.41 0 0 0-9.45 3.767c-.905.834-3.324 3.782-4.294 6.23-.156-3.61-.135-7.22.065-10.818 1.406 1.902 8.083-1.925 9.607-3.06 2.755-2.052 4.856-5.107 5.31-8.51a14.415 14.415 0 0 0-9.762 2.872c-1.015.775-3.86 3.66-4.978 6.065a109.92 109.92 0 0 1 2.036-14.005c1.506 1.633 8.21-.66 9.842-1.444 3.099-1.487 5.747-4.082 6.846-7.334a14.41 14.41 0 0 0-10.132.95c-1.099.542-4.227 2.67-5.855 4.736a109.844 109.844 0 0 1 2.988-10.178c1.273 1.895 8.269-.67 9.93-1.515 3.064-1.556 5.653-4.211 6.678-7.487a14.41 14.41 0 0 0-10.107 1.178c-.964.502-3.496 2.292-5.16 4.158a108.279 108.279 0 0 1 4.987-10.993c1.223 1.882 8.266.09 9.981-.57 3.208-1.235 6.055-3.611 7.41-6.766a14.417 14.417 0 0 0-10.175.139c-.903.36-3.159 1.614-4.947 3.08" mask="url(#aD)"/>
            </g>
            <g transform="translate(480 .536)">
                <mask id="aF" fill="#fff">
                    <use xlink:href="#aE"/>
                </mask>
                <path fill="#3A3A3A" d="M383.416 79.354a107.209 107.209 0 0 0-2.714-4.43c-2.256-.421-5.804-5.438-6.604-6.903-1.645-3.013-2.277-6.664-1.266-9.945a14.388 14.388 0 0 1 7.668 6.68c.734 1.38 2.64 6.784 1.763 9.15a110.107 110.107 0 0 1 4.911 8.414c-.636-2.301-.86-5.234-.833-6.3.084-3.342 1.334-6.73 3.787-9.004a13.994 13.994 0 0 1 3.207 9.368c-.064 1.76-1.43 8.837-3.934 9-.297.02-.568-.082-.814-.279a111.41 111.41 0 0 1 4.726 11.115c-.254-2.439.107-5.612.348-6.707.718-3.265 2.59-6.354 5.432-8.122a13.993 13.993 0 0 1 1.365 9.805c-.397 1.716-3.086 8.406-5.575 8.09a1.103 1.103 0 0 1-.608-.288c1.39 4.18 2.531 8.44 3.417 12.75.274-2.254 1.003-4.746 1.373-5.662 1.25-3.102 3.608-5.838 6.704-7.11a13.993 13.993 0 0 1-.28 9.895c-.676 1.626-4.438 7.778-6.84 7.056a1.1 1.1 0 0 1-.2-.083 111.145 111.145 0 0 1 1.398 13.14c.626-2.448 2.95-5.927 3.799-6.937 2.151-2.562 5.243-4.433 8.581-4.685a13.991 13.991 0 0 1-3.338 9.321c-1.147 1.336-6.634 6.022-8.693 4.59a1.046 1.046 0 0 1-.273-.285c.122 4.286-.002 8.585-.383 12.873 1.144-2.252 3.683-4.992 4.614-5.803 2.523-2.196 5.868-3.566 9.206-3.296a13.996 13.996 0 0 1-4.748 8.69c-1.342 1.143-7.49 4.918-9.303 3.185-.02-.019-.027-.045-.046-.066-.289 2.53-.664 5.055-1.132 7.57-.22 1.175-2.098 1.058-1.877-.128a107.998 107.998 0 0 0 1.545-12.061c-1.864 1.227-7.715-2.905-9.07-4.126-2.552-2.3-4.358-5.536-4.493-8.966 3.468.051 6.9 1.419 9.45 3.767.906.833 3.325 3.781 4.294 6.23.156-3.61.136-7.22-.064-10.818-1.406 1.902-8.084-1.925-9.608-3.06-2.754-2.053-4.855-5.107-5.31-8.51a14.414 14.414 0 0 1 9.761 2.872c1.016.774 3.862 3.66 4.98 6.064a110.074 110.074 0 0 0-2.036-14.004c-1.507 1.634-8.21-.66-9.843-1.444-3.098-1.487-5.746-4.082-6.845-7.335a14.416 14.416 0 0 1 10.131.95c1.1.542 4.227 2.67 5.855 4.737a109.609 109.609 0 0 0-2.987-10.178c-1.274 1.894-8.27-.671-9.931-1.515-3.064-1.557-5.653-4.212-6.677-7.487a14.41 14.41 0 0 1 10.106 1.177c.965.503 3.497 2.293 5.16 4.158a108.192 108.192 0 0 0-4.987-10.991c-1.223 1.881-8.266.09-9.98-.572-3.208-1.235-6.055-3.611-7.41-6.764a14.414 14.414 0 0 1 10.174.137c.904.36 3.159 1.614 4.947 3.08" mask="url(#aF)"/>
            </g>
            <g transform="translate(480 .536)">
                <mask id="aH" fill="#fff">
                    <use xlink:href="#aG"/>
                </mask>
                <path fill="#F88717" d="M112.987 27.625c1.314-1.034 3.288-1.42 4.658-.463 2.447 1.708 1.917 6.578 4.86 7.08 1.014.171 2.097-.338 3.062.017 1.496.55 1.591 2.59 1.473 4.178-.118 1.587.163 3.663 1.72 4.007.82.18 1.744-.237 2.482.161.439.238.695.715.834 1.193.64 2.19-.675 4.44-2.044 6.266-1.808 2.41-5.736 7.127-10.248 10.918-1.463.322-2.87 1.777-4.343 1.336-1.39-.417-1.768-2.221-1.59-3.659.178-1.439.649-2.964.042-4.28-1.036-2.247-4.21-2.183-6.652-1.764.279-3.352.265-7.324-1.937-9.624a129.91 129.91 0 0 1 4.839-11.292c.73-1.503 1.53-3.04 2.844-4.074" mask="url(#aH)"/>
            </g>
            <g transform="translate(480 .536)">
                <mask id="aJ" fill="#fff">
                    <use xlink:href="#aI"/>
                </mask>
                <path fill="#4847B7" d="M107.24 52.615c2.443-.42 5.617-.483 6.653 1.765.606 1.316.136 2.84-.042 4.279-.178 1.437.2 3.242 1.59 3.659 1.472.441 2.88-1.014 4.343-1.335-5.94 4.99-12.895 8.373-17.371 2.76-2.207-2.765-1.507-6.775-.557-10.182.996-3.571 2.15-7.097 3.448-10.57 2.202 2.3 2.216 6.272 1.937 9.624" mask="url(#aJ)"/>
            </g>
            <g transform="translate(480 .536)">
                <mask id="aL" fill="#fff">
                    <use xlink:href="#aK"/>
                </mask>
                <path fill="#F88717" d="M123.992 89c-.604-.876-1.99-.915-2.592-1.792-.462-.673-.286-1.595.05-2.339.335-.744.816-1.444.938-2.25.038-.257.035-.534-.1-.756-.395-.652-1.409-.302-2.139-.527-1.219-.374-1.21-2.112-.787-3.313.33-.934.724-2.03.485-2.918.359-.3.721-.596 1.09-.884 1.703-1.33 3.49-2.563 5.4-3.578 1.058-.563 2.284-1.067 3.425-.7 1.28.412 1.998 1.8 2.2 3.13.202 1.327.026 2.689.202 4.02.057.432.166.887.482 1.187.708.674 2.062.246 2.691.993.666.791-.135 1.93-.314 2.95-.197 1.117.418 2.237.335 3.37-.087 1.192-.928 2.19-1.824 2.984-2.603 2.303-6.539 3.35-10.189 3.198.243-.226.46-.476.624-.766.35-.615.424-1.428.023-2.01" mask="url(#aL)"/>
            </g>
            <g transform="translate(480 .536)">
                <mask id="aN" fill="#fff">
                    <use xlink:href="#aM"/>
                </mask>
                <path fill="#4847B7" d="M115.85 79.549c1.027-1.719 2.456-3.151 3.997-4.444.239.889-.155 1.984-.484 2.918-.425 1.2-.433 2.939.786 3.313.73.225 1.744-.125 2.14.527.134.222.137.5.098.756-.121.806-.602 1.506-.938 2.25-.334.744-.51 1.666-.049 2.34.602.876 1.987.915 2.592 1.79.402.582.326 1.396-.023 2.01-.164.29-.381.54-.623.766-6.545-.274-12.165-4.424-7.497-12.226" mask="url(#aN)"/>
            </g>
            <g transform="translate(480 .536)">
                <mask id="aP" fill="#fff">
                    <use xlink:href="#aO"/>
                </mask>
                <path fill="#F88717" d="M86.306 71.187c-1.037-.181-1.479-1.86-2.52-1.7-.99.152-1.065 1.813-2.034 2.068-.787.207-1.39-.654-1.85-1.324-.46-.671-1.481-1.276-1.99-.64-.355.446-.09 1.156-.397 1.638-.326.51-1.13.466-1.617.105-.487-.36-.768-.926-1.133-1.41a4.696 4.696 0 0 0-2.072-1.552c-.207-.079-.428-.138-.645-.12L68.08 55.596c-.299-.954-.601-1.942-.484-2.934.118-.992.775-1.993 1.757-2.182 1.699-.325 3.337 1.807 4.914 1.1 1.543-.692 1.231-3.383 2.785-4.05.798-.343 1.727.049 2.405.591.763.611 1.367 1.413 2.183 1.95.816.537 1.987.743 2.727.104 1.364-1.178.348-4.216 2.089-4.689.714-.194 1.434.277 1.969.788 3.144 3.002 3.637 7.833 3.266 12.16-.304 3.542-.996 7.634-2.248 11.319-1.065-.173-1.968 1.638-3.137 1.434" mask="url(#aP)"/>
            </g>
            <g transform="translate(480 .536)">
                <mask id="aR" fill="#fff">
                    <use xlink:href="#aQ"/>
                </mask>
                <path fill="#4847B7" d="M76.273 76.284c-2.204-1.77-3.157-4.628-4.002-7.324l-.223-.708c.217-.018.439.041.645.12.818.31 1.545.854 2.071 1.552.365.484.647 1.05 1.134 1.41.488.36 1.292.406 1.617-.105.307-.481.042-1.192.398-1.638.507-.636 1.53-.031 1.99.64.458.67 1.062 1.53 1.85 1.324.968-.255 1.043-1.916 2.034-2.068 1.04-.16 1.481 1.519 2.519 1.7 1.17.204 2.072-1.607 3.136-1.434-.547 1.612-1.2 3.147-1.98 4.524-2.097 3.712-7.835 4.697-11.189 2.007" mask="url(#aR)"/>
            </g>
            <g transform="translate(480 .536)">
                <mask id="aT" fill="#fff">
                    <use xlink:href="#aS"/>
                </mask>
                <path fill="#4847B7" d="M105.529 61.571a294.128 294.128 0 0 0-33.885 81.376c-.293 1.173 1.52 1.673 1.813.5a292.392 292.392 0 0 1 33.696-80.928c.628-1.037-.998-1.982-1.624-.948" mask="url(#aT)"/>
            </g>
            <g transform="translate(480 .536)">
                <mask id="aV" fill="#fff">
                    <use xlink:href="#aU"/>
                </mask>
                <path fill="#4847B7" d="M117.397 84.563c-11.259 3.428-22.896 7.215-31.06 16.144-.815.891.51 2.222 1.33 1.328 7.948-8.693 19.272-12.325 30.23-15.661 1.154-.352.662-2.165-.5-1.81" mask="url(#aV)"/>
            </g>
            <g transform="translate(480 .536)">
                <mask id="aX" fill="#fff">
                    <use xlink:href="#aW"/>
                </mask>
                <path fill="#4847B7" d="M79.112 76.037c2.084 11.834 2.574 23.797 1.513 35.762-.107 1.203 1.774 1.196 1.88 0 1.077-12.136.532-24.264-1.58-36.26-.21-1.189-2.022-.686-1.813.498" mask="url(#aX)"/>
            </g>
            <g transform="translate(480 .536)">
                <mask id="aZ" fill="#fff">
                    <use xlink:href="#aY"/>
                </mask>
                <path fill="#4847B7" d="M39.654 136.558c-5.033-19.48-2.331-40.843 7.395-58.461 11.034 20.72 15.637 44.797 13.025 68.117" mask="url(#aZ)"/>
            </g>
            <g transform="translate(480 .536)">
                <mask id="bb" fill="#fff">
                    <use xlink:href="#ba"/>
                </mask>
                <path fill="#4847B7" d="M202.794 148.026a138.174 138.174 0 0 1-21.035-45.669c10.153 1.057 19.223 7.31 25.625 15.252 6.4 7.94 10.456 17.485 13.978 27.052 1.276 3.467 2.512 7.1 2.122 10.772" mask="url(#bb)"/>
            </g>
            <g transform="translate(480 .536)">
                <mask id="bd" fill="#fff">
                    <use xlink:href="#bc"/>
                </mask>
                <path fill="#4847B7" d="M409.235 70.993c-3.296-7.964-4.984-16.785-3.457-25.266 11.35 6.04 20.384 16.302 24.93 28.318 1.633 4.313 2.686 9.189.985 13.477-6.977 17.578-20.016-10.63-22.458-16.529" mask="url(#bd)"/>
            </g>
            <g transform="translate(480 .536)">
                <mask id="bf" fill="#fff">
                    <use xlink:href="#be"/>
                </mask>
                <path fill="#4847B7" d="M267.536 102.129c6.692 11.22 4.858 25.51 1.096 38.016-3.205 10.658-8.777 22.047-19.316 25.661-5.924 2.032-13.55.566-16.577-4.91-5.472-9.9 4.462-23.447 9.208-31.822 6.18-10.903 14.947-20.277 25.59-26.945" mask="url(#bf)"/>
            </g>
            <g transform="translate(480 .536)">
                <mask id="bh" fill="#fff">
                    <use xlink:href="#bg"/>
                </mask>
                <path fill="#F88717" d="M140.379 118.08c-1.376-2.537 1.525-6.089 4.29-5.254.868-1.2-.544-2.727-.765-4.19-.289-1.912 1.721-3.561 3.658-3.59 1.024-.016 1.997.289 2.917.748-2.67-6.328-6.979-17.576-14.432-16.15-3.588.686-6.181 5.256-4.125 8.273-1.48-.592-3.04-1.196-4.621-.99-1.581.205-3.138 1.53-2.996 3.116-3.504.363-7.234 2.569-7.674 6.06-.585 4.636 4.528 7.728 8.844 9.535l9.825 4.116c1.014-1.636 3.286-2.438 5.079-1.675" mask="url(#bh)"/>
            </g>
            <g transform="translate(480 .536)">
                <mask id="bj" fill="#fff">
                    <use xlink:href="#bi"/>
                </mask>
                <path fill="#4847B7" d="M148.925 123.107c2.757-1.048 4.362-4.091 4.498-7.034.135-2.942-.932-5.803-2.161-8.48a67.599 67.599 0 0 1-.783-1.8c-.92-.458-1.893-.763-2.917-.747-1.936.029-3.946 1.677-3.658 3.59.222 1.464 1.633 2.99.765 4.189-2.765-.835-5.666 2.718-4.29 5.255-1.793-.764-4.066.037-5.078 1.674 1.667.699 3.333 1.397 5 2.094 2.748 1.152 5.837 2.316 8.624 1.259" mask="url(#bj)"/>
            </g>
            <g transform="translate(480 .536)">
                <mask id="bl" fill="#fff">
                    <use xlink:href="#bk"/>
                </mask>
                <path fill="#4847B7" d="M148.771 120.299c1.21 0 1.212-1.878 0-1.878-1.21 0-1.212 1.878 0 1.878" mask="url(#bl)"/>
            </g>
            <g transform="translate(480 .536)">
                <mask id="bn" fill="#fff">
                    <use xlink:href="#bm"/>
                </mask>
                <path fill="#4847B7" d="M147.493 119.858c11.008 9.33 19.208 21.348 23.816 35.017.384 1.14 2.2.65 1.813-.5-4.707-13.965-13.047-26.308-24.299-35.846-.917-.777-2.254.545-1.33 1.329" mask="url(#bn)"/>
            </g>
            <g transform="translate(480 .536)">
                <mask id="bp" fill="#fff">
                    <use xlink:href="#bo"/>
                </mask>
                <path fill="#5BCEAA" d="M348.06 162.167a639.3 639.3 0 0 0-33.486-59.145c-3.893-6.097-13.662-.451-9.742 5.687a639.313 639.313 0 0 1 33.485 59.146c3.233 6.494 12.969.792 9.743-5.688" mask="url(#bp)"/>
            </g>
            <g transform="translate(480 .536)">
                <mask id="br" fill="#fff">
                    <use xlink:href="#bq"/>
                </mask>
                <path fill="#F88717" d="M349.58 113.269a2.577 2.577 0 0 1-2.58 2.575 2.577 2.577 0 0 1-2.578-2.575 2.577 2.577 0 0 1 2.579-2.576 2.577 2.577 0 0 1 2.579 2.576" mask="url(#br)"/>
            </g>
            <g transform="translate(480 .536)">
                <mask id="bt" fill="#fff">
                    <use xlink:href="#bs"/>
                </mask>
                <path fill="#F88717" d="M382.979 45.727a2.577 2.577 0 0 1-2.58 2.576 2.577 2.577 0 0 1-2.578-2.576 2.577 2.577 0 0 1 2.579-2.576 2.577 2.577 0 0 1 2.579 2.576" mask="url(#bt)"/>
            </g>
            <g transform="translate(480 .536)">
                <mask id="bv" fill="#fff">
                    <use xlink:href="#bu"/>
                </mask>
                <path fill="#F88717" d="M391.81 26.523a2.577 2.577 0 0 1-2.58 2.576 2.577 2.577 0 0 1-2.579-2.576 2.577 2.577 0 0 1 2.58-2.576 2.577 2.577 0 0 1 2.58 2.576" mask="url(#bv)"/>
            </g>
            <g transform="translate(480 .536)">
                <mask id="bx" fill="#fff">
                    <use xlink:href="#bw"/>
                </mask>
                <path fill="#F88717" d="M35.05 25a2.577 2.577 0 0 1-2.579 2.575A2.577 2.577 0 0 1 29.891 25a2.577 2.577 0 0 1 2.58-2.576A2.577 2.577 0 0 1 35.051 25" mask="url(#bx)"/>
            </g>
            <g transform="translate(480 .536)">
                <mask id="bz" fill="#fff">
                    <use xlink:href="#by"/>
                </mask>
                <path fill="#F88717" d="M55.783 93.214a2.577 2.577 0 0 1-2.579 2.575 2.577 2.577 0 0 1-2.58-2.575 2.577 2.577 0 0 1 2.58-2.576 2.577 2.577 0 0 1 2.58 2.576" mask="url(#bz)"/>
            </g>
            <g transform="translate(480 .536)">
                <mask id="bB" fill="#fff">
                    <use xlink:href="#bA"/>
                </mask>
                <path fill="#F88717" d="M170.176 110.693a2.577 2.577 0 0 1-2.58 2.576 2.577 2.577 0 0 1-2.578-2.576 2.577 2.577 0 0 1 2.579-2.576 2.577 2.577 0 0 1 2.579 2.576" mask="url(#bB)"/>
            </g>
            <g transform="translate(480 .536)">
                <mask id="bD" fill="#fff">
                    <use xlink:href="#bC"/>
                </mask>
                <path fill="#F88717" d="M156.014 75.702a2.577 2.577 0 0 1-2.58 2.576 2.577 2.577 0 0 1-2.579-2.576 2.577 2.577 0 0 1 2.58-2.576 2.577 2.577 0 0 1 2.579 2.576" mask="url(#bD)"/>
            </g>
            <g transform="translate(480 .536)">
                <mask id="bF" fill="#fff">
                    <use xlink:href="#bE"/>
                </mask>
                <path fill="#F88717" d="M70.438 81.033a2.577 2.577 0 0 1-2.579 2.576 2.577 2.577 0 0 1-2.58-2.576 2.577 2.577 0 0 1 2.58-2.576 2.577 2.577 0 0 1 2.58 2.576" mask="url(#bF)"/>
            </g>
            <g transform="translate(480 .536)">
                <mask id="bH" fill="#fff">
                    <use xlink:href="#bG"/>
                </mask>
                <path fill="#F88717" d="M103.403 16.847a2.578 2.578 0 0 1-2.579 2.576 2.577 2.577 0 1 1 0-5.152 2.577 2.577 0 0 1 2.58 2.576" mask="url(#bH)"/>
            </g>
            <g transform="translate(480 .536)">
                <mask id="bJ" fill="#fff">
                    <use xlink:href="#bI"/>
                </mask>
                <path fill="#F88717" d="M63.368 32.946a2.577 2.577 0 0 1-2.58 2.576 2.577 2.577 0 1 1 0-5.152 2.577 2.577 0 0 1 2.58 2.576" mask="url(#bJ)"/>
            </g>
            <g fill="#3A3A3A">
                <path d="M644.862 45.348h-8.36v6.37h9.784v2.731h-13.148V34.156h13.05v2.759H636.5v5.728h8.36zM656.795 52.08c.409 0 .807-.066 1.193-.195.386-.13.728-.311 1.026-.544.298-.232.532-.506.705-.822.172-.316.253-.66.244-1.032h3.154a4.161 4.161 0 0 1-.495 2.042c-.34.636-.8 1.192-1.382 1.666a6.93 6.93 0 0 1-2.016 1.129 6.948 6.948 0 0 1-2.401.418c-1.163 0-2.183-.2-3.057-.6a6.197 6.197 0 0 1-2.19-1.638 6.964 6.964 0 0 1-1.32-2.411 9.5 9.5 0 0 1-.44-2.92v-.501c0-1.031.146-2.007.44-2.927a6.896 6.896 0 0 1 1.32-2.412 6.313 6.313 0 0 1 2.19-1.637c.874-.405 1.888-.607 3.043-.607.911 0 1.756.14 2.533.419a6.05 6.05 0 0 1 2.01 1.17c.562.502 1 1.101 1.312 1.799.311.697.462 1.458.453 2.285h-3.154a2.775 2.775 0 0 0-.88-2.104 3.265 3.265 0 0 0-1.018-.641 3.397 3.397 0 0 0-1.284-.238c-.698 0-1.28.142-1.745.426a3.28 3.28 0 0 0-1.116 1.114c-.28.46-.478.983-.594 1.569a9.11 9.11 0 0 0-.174 1.784v.502c0 .613.058 1.212.174 1.797a4.78 4.78 0 0 0 .594 1.568c.279.46.65.832 1.116 1.116.465.284 1.052.425 1.759.425M681.583 42.03h-5.877v12.42h-3.35V42.03h-5.82v-2.662h15.047zM687.752 47.425v4.362h4.186c.494 0 .91-.06 1.25-.181.34-.121.616-.279.83-.474.214-.195.37-.42.468-.676.098-.256.146-.522.146-.801s-.048-.552-.146-.816a1.913 1.913 0 0 0-.468-.71 2.394 2.394 0 0 0-.83-.51c-.34-.13-.756-.194-1.25-.194h-4.186zm0-2.663h4.186c.968 0 1.829.118 2.583.356.753.236 1.386.569 1.898.996.512.428.9.936 1.166 1.526.264.59.397 1.239.397 1.945 0 .687-.133 1.329-.397 1.924a4.331 4.331 0 0 1-1.166 1.546c-.512.437-1.145.779-1.898 1.024-.754.248-1.615.37-2.583.37h-7.522V39.369h3.336v5.394zM731.66 39.368V54.45h-3.349V42.072h-4.718v3.722c0 1.43-.093 2.688-.279 3.77-.186 1.083-.498 1.986-.935 2.711a4.233 4.233 0 0 1-1.73 1.631c-.717.362-1.602.543-2.652.543h-.74l.014-2.815h.517c.502 0 .911-.11 1.227-.328.317-.218.568-.562.754-1.031.186-.469.311-1.074.377-1.813.065-.738.097-1.628.097-2.668v-6.426h11.418zM745.478 39.368h3.336V54.45h-3.336V44.191l-6.392 10.258h-3.336V39.37h3.336v10.257zM775.75 44.762a45.97 45.97 0 0 1-.383 3.987c-.172 1.18-.444 2.193-.817 3.038h5.123v-9.534h-3.852l-.07 2.51zm-5.582 7.011c.456-.065.82-.283 1.096-.655.274-.372.488-.866.642-1.485.153-.617.265-1.34.334-2.166.07-.827.128-1.729.175-2.705l.154-5.394h10.44v12.42h2.08l-.28 7.136h-3.056V54.45h-9.729v4.474h-3.098l-.279-7.15h1.521zM793.407 48.414l.572 1.812 4.242-10.858h3.7l-7.65 17.367c-.166.38-.385.793-.655 1.234-.27.441-.603.852-.998 1.233-.395.38-.868.7-1.417.955-.549.256-1.19.384-1.926.384-.306 0-.616-.027-.928-.078a8.414 8.414 0 0 1-.83-.173l.474-2.593c.065 0 .154.002.265.006.112.006.228.012.35.022.12.008.234.016.341.021.107.005.193.007.258.007.326 0 .617-.095.873-.286.256-.19.481-.409.677-.655.195-.246.356-.488.481-.725.126-.237.216-.397.273-.481l.99-1.867-6.42-14.37h3.685l3.643 9.045zM807.154 39.368v12.419h2.234V39.368h3.224v12.419h2.233V39.368h3.28V54.45h-14.25V39.37zM827.336 52.038a4.496 4.496 0 0 0 2.226-.58c.302-.17.563-.368.782-.591.218-.222.393-.45.523-.683v-2.829h-2.121c-1.359 0-2.361.219-3.008.655-.646.437-.97 1.06-.97 1.868 0 .306.051.592.154.857.102.264.258.493.467.683.21.19.474.341.796.453.32.111.704.167 1.151.167zm4.02 2.411a3.039 3.039 0 0 1-.23-.655c-.061-.25-.115-.52-.161-.808a5.607 5.607 0 0 1-1.766 1.227 6.114 6.114 0 0 1-2.491.515c-.8 0-1.524-.113-2.17-.342a5.002 5.002 0 0 1-1.66-.948 4.221 4.221 0 0 1-1.07-1.428 4.232 4.232 0 0 1-.376-1.784c0-1.616.603-2.853 1.808-3.708 1.205-.854 2.933-1.282 5.185-1.282h2.442v-.99c0-.799-.27-1.433-.81-1.902-.54-.469-1.302-.704-2.288-.704-.447 0-.838.053-1.172.16a2.478 2.478 0 0 0-.838.44c-.224.185-.39.404-.503.655-.111.25-.167.52-.167.808h-3.336c0-.585.137-1.155.412-1.708a4.476 4.476 0 0 1 1.207-1.477c.531-.432 1.18-.778 1.947-1.038.768-.26 1.645-.39 2.631-.39.894 0 1.721.109 2.485.326.762.22 1.423.544 1.982.976.558.432.995.972 1.311 1.617.316.647.475 1.402.475 2.265v6.718c0 .66.049 1.262.147 1.806.098.543.239 1.014.426 1.415v.236h-3.42zM690.487 82.668l.573 1.812 4.242-10.858h3.699l-7.649 17.367c-.167.381-.386.793-.656 1.235-.27.44-.602.851-.997 1.232-.396.381-.868.7-1.417.955-.55.256-1.191.384-1.926.384-.307 0-.617-.026-.928-.078a8.414 8.414 0 0 1-.83-.173l.474-2.593a10.353 10.353 0 0 1 .614.029c.12.008.234.015.342.02.107.005.193.007.258.007.326 0 .616-.095.873-.285.255-.191.481-.41.677-.656.194-.246.355-.488.481-.725s.216-.397.272-.48l.991-1.868-6.42-14.37h3.684l3.643 9.045zM718.597 73.622h3.35v12.42h5.96v-12.42h3.335v12.42h2.038l-.28 7.136h-3.042v-4.475h-11.361zM739.211 82.278v3.791h3.755c.902 0 1.57-.162 2.003-.488.432-.324.649-.794.649-1.408 0-.585-.21-1.047-.628-1.386-.42-.34-1.094-.509-2.024-.509h-3.755zm0-2.411h2.82c1.972 0 2.959-.576 2.959-1.729 0-.64-.251-1.11-.754-1.408-.502-.296-1.252-.446-2.248-.446h-2.777v3.583zm-3.336 8.837V73.623h6.113c.978 0 1.857.083 2.638.25.782.167 1.448.426 1.997.774.548.349.97.785 1.263 1.31.292.525.44 1.14.44 1.847a2.96 2.96 0 0 1-.65 1.875c-.433.552-1.067.978-1.905 1.275 1.06.242 1.856.677 2.387 1.303.53.628.795 1.34.795 2.14 0 .715-.135 1.343-.405 1.881-.27.54-.66.988-1.172 1.346-.512.357-1.14.626-1.884.808-.744.18-1.587.272-2.526.272h-7.09zM759.742 76.034c-.465 0-.898.083-1.298.25-.4.168-.758.412-1.074.732-.317.321-.585.712-.803 1.17-.219.461-.375.984-.468 1.57h7.076v-.252a4.802 4.802 0 0 0-.258-1.29 3.42 3.42 0 0 0-.635-1.107 3.036 3.036 0 0 0-1.053-.78c-.424-.196-.92-.293-1.487-.293m.405 12.948c-1.116 0-2.136-.186-3.056-.557a7.06 7.06 0 0 1-2.366-1.533 6.87 6.87 0 0 1-1.529-2.307 7.526 7.526 0 0 1-.544-2.878v-.572c0-1.199.193-2.276.579-3.234.386-.956.903-1.774 1.55-2.452a6.651 6.651 0 0 1 2.26-1.561 6.917 6.917 0 0 1 2.715-.544c1.098 0 2.066.183 2.903.55a5.723 5.723 0 0 1 2.1 1.548c.563.664.989 1.452 1.278 2.362.288.91.432 1.91.432 2.997v1.408h-10.468c.057.585.2 1.129.434 1.63.232.502.537.936.914 1.304.376.366.818.654 1.326.864a4.334 4.334 0 0 0 1.667.313c.847 0 1.626-.167 2.338-.502a4.604 4.604 0 0 0 1.738-1.38l1.814 1.7a5.542 5.542 0 0 1-.935 1.053c-.382.34-.828.641-1.34.907a8.197 8.197 0 0 1-1.724.64 8.449 8.449 0 0 1-2.086.244M784.502 76.285h-5.876v12.418h-3.35V76.285h-5.82v-2.663h15.046zM790.14 81.316c0 .688.073 1.334.217 1.938.144.604.367 1.136.67 1.595.302.46.686.823 1.151 1.087.465.266 1.019.398 1.661.398.624 0 1.165-.132 1.627-.398.46-.264.841-.626 1.144-1.087.302-.459.525-.99.67-1.595a8.35 8.35 0 0 0 .216-1.938v-.293c0-.668-.072-1.304-.216-1.91a4.921 4.921 0 0 0-.67-1.588 3.465 3.465 0 0 0-1.144-1.087c-.462-.27-1.013-.404-1.655-.404-.632 0-1.181.134-1.647.404-.465.27-.847.633-1.144 1.087a4.996 4.996 0 0 0-.663 1.589 8.195 8.195 0 0 0-.216 1.91v.292zm-3.335-.293c0-1.087.16-2.1.482-3.038a7.219 7.219 0 0 1 1.38-2.44 6.337 6.337 0 0 1 2.2-1.616c.865-.39 1.846-.585 2.944-.585 1.108 0 2.096.194 2.966.585.87.39 1.606.93 2.205 1.617.6.688 1.058 1.5 1.375 2.439a9.47 9.47 0 0 1 .475 3.038v.293c0 1.097-.159 2.114-.475 3.052-.317.94-.775 1.75-1.375 2.433a6.355 6.355 0 0 1-2.198 1.61c-.865.39-1.847.586-2.945.586-1.107 0-2.096-.196-2.966-.586a6.342 6.342 0 0 1-2.205-1.61c-.6-.682-1.06-1.494-1.381-2.433-.321-.938-.482-1.955-.482-3.052v-.293zM807.824 82.278v3.791h3.755c.902 0 1.57-.162 2.003-.488.432-.324.649-.794.649-1.408 0-.585-.21-1.047-.628-1.386-.42-.34-1.094-.509-2.024-.509h-3.755zm0-2.411h2.82c1.972 0 2.959-.576 2.959-1.729 0-.64-.252-1.11-.754-1.408-.502-.296-1.252-.446-2.248-.446h-2.777v3.583zm-3.336 8.837V73.623h6.113c.978 0 1.857.083 2.638.25.782.167 1.448.426 1.997.774.548.349.97.785 1.263 1.31.292.525.439 1.14.439 1.847a2.96 2.96 0 0 1-.65 1.875c-.432.552-1.067.978-1.904 1.275 1.06.242 1.856.677 2.387 1.303.53.628.795 1.34.795 2.14 0 .715-.135 1.343-.405 1.881-.27.54-.66.988-1.172 1.346-.512.357-1.14.626-1.884.808-.744.18-1.587.272-2.526.272h-7.09zM826.136 87.031c0-.548.17-1.001.51-1.359.338-.357.825-.536 1.458-.536.632 0 1.123.179 1.472.536.35.358.524.811.524 1.359 0 .53-.174.968-.524 1.318-.349.347-.84.522-1.472.522-.633 0-1.12-.175-1.459-.522-.34-.35-.51-.788-.51-1.318zm.432-4.265c0-.66.02-1.213.056-1.659.038-.445.121-.84.251-1.185.13-.343.326-.667.587-.968.26-.302.618-.648 1.074-1.039.308-.306.624-.625.95-.955.325-.33.62-.673.886-1.03a5.99 5.99 0 0 0 .656-1.109c.172-.38.258-.775.258-1.185 0-.92-.256-1.605-.768-2.056-.511-.45-1.251-.676-2.219-.676-.372 0-.737.05-1.096.147a2.91 2.91 0 0 0-.956.453c-.279.205-.505.466-.676.788-.172.32-.259.703-.259 1.15h-3.35c.01-.865.18-1.63.51-2.294.33-.664.78-1.222 1.347-1.672a5.868 5.868 0 0 1 1.996-1.018 8.681 8.681 0 0 1 2.484-.341c1.005 0 1.898.118 2.68.356.782.236 1.445.583 1.99 1.038a4.415 4.415 0 0 1 1.241 1.686c.284.67.426 1.436.426 2.3a4.93 4.93 0 0 1-.342 1.846 7.278 7.278 0 0 1-.893 1.61c-.368.503-.78.972-1.235 1.408-.457.438-.908.856-1.354 1.255-.28.279-.494.53-.643.753a2.56 2.56 0 0 0-.328.683c-.07.232-.109.483-.118.752-.01.27-.014.59-.014.962h-3.14z"/>
            </g>
        </g>
    </g>
</svg>
