<svg xmlns="http://www.w3.org/2000/svg" x="0px" y="0px" viewBox="0 0 30 30" width="30" height="30">
    <path fill="#00B253" d="M15.5,7C18,7,20,9,20,11.5S18,16,15.5,16S11,14,11,11.5S13,7,15.5,7"/>
    <path fill="#00B253" d="M22.6,25l-1.1-5c-0.3-1.6-1.6-2.8-3.1-3.2c-0.2-0.1-0.4,0-0.6,0.1C17,17.2,16,17.5,15,17.5
        c-1,0-1.9-0.2-2.7-0.6c-0.2-0.1-0.4-0.1-0.6-0.1c-1.5,0.4-2.7,1.6-3.1,3.2l-1.1,5c-3-2.3-5-5.9-5-10c0-6.9,5.6-12.6,12.6-12.6
        C22,2.4,27.6,8.1,27.6,15C27.6,18.9,25.7,22.6,22.6,25 M15,0C6.7,0,0,6.7,0,15s6.7,15,15,15s15-6.7,15-15S23.3,0,15,0"/>
</svg>
