<svg xmlns="http://www.w3.org/2000/svg" width="35" height="20" viewBox="0 0 35 20">
    <path fill="#FFF" fill-rule="evenodd" d="M33.193 19.566h-4.276c-2.722 0-3.305-.9-5.637-3.06-2.138-1.981-2.527-.901-2.527 1.98 0 .72-.389 1.44-1.36 1.44-2.916 0-6.22.9-10.497-3.6C4.23 11.463.343 2.82.149 1.92-.24.84.149.48 1.121.48h4.47c1.361 0 1.361.72 1.75 1.44 1.555 3.421 5.637 11.344 6.609 7.563.583-2.16.583-7.203-1.944-7.743-1.75-.36 1.944-2.52 6.803-1.44 1.75.36 1.75 1.26 1.75 2.34 0 4.322-.584 7.023.583 7.743 1.166.72 3.887-4.681 5.442-8.283.389-1.08.583-1.62 1.75-1.62h4.859c3.304 0 0 4.681-2.916 8.103-2.332 2.88-2.138 2.88.39 5.401 3.303 2.521 6.413 5.582 2.526 5.582z"/>
</svg>
